{"glyphs":{"0":{"ha":740,"x_min":79,"x_max":944,"o":"m 731 1015 q 512 864 635 1015 q 305 512 389 713 q 221 171 221 311 q 304 39 221 39 q 486 142 390 39 q 653 387 582 246 q 771 669 724 528 q 818 890 818 811 q 731 1015 818 1015 m 775 1064 q 901 1007 857 1064 q 944 851 944 950 q 874 567 944 724 q 701 281 804 411 q 469 63 597 151 q 232 -25 340 -25 q 118 31 157 -25 q 79 186 79 88 q 130 433 79 288 q 278 728 181 579 q 486 958 375 876 q 775 1064 629 1064 z "},"1":{"ha":339,"x_min":-33,"x_max":660,"o":"m 93 42 q -12 -25 44 -25 q -33 -7 -33 -25 q -8 71 -33 13 q 53 199 17 129 q 124 336 89 269 q 186 450 160 403 l 211 496 q 438 942 438 872 q 388 972 438 972 l 336 965 q 314 976 314 965 q 317 985 314 981 q 322 993 319 990 l 325 996 q 360 1013 336 1003 q 466 1042 383 1024 q 644 1060 549 1060 q 660 1043 660 1056 q 644 1017 660 1032 q 525 840 600 969 q 315 457 390 607 q 265 353 304 435 q 208 238 225 272 q 157 144 190 203 q 93 42 124 86 z "},"2":{"ha":571,"x_min":-115,"x_max":807,"o":"m 497 186 q 447 75 472 119 q 410 19 422 31 l 397 8 q 272 -8 379 -8 q 197 -7 250 -8 q 108 -6 144 -6 q -15 -7 60 -6 q -96 -8 -89 -8 q -115 7 -115 -8 l -108 31 q 40 192 -69 88 q 240 372 150 297 l 331 449 q 422 528 386 496 q 522 625 457 560 q 622 751 588 690 q 657 860 657 811 q 626 928 657 903 q 551 954 596 954 q 456 924 503 954 q 388 865 410 894 l 365 836 q 343 818 353 818 q 331 836 331 818 q 335 862 331 842 q 358 918 340 882 q 403 986 376 954 q 482 1042 431 1018 q 599 1065 533 1065 q 743 1026 679 1065 q 807 907 807 988 q 563 571 807 738 q 296 358 481 518 q 111 143 111 197 q 129 125 111 126 q 240 117 178 117 q 467 194 410 117 q 488 208 476 208 q 500 196 500 208 q 497 186 500 192 z "},"3":{"ha":599,"x_min":-71,"x_max":779,"o":"m -61 -65 q -71 -51 -71 -57 q -65 -43 -71 -46 q -53 -39 -58 -40 l -46 -39 q 18 -46 -8 -46 q 217 13 118 -46 q 378 169 315 71 q 442 374 442 268 q 422 461 442 422 q 373 520 401 500 q 316 554 344 540 q 267 572 288 568 l 247 575 q 236 586 236 576 q 243 603 236 593 q 261 611 250 611 q 426 639 342 611 q 574 728 510 667 q 638 867 638 789 q 608 947 638 917 q 529 978 579 978 q 458 963 496 978 q 397 933 419 949 l 376 919 q 363 914 369 914 q 350 935 350 914 q 357 948 350 936 q 383 979 364 960 q 428 1016 401 999 q 499 1047 454 1033 q 597 1060 544 1060 q 728 1022 676 1060 q 779 914 779 983 q 750 802 779 854 q 672 714 721 750 q 571 653 622 678 q 465 613 519 628 q 453 599 453 606 q 460 590 453 594 q 472 582 464 588 q 501 556 481 576 q 538 511 522 535 q 566 449 553 488 q 579 367 579 410 q 540 203 579 286 q 435 54 501 121 q 271 -55 368 -12 q 65 -97 174 -97 q -61 -65 -21 -97 z "},"4":{"ha":576,"x_min":18,"x_max":911,"o":"m 689 414 q 553 322 644 332 q 489 317 531 319 l 351 57 q 280 -10 326 18 q 193 -37 233 -37 q 176 -19 176 -37 l 178 -8 q 356 314 199 38 l 318 314 l 46 322 q 18 346 18 324 l 24 367 q 85 434 46 392 q 237 588 125 476 q 449 790 349 700 q 668 967 549 881 q 867 1078 788 1053 q 883 1079 875 1079 q 911 1061 911 1079 q 908 1049 911 1054 q 845 936 900 1031 q 701 689 790 842 q 551 429 613 536 q 611 433 582 431 q 658 437 640 435 q 681 439 675 439 q 694 429 694 439 q 689 414 694 424 m 701 907 q 707 924 707 918 q 701 929 707 929 l 686 924 q 447 731 567 842 q 265 550 326 621 l 204 481 q 194 458 194 469 q 215 440 194 444 q 421 428 303 429 l 701 907 z "},"5":{"ha":565,"x_min":-60,"x_max":868,"o":"m 367 722 q 543 661 475 722 q 611 493 611 600 q 528 228 611 360 q 310 12 444 96 q 36 -72 175 -72 q -10 -69 13 -72 q -42 -64 -32 -67 l -51 -62 q -60 -47 -60 -56 q -53 -38 -60 -42 q -42 -33 -47 -35 l -36 -32 q 213 51 92 -32 q 404 250 333 133 q 475 472 475 367 q 456 550 475 518 q 405 595 436 582 q 349 613 374 608 q 300 618 325 618 q 281 616 293 618 q 263 614 268 614 q 243 629 243 614 l 246 642 q 313 764 257 668 q 419 943 369 860 l 469 1026 q 500 1039 478 1039 l 533 1038 q 615 1035 565 1036 q 707 1033 664 1033 q 844 1042 811 1033 q 854 1043 850 1043 q 868 1031 868 1043 q 831 958 868 1004 q 735 911 794 911 q 676 912 713 911 q 625 913 640 913 q 471 906 508 913 q 432 879 446 904 q 356 743 364 771 q 354 733 354 738 q 367 722 354 722 z "},"6":{"ha":606,"x_min":50,"x_max":853,"o":"m 490 589 q 349 510 429 589 q 214 306 269 432 q 167 125 167 197 q 185 55 167 85 q 243 25 204 25 q 373 107 299 25 q 500 301 447 189 q 553 496 553 414 q 490 589 553 589 m 678 517 q 619 283 678 406 q 453 73 561 161 q 221 -15 344 -15 q 50 154 50 -15 q 92 351 50 232 q 208 599 133 471 q 374 840 282 728 q 578 1026 465 953 q 794 1099 690 1099 q 842 1093 821 1099 q 853 1078 853 1086 q 838 1068 853 1068 q 809 1065 828 1068 q 732 1033 790 1061 q 615 956 674 1006 q 475 800 557 907 q 318 549 393 693 q 317 540 317 544 q 319 535 317 535 q 332 543 325 535 q 367 575 344 556 q 448 626 389 594 q 554 658 507 658 q 644 619 610 658 q 678 517 678 581 z "},"7":{"ha":508,"x_min":11,"x_max":856,"o":"m 182 179 q 43 -24 81 -24 q 19 9 28 -24 q 11 61 11 42 q 31 163 11 108 q 88 274 50 218 q 164 379 126 331 q 256 483 201 428 q 344 571 311 539 q 426 648 376 603 q 482 699 475 693 q 590 813 529 743 q 650 910 650 883 q 646 919 650 915 q 636 925 642 924 l 632 925 q 518 931 575 931 q 422 925 464 931 q 365 914 381 919 l 350 907 q 333 901 340 901 l 319 917 q 324 931 321 922 q 340 961 328 939 q 365 1001 351 983 q 402 1032 379 1018 q 451 1046 425 1046 q 721 1035 643 1046 q 738 1042 731 1035 q 839 1104 806 1104 q 856 1088 856 1104 q 849 1060 856 1076 q 835 1031 843 1044 q 813 999 826 1018 q 790 969 799 981 q 767 942 781 958 q 750 922 753 925 q 614 778 715 881 q 545 706 588 751 q 408 542 503 660 q 264 331 314 424 q 182 179 211 238 z "},"8":{"ha":678,"x_min":26,"x_max":963,"o":"m 275 -22 q 94 31 163 -22 q 26 189 26 83 q 72 345 26 269 q 194 478 118 421 q 342 574 271 535 q 489 644 413 614 q 496 658 496 647 q 476 832 476 729 q 563 994 476 926 q 769 1061 649 1061 q 908 1030 854 1061 q 963 933 963 999 q 647 615 963 771 q 642 606 642 614 l 646 590 q 656 551 650 575 q 666 496 661 526 q 675 428 671 465 q 679 356 679 390 q 559 83 679 188 q 275 -22 439 -22 m 544 349 q 508 601 544 460 q 501 610 508 610 q 494 608 497 610 q 414 563 464 597 q 303 472 364 528 q 201 328 243 415 q 158 149 158 242 q 193 51 158 86 q 288 15 228 15 q 428 69 368 15 q 517 198 489 124 q 544 349 544 272 m 643 654 q 785 775 729 700 q 840 935 840 850 q 815 1001 840 976 q 750 1025 789 1025 q 647 981 693 1025 q 601 874 601 936 q 606 774 601 806 q 628 657 610 742 q 636 653 631 653 q 643 654 640 653 z "},"9":{"ha":647,"x_min":-60,"x_max":838,"o":"m 733 953 q 667 1038 733 1038 q 528 957 601 1038 q 409 771 456 876 q 363 589 363 665 q 425 503 363 503 q 566 585 492 503 q 687 772 640 667 q 733 953 733 878 m 660 415 q 547 247 606 325 q 408 90 488 169 q 232 -35 328 11 q 38 -81 136 -81 q -60 -54 -60 -81 q -51 -43 -60 -47 q -36 -39 -42 -39 q 110 -7 36 -39 q 244 76 185 25 q 360 190 304 128 q 457 313 415 251 q 529 426 499 375 q 575 510 560 478 l 592 542 q 596 553 596 550 q 593 556 596 556 l 579 549 q 356 432 463 432 q 242 576 242 432 q 295 798 242 683 q 448 994 349 913 q 661 1075 547 1075 q 790 1029 743 1075 q 838 897 838 983 q 808 731 838 821 q 748 577 779 640 q 660 415 717 514 z "}," ":{"ha":250,"x_min":0,"x_max":0,"o":""},"!":{"ha":331,"x_min":0,"x_max":656,"o":"m 31 124 q 47 143 31 124 q 101 163 63 163 q 140 115 140 163 q 110 35 140 74 q 42 -3 79 -3 q 0 44 0 -3 q 31 124 0 86 m 336 642 q 407 790 364 704 q 481 929 450 875 l 510 983 q 618 1040 540 1040 q 656 1019 656 1040 q 653 1007 656 1015 q 606 919 642 978 q 510 765 571 860 q 415 615 449 671 l 208 278 q 164 263 194 263 q 147 275 147 263 q 151 289 147 281 q 336 642 272 501 z "},"\"":{"ha":342,"x_min":338,"x_max":669,"o":"m 343 835 q 338 846 338 835 q 353 906 338 863 q 386 983 369 949 l 401 1017 q 482 1050 417 1050 q 521 1032 521 1050 q 447 928 521 1017 q 343 835 374 840 m 492 835 q 486 846 486 835 q 502 906 486 863 q 533 983 518 949 l 550 1017 q 631 1050 564 1050 q 669 1032 669 1050 q 596 928 669 1017 q 492 835 522 840 z "},"#":{"ha":694,"x_min":129,"x_max":857,"o":"m 808 586 l 663 586 l 604 482 l 744 482 q 768 469 768 482 q 752 439 768 456 q 719 419 736 422 l 569 419 l 496 289 q 432 263 479 263 q 417 275 417 263 q 421 288 417 279 l 494 419 l 365 419 l 292 289 q 228 263 275 263 q 213 275 213 263 q 217 288 213 279 l 290 419 l 153 419 q 129 433 129 419 q 147 463 129 444 q 179 482 164 482 l 325 482 l 383 586 l 242 586 q 218 600 218 586 q 235 630 218 611 q 268 649 253 649 l 419 649 l 489 772 q 503 791 496 785 q 518 799 511 797 q 538 800 525 800 q 568 785 568 800 q 564 774 568 781 l 493 649 l 624 649 l 693 772 q 708 791 700 785 q 722 799 715 797 q 742 800 729 800 q 772 785 772 800 q 768 774 772 781 l 697 649 l 833 649 q 857 636 857 649 q 841 606 857 622 q 808 586 825 589 m 458 586 l 400 482 l 529 482 l 588 586 l 458 586 z "},"$":{"ha":621,"x_min":-106,"x_max":947,"o":"m 190 -40 l 172 -40 l 144 -89 q 106 -108 133 -108 q 90 -100 90 -108 l 94 -90 q 125 -35 106 -69 q 75 -22 99 -29 q 42 -8 51 -14 l 31 -4 q 11 1 21 1 q -28 -10 4 1 q -85 -21 -61 -21 q -106 -8 -106 -21 l -103 0 q -19 169 -68 76 q 63 315 31 261 l 94 369 q 147 425 128 425 q 163 408 163 425 l 160 396 q 93 165 93 267 q 153 17 93 57 l 438 528 q 424 572 435 535 q 409 621 413 608 q 399 660 406 633 q 390 708 392 688 q 388 749 388 728 q 492 959 388 876 q 729 1050 597 1042 l 758 1100 q 770 1116 760 1106 q 790 1126 781 1126 q 811 1111 811 1126 q 810 1104 811 1107 l 781 1050 q 810 1047 794 1050 q 838 1044 826 1044 q 881 1053 856 1044 q 931 1064 917 1064 q 947 1050 947 1064 q 903 958 947 1036 q 799 792 860 881 q 782 785 789 785 q 772 801 772 785 q 781 867 772 819 q 790 933 790 914 q 754 1001 790 982 q 703 910 740 975 q 630 780 667 846 q 560 653 593 714 q 582 586 567 632 q 605 513 597 540 q 620 446 613 486 q 628 371 628 406 q 492 79 628 199 q 190 -40 356 -40 m 456 468 l 194 0 q 229 -4 208 -4 q 364 49 304 -4 q 452 172 424 101 q 481 310 481 243 q 456 468 481 378 m 542 715 l 707 1011 q 578 950 625 1010 q 531 814 531 890 q 542 715 531 767 z "},"%":{"ha":838,"x_min":-47,"x_max":1115,"o":"m 1110 1054 l 24 -12 q -35 -35 -1 -35 q -47 -29 -47 -35 l -37 -17 q 1046 1046 974 978 q 1097 1072 1074 1072 q 1115 1064 1115 1072 q 1110 1054 1115 1060 m 732 451 q 638 385 694 451 q 540 231 582 319 q 497 81 497 142 q 538 26 497 26 q 628 95 572 26 q 725 255 683 164 q 767 404 767 346 q 732 451 767 451 m 754 486 q 822 460 799 486 q 846 390 846 435 q 794 219 846 315 q 660 53 743 124 q 499 -18 576 -18 q 408 83 408 -18 q 459 258 408 164 q 592 419 510 353 q 754 486 675 486 m 571 1025 q 477 959 533 1025 q 378 804 421 893 q 336 654 336 715 q 376 600 336 600 q 467 669 411 600 q 564 828 522 738 q 606 978 606 919 q 571 1025 606 1025 m 593 1060 q 661 1034 638 1060 q 685 964 685 1008 q 633 793 685 889 q 499 626 582 697 q 338 556 415 556 q 247 657 247 556 q 298 832 247 738 q 431 993 349 926 q 593 1060 514 1060 z "},"&":{"ha":765,"x_min":39,"x_max":863,"o":"m 849 547 q 863 533 863 544 q 794 383 838 456 q 706 262 750 310 q 623 177 663 214 q 558 124 583 140 l 533 107 q 526 100 529 104 q 524 94 524 96 l 524 92 q 563 -97 528 -32 q 565 -107 565 -106 q 554 -118 565 -118 q 482 -70 522 -118 q 432 38 442 -22 q 425 44 431 44 l 419 43 q 228 -7 315 -7 q 94 40 149 -7 q 39 169 39 88 q 79 329 39 250 q 185 471 119 408 q 324 581 250 533 q 474 661 397 628 q 481 666 478 663 q 483 672 483 669 l 485 674 q 558 853 514 775 q 651 974 603 932 q 741 1038 699 1017 q 818 1058 783 1058 q 851 1011 851 1058 q 776 865 851 938 q 611 749 700 792 l 601 739 q 524 158 529 501 q 529 150 524 150 l 535 153 q 656 281 603 199 q 708 431 708 364 q 640 521 708 501 q 633 533 633 526 q 647 544 633 542 q 768 550 700 550 q 849 547 821 550 m 742 993 q 663 913 707 993 q 619 800 619 832 q 624 793 619 793 q 628 794 626 793 q 642 803 633 797 q 673 829 650 810 q 713 869 696 849 q 744 917 731 889 q 758 974 758 946 q 742 993 758 993 m 464 603 q 456 610 464 610 q 319 513 376 568 q 235 407 261 457 q 193 313 208 357 q 176 242 178 268 l 175 215 q 315 63 178 63 q 362 67 338 63 q 399 75 386 71 l 411 79 q 422 100 422 83 q 415 218 415 149 q 464 603 415 383 z "},"'":{"ha":193,"x_min":338,"x_max":521,"o":"m 343 835 q 338 846 338 835 q 353 906 338 863 q 386 983 369 949 l 401 1017 q 482 1050 417 1050 q 521 1032 521 1050 q 447 928 521 1017 q 343 835 374 840 z "},"(":{"ha":299,"x_min":65,"x_max":756,"o":"m 131 33 l 136 -35 q 125 -53 136 -53 q 81 16 96 -53 q 65 133 65 85 q 101 351 65 233 q 174 538 138 469 l 210 606 q 236 653 219 624 q 308 761 253 683 q 421 901 364 839 q 562 1019 478 963 q 726 1086 646 1075 l 735 1086 q 756 1079 756 1086 q 740 1063 756 1074 q 717 1052 732 1060 q 655 1012 701 1044 q 563 937 608 979 q 457 815 518 894 q 343 640 396 736 q 320 602 335 626 q 269 506 306 578 q 204 363 232 433 q 153 201 176 293 q 131 33 131 110 z "},")":{"ha":376,"x_min":-132,"x_max":560,"o":"m 490 1060 q 490 1066 490 1063 q 489 1071 489 1069 q 499 1088 489 1088 q 544 1019 529 1088 q 560 901 560 951 q 524 690 560 807 q 463 520 489 574 q 417 432 436 467 q 392 390 401 407 q 346 318 383 374 q 277 222 308 263 q 195 126 246 181 q 98 35 144 71 q -5 -27 51 -1 q -114 -53 -61 -53 q -132 -44 -132 -53 q -117 -28 -132 -39 q -93 -17 -108 -25 q -31 23 -78 -10 q 60 98 15 56 q 167 219 106 140 q 281 394 228 299 q 303 433 289 408 q 355 530 318 457 q 419 673 392 603 q 470 835 447 743 q 493 1003 493 926 q 490 1060 493 1042 z "},"*":{"ha":340,"x_min":358,"x_max":699,"o":"m 688 1079 q 597 975 688 1058 q 699 953 699 968 q 564 924 699 929 q 567 865 567 888 q 551 808 567 808 q 507 900 528 808 q 376 819 400 819 q 372 821 374 819 q 460 925 372 844 q 358 947 358 929 q 493 975 358 969 q 490 1031 490 1017 q 507 1090 490 1090 q 550 1001 528 1090 q 683 1081 653 1081 q 688 1079 686 1081 z "},"+":{"ha":613,"x_min":175,"x_max":731,"o":"m 632 774 l 515 565 l 707 565 q 731 553 731 565 q 715 522 731 539 q 682 503 699 506 l 479 503 l 360 289 q 296 263 351 263 q 267 275 267 263 q 271 288 267 279 l 392 503 l 199 503 q 175 517 175 503 q 192 547 175 528 q 225 565 210 565 l 426 565 l 543 772 q 606 800 560 800 q 636 785 636 800 q 632 774 636 781 z "},",":{"ha":256,"x_min":-54,"x_max":151,"o":"m -31 -124 q -46 -129 -39 -129 q -54 -122 -54 -129 q -47 -103 -54 -114 q -32 -78 -46 -101 q -12 -43 -18 -54 q 1 -11 -7 -32 q 11 26 8 10 q 40 112 11 74 q 107 150 69 150 q 151 110 151 150 q 86 -14 151 64 q -31 -124 21 -92 z "},"-":{"ha":597,"x_min":182,"x_max":626,"o":"m 578 282 l 206 282 q 182 296 182 282 q 199 326 182 307 q 232 344 217 344 l 603 344 q 626 332 626 344 q 610 301 626 318 q 578 282 594 285 z "},".":{"ha":240,"x_min":0,"x_max":142,"o":"m 42 -11 q 11 1 22 -11 q 0 35 0 14 q 31 112 0 74 q 100 150 63 150 q 142 103 142 150 q 110 26 142 63 q 42 -11 79 -10 z "},"/":{"ha":288,"x_min":-176,"x_max":986,"o":"m 982 1078 l -93 -22 q -161 -42 -112 -42 q -176 -36 -176 -42 l -169 -24 q 904 1074 835 1004 q 954 1100 931 1100 q 986 1086 986 1100 q 982 1078 986 1082 z "},":":{"ha":279,"x_min":0,"x_max":390,"o":"m 290 436 q 260 449 271 436 q 249 482 249 461 q 280 559 249 521 q 349 597 311 597 q 390 550 390 597 q 359 474 390 510 q 290 436 328 438 m 42 -11 q 11 1 22 -11 q 0 35 0 14 q 31 112 0 74 q 100 150 63 150 q 142 103 142 150 q 110 26 142 63 q 42 -11 79 -10 z "},";":{"ha":300,"x_min":-54,"x_max":401,"o":"m 301 436 q 271 449 282 436 q 260 482 260 461 q 291 559 260 521 q 360 597 322 597 q 401 550 401 597 q 370 474 401 510 q 301 436 339 438 m -31 -124 q -46 -129 -39 -129 q -54 -122 -54 -129 q -47 -103 -54 -114 q -32 -78 -46 -101 q -12 -43 -18 -54 q 1 -11 -7 -32 q 11 26 8 10 q 40 112 11 74 q 107 150 69 150 q 151 110 151 150 q 86 -14 151 64 q -31 -124 21 -92 z "},"<":{"ha":518,"x_min":207,"x_max":732,"o":"m 336 268 q 256 391 304 303 q 207 517 207 479 q 212 538 207 528 q 222 551 217 547 l 226 556 q 417 679 297 607 q 615 792 551 760 q 694 808 653 808 q 732 797 732 808 q 713 775 732 788 q 325 538 367 585 q 317 518 317 529 q 435 278 319 478 q 442 260 442 269 q 410 242 442 242 q 336 268 361 242 z "},"=":{"ha":694,"x_min":178,"x_max":822,"o":"m 685 431 l 201 431 q 178 444 178 431 q 195 474 178 456 q 228 493 213 493 l 710 493 q 733 481 733 493 q 717 450 733 467 q 685 431 701 433 m 774 575 l 290 575 q 267 589 267 575 q 284 619 267 600 q 317 638 301 638 l 799 638 q 822 625 822 638 q 806 594 822 611 q 774 575 790 578 z "},">":{"ha":528,"x_min":75,"x_max":600,"o":"m 471 771 q 550 643 500 738 q 600 521 600 549 q 595 502 600 511 q 586 489 590 493 l 581 485 q 389 360 508 432 q 192 247 290 300 q 108 231 164 231 q 75 243 75 231 q 94 264 75 251 q 482 501 439 456 q 489 524 489 510 q 371 761 489 557 q 364 779 364 769 q 397 797 364 797 q 471 771 446 797 z "},"?":{"ha":546,"x_min":47,"x_max":869,"o":"m 146 161 q 188 114 188 161 q 156 34 188 72 q 86 -4 125 -4 q 47 43 47 -4 q 78 123 47 85 q 146 161 108 161 m 668 1040 q 869 878 869 1040 q 851 797 869 836 q 809 731 833 758 q 742 675 785 704 q 670 631 700 646 q 593 592 640 615 q 488 531 536 564 q 409 472 439 499 q 358 421 379 444 q 328 383 336 397 l 319 371 q 274 301 299 335 q 233 253 249 268 l 219 239 q 200 229 210 229 q 186 265 186 229 q 222 388 186 332 q 291 458 247 426 q 380 511 335 489 q 494 580 425 533 q 625 686 563 626 q 639 699 631 690 q 669 735 647 708 q 709 789 692 761 q 740 856 726 817 q 754 931 754 894 q 752 951 754 939 q 731 983 750 963 q 678 1003 711 1003 q 519 918 586 1003 q 447 731 453 833 q 433 717 446 717 q 422 719 426 717 q 382 815 382 754 q 473 975 382 910 q 668 1040 564 1040 z "},"@":{"ha":1025,"x_min":7,"x_max":1132,"o":"m 206 -247 q 53 -172 99 -247 q 7 13 7 -97 q 91 323 7 165 q 301 596 175 481 q 577 785 426 711 q 858 858 728 858 q 1057 798 982 858 q 1132 621 1132 738 q 1069 356 1132 489 q 920 133 1007 224 q 744 -16 833 42 q 599 -74 656 -74 q 536 1 536 -74 q 553 101 536 43 q 586 194 569 158 l 604 232 q 610 247 610 243 q 608 251 610 251 q 592 236 607 251 q 286 -17 358 -17 q 258 25 258 -17 q 304 201 258 100 q 419 390 350 301 q 578 542 488 479 q 751 604 669 604 q 783 599 769 604 q 803 590 796 594 l 808 586 q 815 590 811 586 q 914 668 876 668 q 929 656 929 668 q 908 596 929 638 q 728 267 761 324 q 644 46 644 117 q 676 8 644 8 q 773 52 713 8 q 894 165 833 96 q 999 337 954 235 q 1043 540 1043 439 q 978 724 1043 658 q 794 790 913 790 q 535 717 661 790 q 322 531 410 643 q 181 283 235 418 q 128 25 128 147 q 166 -106 128 -57 q 282 -156 204 -156 q 444 -89 365 -156 q 458 -86 451 -86 q 468 -93 468 -86 q 464 -106 468 -97 q 409 -172 443 -143 q 344 -215 375 -201 q 279 -236 314 -228 q 229 -246 244 -244 q 206 -247 214 -247 m 789 556 q 790 561 790 558 q 767 571 790 571 q 616 480 704 571 q 468 287 528 389 q 408 144 408 185 q 422 126 408 126 q 465 147 442 126 q 488 167 474 154 q 542 222 501 179 q 621 309 583 264 q 706 422 658 354 q 789 556 754 489 z "},"A":{"ha":628,"x_min":1,"x_max":914,"o":"m 217 668 q 118 485 118 668 l 118 475 q 110 457 118 457 q 78 507 89 457 q 68 592 68 557 q 94 693 68 649 q 174 738 119 738 q 379 613 281 738 q 558 809 463 710 q 706 958 653 908 l 758 1010 q 900 1139 844 1139 q 914 1126 914 1139 q 908 1107 914 1118 q 685 565 786 867 q 557 -22 557 182 q 572 -115 557 -86 q 578 -129 578 -122 q 561 -139 578 -139 q 499 -120 524 -139 q 463 -71 474 -101 q 449 -16 453 -40 q 444 33 444 8 q 460 157 444 75 q 475 276 475 239 q 451 408 475 332 q 386 546 426 483 q 305 424 342 485 q 253 333 268 363 l 239 303 q 140 115 189 200 q 68 -3 92 31 l 44 -35 q 17 -53 29 -53 q 1 -21 1 -53 q 357 586 6 175 q 217 668 289 668 m 693 886 q 407 574 540 753 q 497 371 465 485 q 504 358 501 358 l 511 371 q 595 616 546 489 q 676 811 644 743 l 708 878 q 713 889 713 886 q 708 892 713 892 l 693 886 z "},"B":{"ha":624,"x_min":-92,"x_max":829,"o":"m 257 -37 q 142 0 181 -37 q 103 104 103 38 l 106 135 q 100 146 106 146 l 92 140 q 22 38 58 85 q -33 -28 -14 -8 l -53 -46 q -82 -64 -72 -64 q -92 -47 -92 -64 q -78 7 -92 -25 q -20 130 -57 53 q 127 403 17 207 q 342 750 238 600 q 506 958 447 903 q 538 979 526 979 q 544 968 544 979 q 542 949 544 965 q 443 744 529 893 q 193 289 271 464 q 142 107 142 190 q 167 30 142 60 q 236 0 192 0 q 360 51 300 0 q 461 175 421 103 q 526 322 501 247 q 551 449 551 397 q 438 599 551 572 q 436 610 436 604 q 456 629 436 626 q 646 709 563 629 q 729 893 729 789 q 686 997 729 951 q 526 1042 643 1042 q 322 972 400 1042 q 244 814 244 903 q 254 768 244 789 q 260 750 260 757 q 251 742 260 742 q 239 744 244 742 q 215 756 229 749 q 178 790 201 763 q 156 851 156 818 q 268 1009 156 943 q 540 1075 381 1075 q 578 1074 557 1075 q 649 1061 600 1072 q 734 1031 697 1050 q 800 972 771 1013 q 829 878 829 932 q 802 773 829 821 q 730 692 775 725 q 635 639 685 660 q 533 607 586 618 q 524 599 524 603 q 532 592 524 596 q 544 585 536 589 q 573 563 553 581 q 609 523 593 544 q 638 464 625 501 q 650 385 650 426 q 531 94 650 225 q 257 -37 413 -37 z "},"C":{"ha":608,"x_min":39,"x_max":924,"o":"m 644 333 q 558 210 608 272 q 443 91 507 149 q 303 -3 379 33 q 154 -39 226 -39 q 39 133 39 -39 q 166 590 39 351 q 490 981 293 829 q 524 1003 503 990 q 605 1040 546 1017 q 713 1063 664 1063 q 778 1051 750 1063 q 785 1050 781 1050 q 800 1060 794 1050 q 893 1083 829 1083 l 904 1083 q 924 1064 924 1083 q 878 967 924 1033 q 794 854 833 900 q 725 775 756 808 q 653 721 674 721 q 643 735 643 721 q 722 925 643 783 q 736 947 724 928 q 754 980 749 967 q 760 1004 760 993 q 722 1028 760 1028 q 655 1008 692 1028 q 597 969 618 989 l 575 950 q 309 591 428 814 q 190 186 190 368 q 274 54 190 54 q 299 57 285 54 q 349 76 314 60 q 419 120 385 92 q 498 208 453 149 q 583 346 543 267 q 613 409 594 368 q 641 469 631 450 q 658 489 651 489 q 674 472 668 489 q 679 442 679 454 q 644 333 679 390 z "},"D":{"ha":654,"x_min":-68,"x_max":779,"o":"m 386 1075 q 673 963 567 1075 q 779 657 779 850 q 722 417 779 540 q 571 194 665 294 q 340 31 476 94 q 58 -33 204 -33 q 4 -31 31 -33 q -33 -28 -22 -29 l -46 -25 q -68 -3 -68 -19 l -64 11 q -24 103 -50 44 q 95 332 1 161 q 296 663 189 503 q 454 871 396 813 q 486 892 474 892 q 496 875 496 892 q 494 861 496 864 q 406 657 482 807 q 89 35 153 210 q 88 25 88 31 q 99 10 88 11 q 124 8 107 8 q 376 126 246 8 q 590 422 506 244 q 675 758 675 599 q 608 953 675 875 q 428 1032 542 1032 q 331 1000 369 1032 q 293 907 293 968 q 322 807 293 858 q 325 790 325 799 q 317 779 325 779 q 304 783 313 779 q 233 853 272 800 q 194 963 194 906 q 228 1033 194 1007 q 300 1067 261 1060 q 386 1075 339 1075 z "},"E":{"ha":618,"x_min":-62,"x_max":951,"o":"m 574 575 q 382 571 488 571 l 365 571 q 132 89 169 215 q 126 58 126 72 q 200 17 126 17 q 267 28 231 17 q 355 70 303 40 q 472 165 407 100 q 606 324 538 231 q 631 339 614 339 q 642 328 642 339 q 639 317 642 325 q 469 11 572 146 q 428 -14 461 -8 q 188 -19 314 -19 q -46 -10 43 -19 q -62 10 -62 -8 q -57 32 -62 21 q 242 572 22 210 l 179 574 q 161 585 161 574 q 173 605 161 596 q 197 614 185 614 l 268 614 l 436 883 q 457 951 457 921 q 448 988 457 972 q 429 1008 439 1003 l 419 1014 q 407 1029 407 1021 q 412 1039 407 1035 q 422 1044 417 1043 l 428 1046 q 725 1054 571 1054 q 931 1047 853 1054 q 951 1029 951 1047 q 947 1014 951 1025 q 854 833 901 899 q 839 826 847 826 q 826 844 826 826 q 833 901 833 871 q 719 1015 833 1015 l 714 1015 q 613 976 643 1015 q 424 675 542 889 q 389 615 410 651 l 597 615 q 611 607 611 615 q 599 588 611 599 q 574 575 588 576 z "},"F":{"ha":344,"x_min":-157,"x_max":929,"o":"m 572 575 l 357 575 q 174 204 278 425 q 160 170 169 192 q 122 90 151 149 q 59 -21 92 31 q -22 -128 26 -72 q -121 -215 -71 -185 q -143 -224 -133 -224 q -157 -206 -157 -224 q -153 -178 -157 -194 q -144 -150 -149 -161 l -140 -140 q 240 574 -74 24 l 182 574 q 161 586 161 574 q 172 605 161 596 q 193 614 182 614 l 264 614 l 401 849 q 435 954 435 910 q 426 991 435 976 q 411 1010 418 1006 l 403 1014 q 390 1029 390 1021 q 398 1041 390 1036 q 411 1046 406 1046 q 703 1054 551 1054 q 907 1047 829 1054 q 929 1029 929 1047 q 925 1014 929 1022 q 832 833 876 900 q 815 826 828 826 q 804 843 804 826 q 814 907 814 872 q 703 1015 814 1015 q 596 976 625 1015 q 378 614 522 883 q 488 615 415 614 q 596 615 561 615 q 610 613 607 615 q 611 608 611 611 q 599 588 611 599 q 572 575 588 576 z "},"G":{"ha":608,"x_min":1,"x_max":931,"o":"m 701 488 q 453 -46 460 69 q 440 -65 453 -65 q 403 -28 419 -65 q 386 44 386 8 q 407 153 386 93 q 450 247 428 213 l 471 282 q 475 292 475 288 q 472 294 475 294 l 464 290 q 270 81 358 161 q 138 -21 182 1 q 67 -43 94 -43 q 1 79 1 -43 q 40 312 1 181 q 150 574 79 443 q 308 815 221 704 q 504 994 396 925 q 717 1063 613 1063 q 756 1059 739 1063 q 783 1053 774 1056 q 794 1050 793 1050 q 811 1060 804 1050 q 889 1076 842 1076 q 931 1056 931 1076 q 851 894 931 1019 q 744 769 771 769 q 733 792 733 769 q 743 857 733 814 q 763 933 753 900 q 774 964 774 965 q 776 981 776 975 q 758 1014 776 1003 q 717 1025 739 1025 q 480 863 614 1025 q 253 491 346 701 q 161 144 161 281 q 190 85 161 85 q 308 169 224 85 q 543 457 463 324 q 578 556 578 508 q 568 594 578 581 q 558 613 558 607 q 578 628 558 626 q 671 632 619 632 q 769 625 729 632 q 781 614 781 624 q 771 594 781 606 q 701 488 740 554 z "},"H":{"ha":721,"x_min":1,"x_max":1188,"o":"m 1174 1039 q 935 728 1074 949 q 717 350 797 507 q 590 90 638 193 q 492 -56 525 -56 q 469 6 469 -56 q 488 113 469 50 q 525 215 506 175 l 543 256 q 590 465 590 354 q 515 722 590 617 q 221 181 381 439 q 186 126 206 156 q 133 52 167 97 q 68 -22 100 7 q 14 -51 36 -51 q 1 -36 1 -51 l 3 -24 q 178 326 8 29 l 442 793 q 324 826 389 826 q 223 788 260 826 q 186 683 186 749 q 193 631 186 656 q 197 611 197 618 q 188 599 197 599 q 133 658 164 599 q 103 760 103 718 q 144 851 103 818 q 253 883 185 883 q 460 824 369 883 l 597 1067 q 619 1081 611 1081 q 633 1056 633 1081 q 532 760 633 982 q 636 433 636 636 q 643 419 639 419 q 651 431 647 419 q 794 703 735 582 q 972 967 875 865 q 1167 1069 1068 1069 q 1188 1061 1188 1069 q 1174 1039 1188 1057 z "},"I":{"ha":315,"x_min":-110,"x_max":740,"o":"m 725 1028 q 601 867 674 988 q 440 574 528 747 q 349 394 351 400 q 314 331 339 378 q 274 256 289 283 q 231 183 260 229 q 181 107 203 136 q 126 42 158 78 q 65 -13 94 7 q -3 -47 35 -33 q -78 -61 -40 -61 q -110 -49 -110 -61 q -106 -40 -110 -44 q -97 -33 -101 -36 l -93 -32 q 54 129 -33 6 q 200 358 142 253 l 257 463 q 383 687 321 585 q 487 846 444 789 q 562 942 529 903 q 611 996 594 982 l 626 1010 q 631 1018 631 1014 q 589 1031 631 1031 q 503 1008 544 1031 q 433 954 461 986 q 382 890 404 922 q 350 835 360 857 l 339 813 q 324 790 333 790 q 300 851 300 790 q 349 978 300 926 q 467 1049 399 1029 q 617 1069 536 1069 q 724 1061 665 1069 q 740 1049 740 1058 q 725 1028 740 1039 z "},"J":{"ha":415,"x_min":-153,"x_max":828,"o":"m 806 1028 q 647 833 753 1001 q 461 511 540 665 l 381 356 q 104 -125 186 -28 q -121 -268 -19 -268 q -153 -257 -153 -268 q -147 -247 -153 -253 q -136 -236 -142 -240 l -132 -233 q 30 -31 -71 -187 q 200 258 131 125 l 269 390 q 427 661 351 542 q 551 843 503 781 q 637 947 600 906 q 690 999 674 988 l 707 1010 q 711 1018 711 1014 q 667 1032 711 1032 q 584 1009 625 1032 q 515 954 543 986 q 464 890 486 922 q 431 836 442 858 l 419 813 q 403 790 413 790 q 379 851 379 790 q 471 1013 379 957 q 697 1069 563 1069 q 828 1046 828 1069 q 806 1028 828 1038 z "},"K":{"ha":642,"x_min":-79,"x_max":1042,"o":"m 921 967 q 750 869 858 967 q 706 819 713 839 q 618 451 661 703 q 575 78 575 199 q 578 9 575 39 q 583 -31 581 -21 l 586 -42 q 589 -57 589 -56 q 575 -72 589 -72 q 538 -55 560 -72 q 497 -7 515 -37 q 463 178 463 54 q 553 643 463 368 q 557 665 557 660 q 551 675 557 675 l 533 664 q 311 424 432 582 q 228 304 268 368 q 169 204 188 240 l 151 168 q 50 17 118 96 q -64 -62 -18 -62 q -79 -47 -79 -62 l -75 -29 q 54 237 -60 14 q 236 578 168 460 q 364 790 301 690 q 457 933 426 890 l 488 978 q 506 1002 494 988 q 551 1042 517 1017 q 619 1068 586 1067 q 635 1053 635 1068 q 628 1031 635 1043 q 374 588 450 746 q 372 574 372 579 q 376 565 372 565 q 393 576 382 565 l 535 719 q 1003 1075 897 1074 q 1042 1029 1042 1075 q 1020 955 1042 993 q 979 917 999 917 q 969 928 971 917 q 966 938 968 932 q 951 956 964 944 q 921 967 939 967 z "},"L":{"ha":576,"x_min":-44,"x_max":621,"o":"m 432 -3 q 397 -19 418 -17 q 139 -31 313 -31 l -24 -28 q -44 -8 -44 -26 l -42 6 q 15 135 -22 53 q 169 437 51 217 q 411 839 288 657 q 576 1053 538 1022 q 610 1068 594 1068 q 621 1056 621 1068 q 583 957 621 1033 q 518 833 546 881 q 115 42 194 250 q 114 33 114 38 q 163 10 114 10 q 338 71 257 10 q 551 289 457 167 q 574 300 563 300 q 585 286 585 300 q 569 238 585 272 q 432 -3 479 42 z "},"M":{"ha":832,"x_min":-97,"x_max":1213,"o":"m 1200 1031 q 1039 767 1128 926 q 897 499 950 607 l 844 390 q 701 -36 701 93 q 702 -47 701 -39 q 703 -61 703 -56 q 690 -83 703 -83 q 639 -42 667 -83 q 611 67 611 -1 q 641 219 611 129 q 729 426 671 310 q 827 613 788 542 q 932 797 867 683 q 936 810 936 806 q 929 817 933 817 q 913 810 921 817 q 697 583 831 743 q 472 297 564 424 l 379 171 q 343 138 357 138 q 336 140 339 138 q 332 148 333 143 q 330 157 331 153 q 329 164 329 161 l 329 167 q 358 407 339 253 q 389 667 376 561 q 401 775 401 772 q 396 789 401 789 q 388 785 393 789 q 381 776 383 781 l 378 772 q 250 542 318 683 q 140 293 182 401 q 78 151 110 215 q 22 51 46 86 q -23 -9 -3 15 q -54 -42 -43 -33 l -65 -50 q -89 -62 -81 -62 q -97 -49 -97 -62 l -96 -36 q 26 244 -82 38 q 235 622 133 451 l 336 792 l 413 924 q 500 1086 469 1086 q 521 1015 521 1086 q 478 425 478 499 q 486 404 478 404 q 506 419 494 404 q 556 483 524 443 q 678 628 588 524 q 848 815 768 732 q 1022 975 928 899 q 1178 1068 1117 1051 q 1196 1071 1192 1071 q 1213 1058 1213 1071 q 1200 1031 1213 1047 z "},"N":{"ha":618,"x_min":-108,"x_max":1113,"o":"m 931 843 q 671 443 792 660 q 499 101 550 226 l 447 -24 q 408 -71 425 -71 q 394 -61 400 -71 q 385 -42 388 -51 l 382 -32 q 364 204 364 81 q 378 491 364 303 q 392 765 392 679 q 386 779 392 779 q 378 775 383 779 q 371 767 374 771 l 368 763 q 244 541 314 685 q 133 293 174 397 q 70 150 103 214 q 13 50 38 86 q -33 -10 -12 14 q -65 -43 -54 -35 l -76 -51 q -100 -64 -93 -64 q -108 -50 -108 -64 q 293 739 -108 81 q 353 839 326 793 q 390 903 381 885 l 400 922 q 489 1085 458 1085 q 510 1015 510 1085 q 519 453 519 681 q 518 318 519 354 q 531 296 521 296 q 558 328 542 296 q 746 694 707 611 q 1093 1093 933 1093 q 1113 1082 1113 1093 q 1099 1060 1113 1074 q 931 843 1063 1018 z "},"O":{"ha":661,"x_min":0,"x_max":893,"o":"m 721 925 q 640 883 692 925 q 557 806 589 842 q 519 763 525 771 q 493 742 504 742 q 483 757 483 742 q 486 772 483 761 q 620 965 518 868 q 813 1061 722 1061 q 893 938 893 1061 q 863 765 893 867 q 811 615 832 663 q 776 539 790 567 q 693 392 739 465 q 581 239 647 319 q 445 98 515 158 q 289 -2 375 38 q 119 -42 203 -42 q 0 126 0 -42 q 54 408 0 264 q 186 658 108 551 q 347 839 264 764 q 492 933 429 914 q 510 936 499 936 q 521 929 521 936 q 510 908 521 921 q 415 797 469 869 q 295 619 360 724 q 186 386 231 515 q 142 143 142 257 q 221 24 142 24 q 589 371 389 24 q 753 882 753 653 q 721 925 753 925 z "},"P":{"ha":490,"x_min":-46,"x_max":865,"o":"m 339 449 q 222 214 329 431 q 80 -5 151 69 q -29 -79 8 -79 q -46 -64 -46 -79 l -42 -47 q 53 149 -26 -6 q 203 422 133 303 q 331 642 268 536 q 424 799 393 749 l 454 849 q 461 860 457 853 q 480 885 465 867 q 510 916 494 903 q 546 940 525 929 q 586 951 567 951 q 604 942 604 951 q 588 906 604 929 q 365 501 483 728 q 364 496 364 499 q 369 492 364 492 q 531 525 457 492 q 652 612 606 558 q 724 726 699 665 q 750 847 750 788 q 686 975 750 932 q 536 1018 622 1018 q 409 999 471 1018 q 301 932 347 979 q 254 819 254 885 q 275 744 254 781 q 282 725 282 731 q 271 717 282 717 q 260 719 268 717 q 249 725 256 721 q 224 742 242 729 q 192 768 206 754 q 167 805 178 782 q 156 851 156 828 q 262 996 156 938 q 503 1054 368 1054 q 627 1043 568 1054 q 742 1008 686 1032 q 832 938 799 983 q 865 829 865 892 q 817 662 865 736 q 692 544 769 588 q 528 477 615 500 q 351 454 440 454 q 347 456 350 456 q 339 449 342 456 z "},"Q":{"ha":661,"x_min":0,"x_max":893,"o":"m 721 925 q 640 883 692 925 q 557 806 589 842 q 519 763 525 771 q 493 742 504 742 q 483 757 483 742 q 486 772 483 761 q 620 965 518 868 q 813 1061 722 1061 q 893 938 893 1061 q 863 765 893 867 q 811 615 832 663 q 776 539 790 567 q 582 239 700 386 q 328 17 464 92 q 407 -72 350 -72 q 468 -53 432 -72 q 479 -49 474 -49 q 488 -57 488 -49 q 485 -65 488 -60 q 465 -93 478 -76 q 414 -137 451 -110 q 343 -165 376 -165 q 250 -18 260 -165 q 119 -42 186 -42 q 0 126 0 -42 q 54 408 0 264 q 186 658 108 551 q 347 839 264 764 q 492 933 429 914 q 510 936 499 936 q 521 929 521 936 q 510 908 521 921 q 415 797 469 869 q 295 619 360 724 q 186 386 231 515 q 142 143 142 257 q 221 24 142 24 q 250 26 240 24 q 269 208 250 106 q 290 300 278 256 q 311 364 303 344 l 318 385 q 336 401 325 401 q 340 394 340 401 q 339 375 340 385 q 317 138 317 254 q 321 53 317 92 q 589 371 447 126 q 753 882 753 653 q 721 925 753 925 z "},"R":{"ha":638,"x_min":-90,"x_max":881,"o":"m 493 -17 q 424 493 424 96 l 425 578 q 429 590 425 586 q 438 594 433 594 l 442 596 q 656 690 557 608 q 756 876 756 771 q 734 949 756 918 q 677 997 713 981 q 605 1020 642 1013 q 532 1028 568 1028 q 406 1007 468 1028 q 296 939 343 986 q 249 828 249 892 q 271 750 249 789 q 276 732 276 736 q 268 724 276 724 q 236 736 256 724 q 150 860 150 788 q 266 1008 150 954 q 539 1063 382 1063 q 642 1056 592 1063 q 751 1032 693 1049 q 845 978 810 1015 q 881 889 881 942 q 819 750 881 818 q 682 640 757 682 q 540 582 607 599 q 531 567 531 575 q 533 453 531 517 q 545 277 536 390 q 580 73 554 164 q 644 -54 606 -18 q 651 -67 651 -61 q 617 -78 651 -78 q 546 -62 576 -78 q 505 -35 515 -47 q 493 -17 494 -22 m 178 221 q 114 100 149 154 q 50 15 79 46 q -4 -36 21 -15 q -44 -64 -29 -57 l -58 -71 q -75 -75 -67 -75 q -90 -57 -90 -75 l -86 -40 q 9 156 -72 -1 q 163 442 90 314 q 291 665 229 561 q 381 811 353 768 l 410 856 q 481 928 444 903 q 539 953 517 953 q 554 942 554 953 q 543 913 554 933 q 466 774 533 896 q 306 478 399 653 q 178 221 214 304 z "},"S":{"ha":621,"x_min":-51,"x_max":872,"o":"m -47 96 q 16 225 -25 151 q 88 344 57 299 l 118 389 q 157 417 138 417 q 172 401 172 417 l 168 388 q 118 169 118 261 q 151 49 118 96 q 253 3 183 3 q 421 94 357 3 q 485 290 485 185 q 423 548 485 381 q 361 775 361 715 q 472 983 361 904 q 714 1061 582 1061 q 760 1058 738 1061 q 811 1049 783 1056 q 856 1029 839 1043 q 872 994 872 1015 q 833 900 872 967 q 768 799 794 833 q 751 792 758 792 q 742 808 742 792 q 750 914 742 847 q 667 1022 750 1022 q 547 974 596 1022 q 497 856 497 925 q 562 600 497 764 q 626 347 626 436 q 495 73 626 181 q 200 -35 364 -35 q 133 -29 172 -35 q 51 -12 94 -24 q -22 23 8 0 q -51 75 -51 46 q -47 96 -51 86 z "},"T":{"ha":557,"x_min":0,"x_max":986,"o":"m 596 454 q 617 433 607 454 q 628 392 628 411 q 623 358 628 375 q 614 333 618 342 l 608 324 q 406 81 540 192 q 138 -31 272 -31 q 33 20 67 -31 q 0 150 0 71 q 80 434 0 289 q 282 699 160 579 q 183 739 229 704 q 138 824 138 774 q 263 975 138 900 q 572 1050 388 1050 q 720 1035 631 1050 q 858 1021 810 1021 q 969 1046 936 1021 q 979 1047 975 1047 q 986 1042 986 1047 q 981 1026 986 1036 q 906 954 953 982 q 801 926 858 926 q 622 958 740 926 q 438 990 503 990 q 297 949 364 990 q 231 835 231 907 q 247 775 231 804 q 281 732 264 746 l 297 718 l 300 715 q 592 899 463 869 q 608 900 599 900 q 622 892 622 900 q 601 872 622 881 q 490 793 563 857 q 338 635 418 729 q 198 412 257 542 q 139 161 139 282 q 224 38 139 38 q 344 77 285 38 q 448 181 403 117 q 526 310 493 244 q 582 442 560 375 q 596 454 586 454 z "},"U":{"ha":657,"x_min":0,"x_max":1024,"o":"m 488 -133 q 475 -149 488 -149 q 458 -143 469 -149 q 404 17 404 -85 q 438 197 404 97 q 506 357 472 297 l 539 417 q 542 426 542 421 q 539 429 542 429 l 525 424 q 296 157 403 265 q 131 10 189 49 q 46 -28 74 -28 q 0 46 0 -28 q 61 292 0 142 q 213 594 122 443 q 357 825 304 744 q 443 953 410 906 q 514 1019 475 996 q 581 1042 553 1042 q 601 1029 601 1042 q 593 1008 601 1022 q 513 875 578 975 q 440 752 483 828 q 308 497 396 676 q 189 207 219 318 q 186 182 186 194 q 206 151 186 151 q 254 176 221 151 q 270 190 260 181 q 320 239 281 199 q 406 332 360 279 q 528 483 451 385 q 688 700 604 582 q 903 1007 838 947 q 1000 1042 940 1042 q 1024 1029 1024 1042 q 1015 1004 1024 1018 q 942 888 978 938 q 867 769 913 843 q 719 508 821 694 q 561 186 617 322 q 483 -92 483 10 q 485 -116 483 -101 q 488 -133 488 -131 z "},"V":{"ha":429,"x_min":1,"x_max":940,"o":"m 940 1040 q 906 949 940 1008 q 800 800 871 889 q 668 638 729 711 q 509 451 607 565 q 365 283 411 338 q 194 95 275 176 q 78 -14 114 14 l 43 -42 q 18 -53 31 -53 q 1 -26 1 -53 q 68 336 1 76 q 168 659 110 499 q 264 897 226 819 l 301 976 q 358 1043 322 1018 q 418 1068 393 1068 q 438 1054 438 1068 q 435 1043 438 1051 q 377 894 413 988 q 271 573 342 801 q 175 186 200 344 q 189 164 176 164 q 208 176 196 164 q 476 485 324 286 q 765 993 738 826 q 812 1051 765 1032 q 900 1071 858 1071 q 940 1040 940 1071 z "},"W":{"ha":822,"x_min":1,"x_max":1329,"o":"m 526 485 q 528 493 528 488 q 524 497 528 497 l 511 492 q 369 315 381 329 q 199 120 281 208 q 79 -3 117 32 l 42 -39 q 15 -50 25 -50 q 1 -24 1 -50 q 72 329 11 94 q 176 656 117 494 q 275 897 236 818 l 313 978 q 363 1041 333 1018 q 411 1067 393 1064 l 431 1069 q 446 1057 446 1069 q 440 1036 446 1050 q 275 583 378 900 q 172 186 172 265 q 182 167 172 167 q 201 179 189 167 q 524 574 365 361 q 565 639 544 601 q 597 700 586 676 l 608 724 q 663 857 635 793 q 704 950 690 921 l 718 978 q 768 1041 739 1018 q 817 1067 797 1064 l 836 1069 q 850 1057 850 1069 l 847 1044 q 788 896 824 989 q 678 575 751 803 q 578 189 606 347 q 590 168 579 168 q 610 181 599 168 q 869 488 700 271 q 1068 783 976 626 q 1160 996 1160 940 q 1203 1049 1160 1028 q 1294 1069 1244 1069 q 1329 1044 1329 1069 q 1295 953 1329 1013 q 1190 804 1261 894 q 1060 643 1119 714 q 901 455 1001 572 q 760 288 801 338 q 592 99 671 181 q 481 -11 514 18 l 446 -39 q 421 -50 431 -50 q 406 -24 406 -50 q 526 485 421 151 z "},"X":{"ha":643,"x_min":-96,"x_max":1118,"o":"m 118 303 q 414 571 229 396 q 463 978 436 871 q 503 1051 475 1019 q 551 1082 532 1082 q 567 1060 567 1082 q 565 1039 567 1051 q 536 688 547 874 q 784 918 681 828 q 919 1028 888 1008 l 950 1049 q 1076 1082 1018 1082 q 1118 1068 1118 1082 q 1097 1042 1118 1058 q 1051 1011 1075 1025 q 998 982 1026 997 q 967 965 969 967 q 533 631 749 836 q 528 406 528 481 q 593 50 528 79 q 604 33 604 46 q 553 -18 604 7 q 475 -43 501 -43 q 438 -19 443 -43 q 406 321 406 104 q 410 506 406 414 q 278 357 340 432 q 189 244 217 282 l 163 206 q -85 -67 -43 -67 q -96 -47 -96 -67 q -65 69 -96 6 q 6 182 -35 132 q 78 264 47 232 q 118 303 108 296 z "},"Y":{"ha":304,"x_min":-62,"x_max":985,"o":"m 297 364 q 122 49 171 142 q -39 -44 74 -44 q -62 -31 -62 -44 l -57 -15 q 48 157 -7 61 q 133 311 103 253 l 163 369 q 238 653 207 456 q 268 976 268 851 l 264 1022 q 261 1035 261 1028 q 275 1060 261 1050 q 371 1085 313 1085 q 393 1047 393 1085 q 324 508 383 818 q 332 497 325 497 q 342 503 336 497 q 735 989 596 853 q 967 1100 850 1100 q 985 1089 985 1099 q 974 1073 985 1085 q 940 1042 963 1061 q 896 1007 917 1024 q 842 965 875 990 q 792 925 810 939 q 759 899 779 915 q 678 824 739 882 q 559 706 617 767 q 428 551 501 644 q 297 364 354 457 z "},"Z":{"ha":644,"x_min":-89,"x_max":978,"o":"m 939 1015 q 736 785 856 911 q 523 567 617 660 q 318 342 429 475 q 124 75 207 210 q 114 50 114 60 q 192 25 114 25 q 285 38 239 25 q 364 70 332 51 q 421 108 396 89 q 458 139 446 126 l 469 153 q 531 215 494 181 q 589 268 567 249 l 613 288 q 640 300 633 300 q 651 286 651 300 q 629 226 651 269 q 582 142 607 182 q 530 61 557 103 q 501 18 503 19 q 451 -8 485 -8 q 204 -17 365 -17 l -62 -12 q -89 8 -89 -10 l -86 19 q 154 335 18 178 q 397 594 290 492 q 624 810 504 696 q 800 989 743 925 q 807 1003 807 996 q 747 1015 807 1015 q 637 999 692 1015 q 544 958 582 982 q 475 909 506 933 q 431 868 444 885 l 415 851 q 392 842 400 842 q 381 854 381 842 q 439 964 381 879 q 526 1053 497 1049 q 742 1060 575 1060 q 810 1058 764 1060 q 868 1057 857 1057 q 897 1064 885 1057 l 903 1067 q 969 1100 953 1099 q 978 1092 978 1100 q 939 1015 978 1063 z "},"[":{"ha":325,"x_min":-40,"x_max":701,"o":"m 69 -107 q 58 -118 69 -118 q 44 -112 51 -118 q -37 10 -19 -58 q -40 33 -40 26 q -37 59 -40 46 q -32 79 -35 72 l -29 86 q 501 1036 315 733 q 518 1055 507 1043 q 578 1090 529 1067 q 690 1122 626 1114 q 701 1114 701 1122 q 697 1106 701 1110 q 689 1100 693 1103 l 685 1099 q 624 1056 651 1082 q 585 1013 596 1031 l 574 994 q 363 628 490 860 q 150 233 236 397 l 64 68 q 43 -12 43 35 q 64 -92 43 -54 q 69 -107 69 -100 z "},"\\":{"ha":493,"x_min":61,"x_max":364,"o":"m 61 1078 q 89 1097 61 1097 q 117 1071 110 1097 q 236 549 129 1026 q 364 -29 343 72 q 344 -46 364 -46 q 306 -25 310 -46 q 61 1078 79 982 z "},"]":{"ha":260,"x_min":-183,"x_max":557,"o":"m 447 1115 q 458 1124 447 1124 q 474 1117 464 1124 q 554 994 535 1064 q 557 971 557 978 q 554 945 557 958 q 549 925 551 932 l 546 918 q 15 -32 203 271 q -1 -51 10 -39 q -60 -86 -12 -62 q -168 -118 -107 -110 q -183 -110 -183 -118 q -179 -101 -183 -106 q -171 -94 -175 -97 l -167 -93 q -106 -52 -133 -78 q -68 -8 -79 -26 l -57 10 q 154 376 26 144 q 368 772 282 607 l 454 936 q 474 1015 474 968 q 453 1096 474 1060 q 447 1115 447 1104 z "},"^":{"ha":514,"x_min":153,"x_max":458,"o":"m 364 335 q 360 340 363 340 l 351 335 q 246 259 306 289 q 163 229 186 229 q 153 235 153 229 l 158 247 q 200 288 172 258 q 249 343 228 318 l 269 368 q 296 381 278 381 l 447 381 q 458 371 458 381 q 456 349 458 369 q 450 295 453 328 q 447 235 447 263 q 439 221 447 221 q 394 262 418 221 q 364 335 371 303 z "},"_":{"ha":864,"x_min":-81,"x_max":719,"o":"m 631 -108 l -39 -108 q -81 -94 -81 -108 q -49 -65 -81 -83 q 10 -46 -18 -46 l 676 -46 q 719 -58 719 -46 q 690 -89 719 -72 q 631 -108 661 -106 z "},"`":{"ha":514,"x_min":482,"x_max":590,"o":"m 590 694 q 583 686 590 686 q 565 694 578 686 q 519 746 540 711 q 490 806 499 781 l 482 832 q 493 846 482 846 l 568 846 q 583 831 583 846 l 583 800 q 590 694 583 742 z "},"a":{"ha":514,"x_min":-21,"x_max":656,"o":"m 404 88 q 246 -18 289 -18 q 226 4 226 -18 q 251 89 226 32 q 300 189 275 146 l 325 232 q 331 244 331 242 q 328 247 331 247 q 307 232 322 247 q 212 134 265 186 q 125 53 158 82 l 93 25 q 10 -17 39 -17 q -21 31 -21 -17 q -8 103 -21 54 q 13 168 6 151 q 92 319 44 246 q 206 460 140 393 q 358 569 271 528 q 538 611 444 611 q 615 588 615 611 q 581 574 615 574 q 341 465 453 574 q 160 214 229 356 q 140 149 140 175 q 150 133 140 133 q 193 157 167 133 q 238 197 210 172 q 331 293 267 222 q 432 425 394 364 q 449 451 438 436 q 494 492 461 467 q 561 518 528 518 q 579 508 579 518 q 575 499 579 506 q 544 443 569 488 q 496 359 518 399 q 449 273 474 319 q 409 193 424 226 q 394 149 394 160 q 401 140 394 140 q 503 221 422 140 q 646 378 564 285 q 653 382 650 382 q 656 376 656 382 q 635 325 656 350 q 404 88 499 174 z "},"b":{"ha":458,"x_min":-49,"x_max":688,"o":"m 46 -25 q 1 -21 22 -25 q -29 -14 -19 -17 l -39 -10 q -49 1 -49 -7 l -46 10 q 265 622 68 282 q 314 707 268 628 q 372 808 360 786 q 426 898 385 829 q 492 1003 468 967 q 551 1094 515 1040 q 621 1192 588 1149 q 681 1246 664 1246 q 688 1235 688 1246 q 640 1117 688 1210 q 479 811 571 969 q 251 411 297 494 l 251 406 q 254 399 251 399 q 263 406 256 399 q 310 464 281 429 q 410 557 340 499 q 522 615 479 615 q 557 561 557 615 q 500 363 557 476 q 421 231 467 296 q 317 108 375 167 q 188 12 258 49 q 46 -25 117 -25 m 414 433 q 431 493 431 474 q 417 511 431 511 q 384 494 406 511 q 347 461 363 478 l 331 444 q 183 244 249 349 q 94 82 118 139 l 69 25 q 67 17 67 21 q 88 10 67 10 q 240 124 149 10 q 414 433 332 239 z "},"c":{"ha":400,"x_min":1,"x_max":542,"o":"m 339 135 q 198 23 276 75 q 65 -29 119 -29 q 1 69 1 -29 q 75 301 1 174 q 262 518 149 428 q 476 608 375 608 q 531 568 531 608 q 440 411 531 499 q 404 382 432 403 q 365 361 376 361 q 358 368 358 361 l 363 381 q 418 531 418 479 q 400 558 418 558 q 291 474 357 558 q 176 283 225 390 q 128 113 128 175 q 164 63 128 63 q 321 153 226 63 q 532 378 394 221 q 539 382 536 382 q 542 376 542 382 q 521 325 542 350 q 339 135 418 211 z "},"d":{"ha":515,"x_min":-21,"x_max":990,"o":"m 186 149 q 209 169 194 156 q 265 224 224 182 q 345 312 307 267 q 430 424 383 357 q 510 556 476 490 q 511 561 511 558 l 510 565 q 488 571 500 571 q 340 482 428 571 q 190 291 251 393 q 128 144 128 189 q 143 125 128 125 q 186 149 160 125 m 493 210 q 647 378 551 268 q 654 382 651 382 q 657 376 657 382 q 636 325 657 350 q 454 135 533 211 q 239 -18 290 -18 q 219 3 219 -18 q 246 86 219 29 q 300 188 272 143 l 326 232 q 332 244 332 239 q 329 247 332 247 q 314 238 324 247 q 215 135 271 188 q 125 53 160 82 l 92 25 q 8 -18 36 -18 l 3 -17 q -21 25 -21 -15 q 53 266 -21 131 q 246 501 128 401 q 474 601 364 601 q 494 599 485 601 q 509 596 504 597 q 518 592 514 594 l 522 590 q 529 594 525 590 q 924 1235 786 1058 q 983 1290 965 1290 q 990 1279 990 1290 q 946 1160 990 1250 q 646 617 732 768 q 458 286 492 342 q 390 144 390 169 q 399 135 390 135 q 415 140 406 135 q 435 154 424 144 q 455 172 446 164 q 476 193 464 181 q 493 210 489 206 z "},"e":{"ha":399,"x_min":1,"x_max":540,"o":"m 382 471 q 399 532 399 506 q 385 554 399 554 q 366 549 376 554 q 350 539 356 544 l 343 533 q 235 397 300 496 q 171 269 171 297 q 174 264 171 264 q 210 278 182 264 q 292 343 239 292 q 382 471 346 394 m 319 153 q 531 378 393 221 q 538 382 535 382 q 540 376 540 382 q 519 325 540 350 q 338 135 417 211 q 199 23 279 76 q 65 -31 118 -31 q 1 58 1 -31 q 110 367 1 206 q 363 585 219 528 q 471 610 422 610 q 525 567 525 610 q 411 382 525 486 q 156 224 297 278 q 146 214 150 222 q 125 113 125 157 q 163 63 125 63 q 319 153 222 63 z "},"f":{"ha":326,"x_min":-237,"x_max":854,"o":"m 200 569 q 192 579 192 574 q 207 588 192 588 l 249 588 q 485 929 393 821 q 675 1095 581 1040 q 821 1150 769 1150 q 854 1121 854 1150 q 788 991 854 1057 q 676 906 722 925 q 665 903 668 903 q 660 910 660 903 q 664 921 660 914 q 744 1078 744 1039 q 736 1088 744 1088 q 681 1057 719 1088 q 350 588 586 986 l 457 588 q 476 582 476 588 q 466 567 476 575 q 450 558 456 558 l 351 558 q 332 549 332 558 q 334 525 332 544 q 336 494 336 506 q 258 184 336 365 q 54 -164 179 3 q -79 -322 -18 -260 q -172 -405 -140 -385 q -218 -425 -203 -425 q -237 -399 -237 -425 q 28 197 -237 -271 q 54 247 28 199 q 131 387 81 296 q 233 561 182 478 l 200 569 m 299 456 q 294 492 299 475 q -11 -68 75 114 q -90 -260 -90 -232 q -86 -265 -90 -265 q 10 -175 -67 -265 q 194 124 90 -81 q 299 456 299 328 z "},"g":{"ha":514,"x_min":-249,"x_max":665,"o":"m 326 232 q 332 247 332 243 l 318 238 q 219 135 275 188 q 128 53 163 82 l 93 25 q 7 -17 36 -17 q -21 24 -21 -17 q 53 260 -21 124 q 244 499 126 396 q 467 601 361 601 q 502 597 488 601 q 523 588 517 592 q 531 583 529 583 q 538 588 533 583 q 559 615 546 599 q 604 660 572 632 q 656 689 636 689 q 665 675 665 689 q 646 617 665 656 q 465 286 497 343 q 415 197 454 265 q 358 99 375 128 q 503 221 446 169 q 646 378 564 285 q 653 382 650 382 q 656 376 656 382 q 635 325 656 350 q 529 211 574 258 q 321 33 471 150 l 285 -33 q -85 -675 17 -526 q -110 -712 -94 -690 q -160 -770 -125 -733 q -215 -807 -194 -807 q -249 -711 -249 -807 q -147 -403 -249 -569 q 186 -40 -40 -226 l 326 232 m 511 556 q 513 561 513 557 q 490 571 513 571 q 347 485 435 571 q 196 296 260 399 q 132 144 132 193 q 149 125 132 125 q 188 144 164 125 q 244 195 208 163 q 365 335 279 228 q 511 556 451 442 m -112 -400 q -139 -444 -124 -417 q -181 -537 -154 -471 q -207 -647 -207 -603 q -199 -671 -207 -671 q -178 -658 -192 -671 q -154 -631 -164 -644 l -144 -617 q 150 -107 -28 -436 q -112 -400 -25 -258 z "},"h":{"ha":522,"x_min":-67,"x_max":719,"o":"m 500 210 q 654 378 558 268 q 661 382 658 382 q 664 376 664 382 q 643 325 664 350 q 461 135 540 211 q 242 -19 294 -19 q 221 7 221 -19 q 278 159 221 57 q 391 349 335 261 q 447 453 447 438 q 439 461 447 461 q 313 358 406 461 q 156 174 219 256 q 33 32 85 85 q -36 -28 -19 -21 l -54 -36 q -67 -22 -67 -36 q -42 57 -67 0 q 8 160 -17 114 l 33 206 l 250 594 q 653 1236 506 1046 q 711 1292 694 1292 q 719 1281 719 1292 q 675 1161 719 1251 q 372 617 457 768 q 279 453 321 525 q 220 353 238 382 q 190 302 203 324 q 171 265 178 281 q 169 257 169 261 q 172 250 169 250 q 183 258 175 250 q 592 604 494 604 q 611 585 611 604 q 606 560 611 579 q 574 485 600 542 q 504 358 547 428 q 438 247 478 319 q 397 153 397 175 q 410 140 397 140 q 422 144 414 140 q 439 156 429 147 q 456 171 449 164 q 478 191 464 178 q 500 210 493 204 z "},"i":{"ha":253,"x_min":-40,"x_max":476,"o":"m 192 135 q -17 -18 29 -18 q -40 14 -40 -18 q -15 107 -40 46 q 35 214 10 168 l 60 258 q 219 524 165 443 q 280 583 243 558 q 349 607 317 607 q 360 597 360 607 q 350 571 360 590 q 268 425 333 540 q 190 286 203 310 q 133 153 133 186 q 142 140 133 140 q 231 210 156 140 q 385 378 289 268 q 392 382 389 382 q 394 376 394 382 q 374 325 394 350 q 192 135 271 211 m 376 686 q 342 728 342 686 q 371 806 342 767 q 435 846 400 846 q 476 799 476 846 q 444 723 476 760 q 376 686 413 686 z "},"j":{"ha":233,"x_min":-528,"x_max":469,"o":"m 186 286 q 81 100 161 239 q 224 221 165 168 q 367 378 285 285 q 374 382 371 382 q 376 376 376 382 q 356 325 376 350 q 250 211 294 258 q 43 33 194 153 q 6 -33 13 -19 q -364 -675 -262 -526 q -389 -712 -374 -690 q -439 -770 -404 -733 q -494 -807 -474 -807 q -528 -711 -528 -807 q -426 -403 -528 -569 q -89 -37 -322 -231 l 50 232 q 219 524 174 461 q 288 584 249 561 q 349 607 326 607 q 361 600 361 607 q 358 592 361 597 q 186 286 203 318 m -392 -400 q -418 -444 -403 -417 q -460 -537 -433 -471 q -486 -647 -486 -603 q -478 -671 -486 -671 q -457 -658 -471 -671 q -433 -631 -443 -644 l -424 -617 q -126 -104 -299 -422 q -392 -400 -304 -260 m 369 686 q 335 728 335 686 q 364 806 335 767 q 428 846 393 846 q 469 799 469 846 q 438 723 469 760 q 369 686 406 686 z "},"k":{"ha":501,"x_min":-56,"x_max":711,"o":"m 479 210 q 633 378 538 268 q 640 382 638 382 q 643 376 643 382 q 622 325 643 350 q 440 135 519 211 q 415 109 433 128 q 385 80 396 90 q 356 52 374 69 q 325 25 338 35 q 298 5 313 15 q 272 -10 283 -6 q 251 -15 260 -15 q 226 31 226 -15 q 248 158 226 81 q 292 289 269 236 l 313 342 q 314 347 314 344 q 311 350 314 350 l 303 347 q 194 228 250 294 q 108 124 138 163 l 79 85 q 15 10 51 42 q -42 -22 -22 -22 q -56 -4 -56 -22 q -31 79 -56 22 q 19 181 -6 136 l 44 225 l 247 588 q 646 1232 521 1074 q 704 1286 688 1286 q 711 1275 711 1286 q 667 1156 711 1244 q 364 610 449 761 q 165 258 199 314 l 165 253 q 168 249 165 249 q 176 254 171 249 l 242 325 q 363 450 308 396 q 483 556 417 504 q 582 608 550 608 q 604 575 604 608 q 590 515 604 556 q 563 475 576 475 q 553 489 557 475 q 513 524 546 524 q 425 434 465 524 q 368 260 385 344 q 351 147 351 176 q 367 117 351 117 q 399 133 379 117 q 447 176 419 149 q 479 210 474 204 z "},"l":{"ha":278,"x_min":-25,"x_max":886,"o":"m 404 676 q 581 834 503 746 q 701 997 660 922 q 763 1125 742 1071 q 783 1203 783 1179 q 774 1217 783 1217 q 726 1189 754 1217 q 607 1036 674 1136 q 499 865 540 936 q 393 674 458 793 q 404 676 399 674 m 256 210 q 410 378 314 268 q 417 382 414 382 q 419 376 419 382 q 399 325 419 350 q 217 135 296 211 q -4 -29 43 -29 q -25 0 -25 -29 q -22 33 -25 15 q -10 73 -18 51 q 5 109 -1 94 q 23 151 11 124 q 39 188 35 178 q 278 649 78 275 q 781 1261 551 1147 q 847 1278 814 1278 q 886 1242 886 1278 q 829 1059 886 1158 q 690 876 772 960 q 530 731 608 793 q 394 636 451 668 q 379 624 386 633 q 260 412 318 525 q 172 233 201 299 l 144 169 q 138 142 138 149 q 147 129 138 129 q 256 210 175 129 z "},"m":{"ha":806,"x_min":-69,"x_max":947,"o":"m 783 210 q 938 378 842 268 q 944 382 942 382 q 947 376 947 382 q 926 325 947 350 q 744 135 824 211 q 529 -18 581 -18 q 507 8 507 -18 q 535 96 507 35 q 592 207 564 157 q 665 329 621 257 q 711 407 708 401 q 736 458 736 447 q 729 465 736 465 l 710 458 q 557 316 646 413 q 411 147 468 219 l 354 74 q 229 -18 290 -18 q 211 -7 211 -18 q 238 59 211 6 q 290 160 264 113 l 317 207 q 365 291 326 226 q 428 402 403 356 q 454 460 454 449 q 449 467 454 467 l 429 458 q 275 316 364 413 q 131 147 186 219 l 74 74 q -51 -17 8 -17 q -69 -7 -69 -17 q -43 59 -69 6 q 10 160 -17 113 l 36 207 l 171 446 q 251 558 204 508 q 350 607 299 607 q 361 597 361 607 q 345 562 361 589 q 299 487 329 535 q 249 399 269 439 q 219 345 236 375 q 190 295 201 315 q 175 267 179 275 q 171 254 171 258 q 174 251 171 251 q 188 261 178 251 q 256 338 214 292 q 400 476 299 383 q 567 600 501 568 q 594 607 581 607 q 614 588 614 607 q 532 400 614 551 q 503 351 525 388 q 467 289 482 315 q 453 256 453 263 q 456 251 453 251 q 469 261 460 251 q 538 338 496 292 q 681 476 581 383 q 847 600 782 568 q 876 607 864 607 q 897 588 897 607 q 892 563 897 582 q 860 487 886 544 q 790 360 833 429 q 685 156 685 197 q 693 143 685 143 q 783 210 717 143 z "},"n":{"ha":526,"x_min":-69,"x_max":668,"o":"m 465 135 q 251 -18 303 -18 q 228 7 228 -18 q 235 45 228 22 q 252 91 242 68 q 272 133 263 114 q 292 169 282 153 q 301 188 301 186 q 364 292 322 225 q 431 403 406 360 q 456 457 456 447 q 449 464 456 464 l 429 457 q 276 315 365 411 q 131 144 188 218 l 74 72 q 42 29 56 46 q 2 -3 28 13 q -50 -19 -24 -19 q -69 -8 -69 -19 q -43 56 -69 3 q 10 158 -17 110 l 36 206 l 172 444 q 206 498 193 479 q 243 545 219 517 q 294 588 267 574 q 351 604 321 601 q 363 594 363 604 q 358 581 363 586 q 260 415 326 531 q 176 265 194 300 q 172 253 172 257 q 175 250 172 250 q 189 258 178 250 q 258 335 215 289 q 401 473 300 381 q 568 597 503 565 q 597 604 583 604 q 617 582 617 604 q 510 358 606 517 q 404 153 404 185 q 414 142 404 142 q 430 147 421 142 q 450 160 439 151 q 469 176 461 169 q 489 195 476 183 q 504 210 501 207 q 658 378 563 268 q 665 382 663 382 q 668 376 668 382 q 647 325 668 350 q 465 135 544 211 z "},"o":{"ha":483,"x_min":7,"x_max":619,"o":"m 607 489 q 619 481 619 486 q 608 461 619 472 q 563 421 593 446 q 528 390 533 396 l 508 364 q 419 194 479 282 q 272 39 358 106 q 106 -28 185 -28 q 7 93 7 -28 q 76 324 7 200 q 256 537 146 449 q 474 625 367 625 q 551 564 551 625 q 518 474 551 531 q 517 469 517 472 q 519 467 517 467 q 607 489 571 488 m 475 456 q 486 531 486 504 q 447 589 486 589 q 313 489 393 589 q 174 264 232 389 q 117 67 117 139 q 154 14 117 14 q 294 131 213 14 q 392 365 375 247 q 390 374 390 368 q 463 446 390 414 q 475 456 474 450 z "},"p":{"ha":479,"x_min":-493,"x_max":529,"o":"m 51 50 q 44 25 44 38 q 83 0 44 0 q 168 37 124 0 q 248 126 213 74 q 313 230 283 178 q 358 319 343 282 l 375 356 q 411 488 411 446 q 390 517 411 517 q 365 508 378 517 q 242 366 321 481 q 108 150 164 251 l 51 50 m 347 692 q 357 681 357 692 q 334 606 357 661 q 289 506 311 550 l 265 460 q 264 454 264 457 q 267 450 264 450 q 275 456 269 450 q 288 472 279 463 q 321 509 296 482 q 369 556 346 536 q 422 593 392 576 q 475 610 451 610 q 529 521 529 610 q 486 343 529 449 q 470 304 486 340 q 419 211 454 268 q 340 101 385 154 q 230 8 296 47 q 94 -31 164 -31 q 58 -26 75 -31 q 33 -16 42 -21 q 22 -11 25 -11 l 13 -17 q -107 -222 -25 -72 q -237 -474 -189 -372 q -256 -507 -244 -486 q -299 -582 -267 -528 q -359 -677 -331 -636 q -422 -752 -387 -718 q -479 -786 -456 -786 q -493 -774 -493 -786 q -412 -581 -493 -736 q -249 -289 -331 -426 l -167 -153 q 147 406 35 199 q 156 422 150 411 q 178 462 161 432 q 210 519 194 492 q 246 578 225 546 q 285 635 267 611 q 319 676 303 660 q 347 692 336 692 z "},"q":{"ha":524,"x_min":-208,"x_max":665,"o":"m 71 -426 q -58 -655 0 -567 q -145 -771 -115 -743 q -193 -799 -175 -799 q -208 -782 -208 -799 q -156 -640 -208 -746 q -50 -444 -103 -533 l 3 -357 l 147 -107 q 42 -175 135 -115 q 35 -176 39 -176 q 26 -169 26 -176 q 58 -132 26 -154 q 181 -46 122 -89 l 331 232 l 333 243 q 331 247 333 247 l 315 236 q 217 136 272 189 q 126 54 161 83 l 92 25 q 18 -11 46 -11 q -17 44 -17 -11 q 53 262 -17 132 q 240 497 122 392 q 469 603 357 603 q 503 599 490 603 q 522 590 517 594 q 529 585 528 585 q 536 589 532 585 q 651 690 611 690 q 664 675 664 690 q 644 617 664 656 q 457 286 490 342 q 333 71 431 243 q 656 378 526 228 q 663 382 660 382 q 665 376 665 382 q 644 325 665 350 q 296 3 503 168 q 71 -426 197 -174 m 511 554 q 513 560 513 557 q 489 569 513 569 q 335 476 424 569 q 188 281 247 383 q 129 142 129 179 q 142 125 129 125 q 188 147 160 125 q 246 200 210 165 q 369 341 282 235 q 511 554 456 447 z "},"r":{"ha":406,"x_min":-82,"x_max":567,"o":"m 349 288 q 338 296 338 288 q 342 307 338 300 q 424 482 424 435 q 414 494 424 494 q 218 306 372 494 q 133 185 172 247 q 78 89 93 122 l 61 57 q 10 -5 44 24 q -62 -33 -25 -33 q -82 -24 -82 -33 q -70 11 -82 -15 q -42 69 -58 38 q -8 132 -25 101 q 19 183 8 163 l 32 204 l 178 458 q 356 618 263 618 q 368 608 368 618 q 308 505 368 596 q 238 389 247 414 q 235 379 235 381 q 238 376 235 376 q 247 383 240 376 q 468 593 351 501 q 499 613 475 600 q 540 626 522 626 q 567 581 567 626 q 533 461 567 531 q 443 339 500 392 l 438 333 q 426 324 432 329 q 410 313 419 319 q 390 301 400 306 q 369 292 381 296 q 349 288 358 288 z "},"s":{"ha":379,"x_min":-37,"x_max":463,"o":"m 328 158 q 249 44 303 90 q 148 -19 194 -3 q 64 -36 101 -36 q -37 43 -37 -36 q 51 189 -37 124 q 142 229 93 219 q 149 224 149 229 q 146 218 149 221 q 80 136 111 192 q 49 39 49 81 q 83 -3 49 -3 q 138 20 111 -3 q 179 67 165 43 l 193 89 q 240 231 221 133 q 264 403 258 328 l 268 478 q 264 489 268 489 l 258 486 l 121 325 q 100 307 106 307 q 93 317 93 307 q 103 344 93 335 l 115 360 q 296 575 274 538 q 357 631 317 607 q 449 653 396 653 q 463 642 463 653 q 451 629 463 635 q 441 623 447 628 q 419 600 435 618 q 390 558 403 582 q 368 492 378 535 q 358 399 358 450 q 328 158 358 239 z "},"t":{"ha":264,"x_min":-37,"x_max":689,"o":"m 242 210 q 396 378 300 268 q 403 382 400 382 q 406 376 406 382 q 385 325 406 350 q 203 135 282 211 q -18 -26 36 -26 q -37 -1 -37 -26 q -15 86 -37 28 q 29 189 7 144 l 51 232 q 157 426 83 289 q 299 686 231 564 q 429 907 368 808 l 319 907 q 306 914 306 907 q 317 928 306 921 q 340 935 328 935 q 447 936 371 935 q 564 1106 515 1043 q 624 1160 607 1160 q 633 1147 633 1160 q 581 1022 633 1118 l 533 936 l 676 936 q 689 929 689 936 q 649 907 689 907 l 518 907 q 181 269 197 299 q 122 131 122 163 q 129 121 122 121 q 242 210 149 121 z "},"u":{"ha":515,"x_min":-44,"x_max":657,"o":"m 314 232 l 357 306 q 354 310 357 310 q 347 306 351 310 q 240 190 296 246 q 156 107 185 133 l 125 81 q -25 -22 17 -22 q -44 3 -44 -22 q -22 88 -44 31 q 25 189 1 144 l 47 232 q 219 524 164 450 q 288 584 247 560 q 350 608 328 608 q 364 599 364 608 q 358 583 364 593 q 301 491 356 578 q 214 342 247 404 q 122 149 122 174 q 131 139 122 139 q 174 164 143 139 q 372 374 264 242 q 497 540 432 438 q 615 608 542 608 q 628 597 628 608 l 617 571 q 530 419 597 536 q 453 285 463 301 q 396 153 396 185 q 404 140 396 140 q 493 210 418 140 q 647 378 551 268 q 654 382 651 382 q 657 376 657 382 q 636 325 657 350 q 454 135 533 211 q 333 32 400 83 q 235 -19 265 -19 q 214 10 214 -19 q 239 82 214 26 q 289 185 264 138 l 314 232 z "},"v":{"ha":411,"x_min":17,"x_max":581,"o":"m 581 643 q 371 308 579 604 q 367 300 367 303 q 403 290 367 290 q 554 389 471 290 q 558 390 556 390 q 565 376 565 390 q 532 324 565 361 q 386 257 472 257 q 361 259 372 257 q 344 263 350 261 q 338 265 339 265 l 331 261 q 188 97 253 167 q 94 3 122 26 l 68 -19 q 33 -36 46 -36 q 17 -10 17 -36 q 90 284 17 82 q 194 538 163 486 q 304 608 239 608 q 314 599 314 608 q 303 569 314 592 q 153 140 182 318 q 158 125 153 125 q 175 135 164 125 q 310 285 235 178 q 313 294 313 289 q 307 328 307 307 q 391 513 307 411 q 561 647 475 615 q 572 650 569 650 q 581 643 581 650 z "},"w":{"ha":643,"x_min":13,"x_max":813,"o":"m 563 261 q 422 97 486 167 q 331 3 357 26 l 304 -19 q 269 -37 282 -37 q 254 -12 254 -37 q 318 253 254 47 l 310 249 q 177 94 239 161 q 89 3 115 26 l 63 -19 q 28 -37 40 -37 q 13 -12 13 -37 q 74 242 13 57 q 193 538 135 428 q 238 588 208 567 q 300 608 267 608 q 310 600 310 608 q 299 569 310 592 q 203 337 260 489 q 146 126 146 185 q 149 119 146 119 q 168 135 154 119 q 211 176 185 150 q 292 270 238 203 q 368 389 346 338 l 435 538 q 485 591 457 574 q 536 608 514 608 q 553 600 553 608 q 540 569 553 594 q 389 140 419 318 q 388 129 388 135 q 392 121 388 121 q 461 185 401 121 q 542 283 521 250 q 544 294 544 289 q 539 328 539 307 q 623 513 539 411 q 793 647 707 615 q 804 650 801 650 q 813 643 813 650 q 603 308 811 604 q 599 300 599 303 q 603 293 599 294 q 636 285 619 285 q 786 389 699 285 q 790 392 789 392 q 797 376 797 392 q 764 324 797 361 q 624 254 703 254 q 569 265 596 254 l 563 261 z "},"x":{"ha":461,"x_min":-108,"x_max":603,"o":"m 351 88 q 219 -7 253 -7 q 185 32 194 -7 q 175 158 175 71 q 181 299 175 204 q 34 125 94 210 q -44 0 -26 40 l -61 -39 q -82 -65 -69 -65 q -101 -37 -93 -65 q -108 8 -108 -10 q -104 38 -108 25 q -96 56 -100 51 l -92 61 q 183 340 40 201 q 194 482 194 468 q 194 503 194 493 q 192 522 193 514 q 191 536 192 529 q 189 547 190 543 q 186 555 188 551 q 184 560 185 558 q 183 564 183 563 q 181 567 182 565 q 178 572 178 569 q 210 610 178 589 q 264 632 242 632 q 286 576 286 632 q 281 432 286 529 q 496 607 426 568 q 540 624 529 624 q 567 592 557 624 q 576 538 576 560 q 569 526 576 528 q 551 540 564 526 q 521 554 538 554 q 453 532 493 554 q 388 488 414 510 l 361 465 q 278 393 310 424 q 274 269 274 331 q 314 100 274 100 q 450 221 335 100 q 593 378 511 285 q 600 382 597 382 q 603 376 603 382 q 582 325 603 350 q 351 88 461 190 z "},"y":{"ha":499,"x_min":-264,"x_max":640,"o":"m 299 197 l 357 311 q 354 315 357 315 q 347 311 351 315 q 239 194 296 251 q 151 108 182 136 l 121 81 q -26 -18 17 -18 q -46 7 -46 -18 q -24 91 -46 35 q 21 189 -1 147 l 43 232 q 215 524 160 450 q 283 584 243 560 q 346 608 324 608 q 360 599 360 608 q 354 583 360 593 q 297 491 351 578 q 210 342 243 404 q 118 149 118 174 q 126 139 118 139 q 169 164 139 139 q 368 374 260 242 q 493 540 428 438 q 547 588 511 568 q 611 608 582 608 q 624 597 624 608 l 613 571 q 526 419 593 536 q 450 286 458 301 q 399 197 439 265 q 343 99 360 128 q 488 221 431 169 q 631 378 549 285 q 638 382 635 382 q 640 376 640 382 q 619 325 640 350 q 514 211 558 258 q 306 33 456 150 l 269 -33 q -100 -675 1 -526 q -125 -712 -110 -690 q -175 -770 -140 -733 q -231 -807 -210 -807 q -264 -711 -264 -807 q -162 -403 -264 -569 q 176 -35 -53 -224 q 299 197 222 49 m -128 -400 q -154 -444 -139 -417 q -196 -537 -169 -471 q -222 -647 -222 -603 q -214 -671 -222 -671 q -193 -658 -207 -671 q -169 -631 -179 -644 l -160 -617 q 139 -103 -22 -401 q -128 -400 -42 -261 z "},"z":{"ha":454,"x_min":-90,"x_max":628,"o":"m 621 581 q 533 494 599 556 q 414 385 468 433 l 360 336 q 214 196 281 267 q 119 89 147 125 l 93 53 q 88 36 88 43 q 132 24 88 24 q 297 107 211 24 q 425 211 401 211 q 432 199 432 211 q 340 29 372 68 q 282 -6 317 -1 q 185 -10 256 -10 q 126 -9 157 -10 q 74 -8 96 -8 q 49 -7 53 -7 q 16 -10 31 -7 q -4 -15 1 -12 l -10 -18 q -79 -49 -60 -49 q -90 -37 -90 -49 q -42 62 -90 -3 q 72 192 6 126 q 183 298 139 257 q 243 351 226 339 q 402 488 318 414 q 486 568 486 563 q 463 576 486 576 q 203 443 325 575 q 194 442 201 442 q 176 449 176 442 q 195 478 176 451 q 236 537 214 504 q 264 582 258 569 q 293 599 275 597 q 514 606 410 606 q 613 603 585 606 q 628 593 628 601 q 621 581 628 590 z "},"{":{"ha":258,"x_min":0,"x_max":711,"o":"m 65 -58 q 54 -74 65 -74 q 15 -32 31 -74 q 0 38 0 10 q 47 182 0 99 q 142 345 94 265 q 189 478 189 425 q 186 503 189 492 q 181 518 183 514 l 178 522 q 174 535 174 531 q 178 544 174 540 q 189 549 183 547 l 193 550 q 260 582 233 556 q 331 679 288 608 q 394 790 356 719 q 456 899 432 860 q 515 983 479 938 q 593 1051 550 1028 q 690 1082 636 1075 q 711 1071 711 1079 q 697 1057 711 1065 q 690 1056 694 1057 q 665 1036 685 1054 q 620 988 644 1018 q 554 890 596 957 q 465 729 513 822 q 456 710 463 722 q 428 667 450 699 q 383 611 407 636 q 319 562 358 586 q 239 529 281 538 q 224 519 224 529 q 231 507 224 514 q 261 424 261 476 q 211 292 261 375 q 112 122 161 210 q 63 -31 63 33 q 64 -47 63 -39 q 65 -58 65 -56 z "},"|":{"ha":338,"x_min":-31,"x_max":656,"o":"m 656 1083 l 654 1078 l 39 -22 q -17 -46 25 -46 q -31 -37 -31 -46 l -28 -28 q 589 1071 547 1001 q 628 1097 604 1097 q 656 1083 656 1097 z "},"}":{"ha":329,"x_min":-92,"x_max":619,"o":"m 554 1067 q 565 1082 554 1082 q 604 1040 589 1082 q 619 971 619 999 q 572 826 619 910 q 478 663 525 743 q 431 531 431 583 q 433 506 431 517 q 439 490 436 494 l 442 486 q 446 474 446 478 q 441 465 446 468 q 431 460 436 461 l 426 458 q 359 426 386 453 q 289 329 332 400 q 226 219 264 289 q 164 110 188 149 q 105 26 140 71 q 26 -43 69 -19 q -71 -74 -17 -67 q -92 -62 -92 -71 q -78 -49 -92 -57 q -70 -47 -75 -49 q -45 -28 -65 -46 q -1 21 -25 -10 q 65 119 24 51 q 154 279 107 186 q 163 298 157 286 q 191 341 169 310 q 237 397 213 372 q 300 447 261 422 q 381 479 339 471 q 396 489 396 479 q 389 501 396 494 q 358 585 358 532 q 408 716 358 633 q 508 887 458 799 q 557 1039 557 975 q 556 1056 557 1047 q 554 1067 554 1064 z "},"~":{"ha":551,"x_min":200,"x_max":543,"o":"m 542 354 q 436 272 496 272 q 338 296 410 272 q 243 319 267 319 q 218 315 233 319 q 208 314 214 314 q 200 319 200 314 q 229 350 200 336 q 289 364 258 364 q 378 355 308 364 q 467 346 449 346 q 528 365 500 346 q 533 367 529 367 q 543 358 543 367 q 542 354 543 356 z "},"":{"ha":308,"x_min":-211,"x_max":444,"o":"m 413 538 q 398 519 413 538 q 343 500 382 500 q 304 547 304 500 q 335 627 304 589 q 403 665 365 665 q 444 618 444 665 q 413 538 444 576 m 108 21 q 38 -127 81 -42 q -36 -267 -6 -212 l -65 -321 q -174 -378 -96 -378 q -211 -357 -211 -378 q -208 -344 -211 -353 q -162 -256 -197 -315 q -65 -103 -126 -197 q 29 47 -4 -8 l 236 385 q 281 400 250 400 q 297 388 297 400 q 293 374 297 382 q 108 21 172 161 z "},"":{"ha":418,"x_min":1,"x_max":542,"o":"m 339 135 q 136 -10 229 32 l 101 -72 q 90 -89 96 -83 q 81 -94 83 -94 l 76 -94 q 61 -85 61 -94 q 64 -76 61 -82 q 90 -26 74 -56 q 65 -29 74 -29 q 1 69 1 -29 q 146 401 1 221 q 440 606 290 581 l 465 647 q 494 665 476 665 q 506 654 506 665 q 503 644 506 653 q 483 608 500 639 q 531 568 531 606 q 440 411 531 499 q 404 382 432 403 q 365 361 376 361 q 358 368 358 361 l 363 381 q 418 531 418 479 q 400 558 418 558 q 291 474 357 558 q 176 283 225 390 q 128 113 128 175 q 143 68 128 81 q 244 249 219 210 q 276 274 261 274 q 286 267 286 274 q 283 258 286 264 l 178 64 q 321 153 238 74 q 532 378 394 221 q 539 382 536 382 q 542 376 542 382 q 521 325 542 350 q 339 135 418 211 z "},"":{"ha":582,"x_min":-6,"x_max":672,"o":"m 582 478 q 364 476 574 476 q 154 42 199 158 q 153 33 153 38 q 201 10 153 10 q 376 71 296 10 q 590 289 496 167 q 613 300 601 300 q 624 286 624 300 q 608 238 624 272 q 471 -3 518 42 q 436 -19 457 -17 q 178 -31 351 -31 l 15 -28 q -6 -8 -6 -26 l -3 6 q 228 476 82 213 l 150 476 q 128 486 128 476 q 142 506 128 496 q 168 517 157 517 q 251 518 201 517 l 283 574 l 204 574 q 182 583 182 574 q 197 603 182 593 q 222 614 211 614 q 307 615 256 614 q 450 839 382 740 q 615 1053 576 1022 q 649 1068 633 1068 q 660 1056 660 1068 q 622 957 660 1033 q 557 833 585 881 q 439 617 506 740 l 579 617 q 632 617 614 617 q 660 615 650 617 q 671 613 669 614 q 672 607 672 611 q 661 588 672 599 q 636 575 650 578 q 415 574 628 574 l 386 519 l 525 519 q 578 519 560 519 q 606 518 596 519 q 617 515 615 517 q 618 510 618 514 q 607 491 618 501 q 582 478 596 481 z "},"":{"ha":569,"x_min":196,"x_max":674,"o":"m 389 350 q 319 365 350 350 l 279 324 q 211 304 260 304 q 196 310 196 304 l 203 322 q 278 400 231 351 q 253 481 253 431 q 331 640 253 569 l 310 740 q 338 760 310 760 q 365 733 358 760 q 379 676 367 731 q 485 706 433 706 q 556 689 526 706 l 592 725 q 642 751 618 751 q 674 738 674 751 q 669 729 674 733 l 596 653 q 619 574 619 621 q 532 404 619 475 l 551 318 q 532 301 551 301 q 493 322 497 301 q 481 372 488 339 q 389 350 438 350 m 564 560 q 538 629 564 601 q 471 657 513 657 q 359 607 410 657 q 308 494 308 557 q 335 425 308 453 q 401 397 361 397 q 515 448 465 397 q 564 560 564 499 z "},"":{"ha":626,"x_min":39,"x_max":1085,"o":"m 596 447 q 442 446 592 446 l 439 440 q 224 49 272 142 q 63 -44 175 -44 q 39 -31 39 -44 l 44 -15 q 307 446 164 164 l 164 446 q 143 454 143 446 q 156 476 143 465 q 182 486 169 486 l 325 486 q 344 544 338 515 l 222 544 q 201 553 201 544 q 215 574 201 564 q 240 585 228 585 l 353 585 q 374 856 374 708 q 365 1022 374 889 q 365 1032 365 1026 q 364 1039 364 1038 q 403 1074 364 1063 q 472 1085 443 1085 q 494 1047 494 1085 q 497 940 497 1007 q 471 593 497 754 q 479 585 471 585 q 489 588 485 585 q 836 989 697 853 q 1068 1100 951 1100 q 1085 1089 1085 1100 q 1069 1063 1085 1078 q 1024 1025 1054 1047 q 955 973 994 1003 q 893 925 915 943 q 838 882 872 910 q 710 766 803 854 q 544 586 618 678 l 675 586 q 690 578 690 586 q 679 559 690 569 q 654 546 668 549 q 511 544 650 544 l 469 488 l 613 488 q 632 478 632 488 q 621 459 632 469 q 596 447 610 449 z "},"":{"ha":338,"x_min":-31,"x_max":654,"o":"m 294 432 l 293 426 l 39 -22 q -17 -46 25 -46 q -31 -37 -31 -46 l -28 -28 q 228 419 186 350 q 267 446 243 446 q 294 432 294 446 m 654 1082 l 653 1076 l 399 628 q 343 604 385 604 q 329 613 329 604 l 332 622 q 588 1069 546 1000 q 626 1096 603 1096 q 654 1082 654 1096 z "},"":{"ha":617,"x_min":7,"x_max":851,"o":"m 15 -14 q 7 -1 7 -12 q 10 6 7 3 q 18 10 14 8 l 22 11 q 117 32 65 17 q 220 71 168 47 q 306 131 272 94 q 340 210 340 168 q 313 285 340 244 q 254 358 286 326 q 195 428 222 389 q 168 503 168 468 q 192 563 168 533 q 249 612 215 592 q 326 651 283 632 q 403 680 369 669 q 467 697 438 690 l 494 706 q 506 713 506 710 l 500 718 q 471 746 493 725 q 438 778 449 767 q 416 811 426 790 q 406 851 406 832 q 474 958 406 911 q 619 1023 542 1004 q 756 1042 696 1042 q 799 1040 778 1042 q 829 1036 819 1038 l 839 1033 q 851 1018 851 1026 q 848 1010 851 1014 q 840 1006 844 1007 l 836 1004 q 755 997 801 1004 q 657 974 708 989 q 571 931 606 960 q 536 867 536 903 q 567 810 536 842 q 635 750 597 778 q 703 681 672 722 q 733 599 733 639 q 697 524 733 563 q 603 453 661 486 q 503 402 544 421 q 421 367 463 383 q 413 358 413 364 q 417 351 413 356 q 483 224 483 283 q 408 97 483 156 q 236 10 332 39 q 63 -18 140 -18 q 15 -14 36 -18 m 385 394 q 603 569 603 468 q 550 663 603 607 q 522 674 542 674 q 391 633 474 669 q 286 535 308 597 q 285 525 285 531 q 326 444 285 493 q 385 394 367 394 z "},"":{"ha":514,"x_min":357,"x_max":700,"o":"m 392 701 q 357 740 357 701 q 385 806 357 775 q 442 838 413 838 q 476 800 476 838 q 450 733 476 765 q 392 701 424 701 m 615 701 q 581 740 581 701 q 608 807 581 776 q 667 838 636 838 q 700 799 700 838 q 674 733 700 764 q 615 701 647 701 z "},"":{"ha":565,"x_min":117,"x_max":569,"o":"m 285 161 q 163 206 210 161 q 117 322 117 251 q 207 515 117 429 q 403 600 297 600 q 524 554 478 600 q 569 438 569 508 q 480 245 569 329 q 285 161 390 161 m 538 431 q 499 536 538 494 q 397 578 460 578 q 226 501 303 578 q 150 329 150 425 q 189 225 150 267 q 290 183 228 183 q 463 260 388 183 q 538 431 538 336 m 396 328 q 335 258 374 290 q 261 225 297 225 q 229 272 229 225 q 264 397 229 332 q 353 504 299 463 q 414 526 383 526 q 432 524 421 526 l 433 522 q 438 525 438 522 q 464 532 446 532 l 467 532 q 472 526 472 532 q 441 474 472 514 q 397 433 410 433 q 394 436 394 433 q 417 489 394 449 q 426 510 426 508 q 417 517 426 517 q 398 511 408 517 q 382 500 388 506 l 376 496 q 303 398 336 458 q 271 288 271 338 q 293 251 271 251 q 379 331 338 251 q 399 369 397 369 q 404 357 404 369 q 396 328 404 340 z "},"":{"ha":478,"x_min":139,"x_max":613,"o":"m 436 581 q 325 507 356 507 q 313 522 313 507 q 330 581 313 542 q 364 651 347 621 l 381 682 l 383 693 q 368 682 379 693 q 301 613 339 649 q 242 557 264 576 l 218 538 q 160 508 182 508 q 139 540 139 508 q 148 592 139 558 q 163 638 157 626 q 308 852 211 757 q 529 947 406 947 q 585 931 585 947 q 560 921 585 921 q 393 845 471 921 q 265 669 315 769 q 251 624 251 628 q 258 613 251 613 q 289 629 271 613 q 456 817 397 721 q 467 835 460 824 q 499 864 475 846 q 546 882 524 882 q 558 875 558 882 q 556 868 558 871 q 534 830 551 860 q 501 771 517 800 q 467 710 485 742 q 440 656 450 679 q 429 624 429 632 q 435 618 429 618 q 451 626 440 618 q 472 642 463 633 q 493 661 482 650 q 506 674 504 672 q 547 719 513 682 q 606 783 582 756 q 611 788 608 788 q 613 783 613 786 q 597 747 613 765 q 436 581 507 646 z "},"":{"ha":728,"x_min":39,"x_max":843,"o":"m 168 21 q 88 144 136 56 q 39 269 39 232 q 44 290 39 281 q 53 304 49 300 l 58 308 q 249 432 129 360 q 447 544 383 513 q 526 561 485 561 q 564 550 564 561 q 544 528 564 540 q 157 290 199 338 q 149 271 149 282 q 267 31 151 231 q 274 13 274 22 q 242 -6 274 -6 q 168 21 193 -6 m 426 24 q 347 142 397 56 q 297 254 297 228 q 303 275 297 265 q 314 289 308 285 l 321 294 q 528 431 408 360 q 726 543 636 496 q 808 560 760 560 q 843 549 843 560 q 824 526 843 539 q 419 276 461 324 q 411 254 411 268 q 526 33 415 224 q 533 14 533 24 q 500 -4 533 -4 q 426 24 451 -4 z "},"":{"ha":694,"x_min":222,"x_max":778,"o":"m 778 553 q 774 538 778 546 l 654 324 q 590 297 646 297 q 561 310 561 297 q 565 322 561 314 l 667 503 l 246 503 q 222 517 222 503 q 240 547 222 528 q 272 565 257 565 l 754 565 q 778 553 778 565 z "},"":{"ha":565,"x_min":117,"x_max":569,"o":"m 285 161 q 163 206 210 161 q 117 322 117 251 q 207 515 117 429 q 403 600 297 600 q 524 554 478 600 q 569 438 569 508 q 480 245 569 329 q 285 161 390 161 m 538 431 q 499 536 538 494 q 397 578 460 578 q 226 501 303 578 q 150 329 150 425 q 189 225 150 267 q 290 183 228 183 q 463 260 388 183 q 538 431 538 336 m 369 251 q 350 390 350 279 l 350 414 l 354 418 q 413 443 386 421 q 440 494 440 465 q 422 526 440 517 q 379 536 403 536 q 326 522 351 536 q 301 482 301 507 q 308 460 301 474 q 308 458 308 458 l 310 456 q 307 453 310 453 q 299 457 303 453 q 275 490 275 469 q 307 531 275 517 q 382 546 339 546 q 475 499 475 546 q 444 447 475 471 q 382 414 413 422 q 379 410 379 413 q 410 240 379 269 l 413 238 q 403 235 413 235 q 383 239 392 235 q 372 247 375 243 q 369 251 369 250 m 282 315 q 253 267 269 288 q 228 242 238 247 l 217 236 l 215 236 q 213 235 214 235 q 208 240 208 235 l 210 244 q 278 376 221 275 l 346 489 q 382 515 365 515 q 386 513 386 515 q 382 504 386 511 l 361 468 q 317 385 342 432 q 282 315 292 338 z "},"":{"ha":514,"x_min":285,"x_max":757,"o":"m 708 692 l 308 692 q 285 706 285 692 q 302 735 285 717 q 335 754 319 754 l 733 754 q 757 742 757 754 q 741 711 757 728 q 708 692 725 694 z "},"":{"ha":414,"x_min":299,"x_max":536,"o":"m 369 640 q 318 662 338 640 q 299 719 299 683 q 355 841 299 783 q 464 899 411 899 q 516 876 496 899 q 536 819 536 854 q 483 699 536 757 q 369 640 429 640 m 450 860 q 376 819 413 860 q 339 732 339 779 q 351 693 339 708 q 383 678 363 678 q 458 722 421 681 q 496 807 496 763 q 450 860 496 860 z "},"":{"ha":681,"x_min":113,"x_max":799,"o":"m 671 774 l 583 618 l 775 618 q 799 606 799 618 q 783 575 799 592 q 750 556 767 558 l 547 556 l 464 403 q 400 376 456 376 q 371 389 371 376 q 375 401 371 393 l 460 556 l 267 556 q 243 569 243 556 q 260 599 243 581 q 293 618 278 618 l 494 618 l 582 772 q 644 800 599 800 q 675 785 675 800 q 671 774 675 781 m 619 263 l 136 263 q 113 276 113 263 q 130 306 113 288 q 163 325 147 325 l 644 325 q 668 313 668 325 q 652 282 668 299 q 619 263 636 265 z "},"":{"ha":507,"x_min":113,"x_max":757,"o":"m 540 467 q 506 388 524 419 q 481 350 489 357 l 471 342 q 383 331 458 331 q 331 331 368 331 q 268 332 293 332 q 183 331 235 332 q 125 331 131 331 q 113 342 113 331 l 117 358 q 221 472 144 399 q 361 597 297 544 l 424 650 q 653 938 653 843 q 631 986 653 968 q 579 1004 610 1004 q 513 984 546 1004 q 464 943 481 964 l 449 922 q 433 908 440 908 q 424 922 424 908 q 427 940 424 926 q 443 979 431 954 q 474 1026 456 1004 q 529 1065 493 1049 q 611 1082 565 1082 q 713 1055 668 1082 q 757 971 757 1028 q 727 875 757 924 q 667 799 697 826 q 581 728 636 772 q 477 644 511 672 q 388 568 443 617 q 306 488 332 519 q 281 436 281 456 q 293 424 281 425 q 361 418 317 418 q 519 472 481 418 q 533 482 526 482 q 543 474 543 482 q 540 467 543 469 z "},"":{"ha":488,"x_min":88,"x_max":682,"o":"m 94 294 q 88 304 88 300 q 92 310 88 308 q 100 313 96 313 l 104 313 q 150 308 129 308 q 352 399 258 308 q 446 601 446 489 q 412 691 446 656 q 344 735 378 726 l 310 743 q 301 750 301 743 q 307 763 301 754 q 319 768 313 768 q 497 817 411 768 q 583 947 583 867 q 563 1003 583 982 q 507 1025 542 1025 q 457 1015 483 1025 q 415 994 431 1004 l 400 983 q 390 981 396 981 q 382 994 382 981 q 387 1004 382 996 q 405 1026 392 1013 q 436 1051 418 1039 q 485 1073 454 1064 q 554 1082 517 1082 q 647 1056 611 1082 q 682 981 682 1029 q 615 848 682 901 q 463 769 549 794 q 454 760 454 764 q 458 753 454 756 q 482 736 468 747 q 519 685 496 725 q 542 597 542 644 q 437 375 542 478 q 182 272 332 272 q 94 294 122 272 z "},"":{"ha":514,"x_min":557,"x_max":785,"o":"m 779 825 q 690 749 742 782 q 606 706 638 717 l 572 694 q 557 700 557 694 q 563 713 557 704 q 604 754 576 724 q 653 808 632 785 l 674 833 q 700 846 682 846 l 768 846 q 785 836 785 846 q 779 825 785 831 z "},"":{"ha":515,"x_min":-326,"x_max":657,"o":"m 314 232 l 357 306 q 354 310 357 310 q 347 306 351 310 q -10 -19 106 28 q -85 -165 -54 -101 q -103 -199 -92 -178 q -145 -274 -114 -219 q -203 -369 -176 -328 q -262 -444 -231 -410 q -312 -478 -293 -478 q -326 -465 -326 -478 q -245 -273 -326 -428 q -82 19 -164 -118 l 0 156 q 101 330 26 196 q 219 524 175 464 q 288 584 247 560 q 350 608 328 608 q 364 599 364 608 q 358 583 364 593 q 301 491 356 578 q 214 342 247 404 q 122 149 122 174 q 131 139 122 139 q 174 164 143 139 q 372 374 264 242 q 497 540 432 438 q 615 608 542 608 q 628 597 628 608 l 617 571 q 530 419 597 536 q 453 285 463 301 q 396 153 396 185 q 404 140 396 140 q 493 210 418 140 q 647 378 551 268 q 654 382 651 382 q 657 376 657 382 q 636 325 657 350 q 454 135 533 211 q 333 32 400 83 q 235 -19 265 -19 q 214 10 214 -19 q 239 82 214 26 q 289 185 264 138 l 314 232 z "},"":{"ha":536,"x_min":71,"x_max":828,"o":"m 828 965 q 822 951 828 958 q 811 942 817 944 l 806 938 q 633 688 763 907 q 381 235 504 468 q 299 68 333 146 q 256 -44 265 -10 l 246 -78 q 228 -97 239 -97 q 208 -85 218 -97 q 199 -67 199 -74 q 330 248 199 -1 q 592 714 461 497 l 724 929 q 728 943 728 938 q 715 951 728 951 l 690 946 q 537 731 658 928 q 296 311 415 533 q 199 122 246 218 q 129 -25 151 25 l 107 -75 q 93 -92 101 -92 q 78 -83 86 -92 q 71 -64 71 -74 q 134 108 71 -22 q 261 349 197 239 l 325 458 q 328 468 328 463 q 324 476 328 474 q 317 481 319 479 l 313 481 q 172 647 172 513 q 216 799 172 731 q 330 911 260 868 q 484 978 400 954 q 653 1001 568 1001 q 724 997 690 1001 q 828 965 828 997 z "},"":{"ha":214,"x_min":56,"x_max":197,"o":"m 97 246 q 67 258 78 246 q 56 292 56 271 q 87 369 56 331 q 156 407 118 407 q 197 360 197 407 q 166 283 197 319 q 97 246 135 247 z "},"":{"ha":608,"x_min":78,"x_max":211,"o":"m 211 -33 q 188 -65 188 -46 q 194 -87 188 -72 q 201 -112 201 -101 q 179 -159 201 -140 q 126 -178 157 -178 q 78 -153 83 -178 q 88 -143 78 -143 q 101 -146 92 -143 q 117 -149 111 -149 q 143 -140 131 -149 q 156 -115 156 -131 q 148 -97 156 -107 q 140 -79 140 -86 q 159 -47 140 -62 q 199 -32 178 -32 q 211 -33 207 -32 z "},"":{"ha":429,"x_min":189,"x_max":674,"o":"m 278 347 q 203 300 242 300 q 189 313 189 300 q 203 360 189 325 q 242 443 218 396 q 288 532 267 490 q 332 615 310 574 q 357 661 354 656 q 409 749 364 676 q 486 885 454 822 q 518 976 518 947 q 483 999 518 999 l 447 993 q 432 1001 432 993 l 439 1015 q 663 1060 511 1060 q 674 1047 674 1057 q 663 1029 674 1040 q 579 906 632 996 q 433 638 475 724 q 397 564 421 613 q 358 486 372 515 q 322 417 344 457 q 278 347 299 378 z "},"":{"ha":417,"x_min":147,"x_max":525,"o":"m 525 839 q 474 679 525 771 q 352 533 418 585 q 225 481 286 481 q 167 505 188 481 q 147 567 147 529 q 199 728 147 639 q 321 875 253 822 q 449 928 389 928 q 525 839 525 928 m 271 706 q 221 544 221 599 q 247 508 221 508 q 403 706 315 511 q 456 872 456 818 q 435 903 456 903 q 356 845 404 903 q 271 706 308 788 z "},"":{"ha":785,"x_min":-53,"x_max":751,"o":"m 622 542 q 701 414 651 508 q 751 292 751 319 q 747 273 751 282 q 736 260 742 264 l 732 256 q 540 131 660 203 q 343 18 442 71 q 260 1 315 1 q 226 14 226 1 q 246 35 226 22 q 633 272 590 226 q 640 294 640 281 q 522 532 640 328 q 515 550 515 540 q 549 568 515 568 q 622 542 597 568 m 363 539 q 440 421 389 510 q 492 308 492 332 q 486 288 492 297 q 475 272 481 278 l 468 268 q 261 132 381 203 q 64 19 149 64 q -19 1 29 1 q -53 15 -53 1 q -33 36 -53 24 q 371 286 328 239 q 378 308 378 293 q 264 531 378 335 q 257 549 257 539 q 290 567 257 567 q 363 539 338 567 z "},"":{"ha":1064,"x_min":21,"x_max":1183,"o":"m 278 347 q 203 300 242 300 q 189 313 189 300 q 203 360 189 325 q 242 443 218 396 q 288 532 267 490 q 332 615 310 574 q 357 661 354 656 q 409 749 364 676 q 486 885 454 822 q 518 976 518 947 q 483 999 518 999 l 447 993 q 432 1001 432 993 l 439 1015 q 663 1060 511 1060 q 674 1047 674 1057 q 663 1029 674 1040 q 579 906 632 996 q 433 638 475 724 q 397 564 421 613 q 358 486 372 515 q 322 417 344 457 q 278 347 299 378 m 1010 297 q 914 233 976 238 q 875 229 911 233 l 778 47 q 726 1 761 21 q 663 -18 692 -18 q 650 -6 650 -18 l 651 1 q 776 228 664 32 l 750 228 l 558 233 q 539 250 539 235 l 543 264 q 586 311 558 282 q 692 419 614 340 q 841 561 771 497 q 994 685 911 625 q 1133 763 1078 744 l 1146 763 q 1171 750 1171 763 q 1168 742 1171 746 q 1124 663 1163 729 q 1024 490 1086 597 q 918 308 961 382 q 959 310 940 308 q 989 314 978 313 q 1003 315 1000 315 q 1013 308 1013 315 q 1010 297 1013 303 m 1018 643 q 1022 654 1022 651 q 1018 658 1022 658 l 1007 654 q 848 521 928 599 q 728 394 768 443 l 686 344 q 679 328 679 336 q 694 315 679 318 q 821 307 739 308 l 1018 643 m 1179 1078 l 104 -22 q 36 -42 85 -42 q 21 -36 21 -42 l 28 -24 q 1101 1074 1032 1004 q 1151 1100 1128 1100 q 1183 1086 1183 1100 q 1179 1078 1183 1082 z "},"":{"ha":1089,"x_min":21,"x_max":1185,"o":"m 278 347 q 203 300 242 300 q 189 313 189 300 q 203 360 189 325 q 242 443 218 396 q 288 532 267 490 q 332 615 310 574 q 357 661 354 656 q 409 749 364 676 q 486 885 454 822 q 518 976 518 947 q 483 999 518 999 l 447 993 q 432 1001 432 993 l 439 1015 q 663 1060 511 1060 q 674 1047 674 1057 q 663 1029 674 1040 q 579 906 632 996 q 433 638 475 724 q 397 564 421 613 q 358 486 372 515 q 322 417 344 457 q 278 347 299 378 m 968 138 q 934 59 951 90 q 908 19 917 28 l 899 13 q 811 1 886 1 q 758 2 796 1 q 696 3 721 3 q 610 2 663 3 q 553 1 558 1 q 540 13 540 1 l 544 29 q 649 142 572 69 q 789 268 725 215 l 851 321 q 1081 608 1081 514 q 1060 657 1081 639 q 1007 675 1039 675 q 941 654 974 675 q 892 614 908 633 l 876 593 q 861 579 868 579 q 851 593 851 579 q 855 611 851 597 q 871 650 858 625 q 902 697 883 675 q 957 736 921 719 q 1039 753 993 753 q 1140 726 1094 753 q 1185 642 1185 699 q 1155 546 1185 594 q 1094 470 1125 497 q 1008 399 1064 443 q 905 315 939 343 q 815 239 871 288 q 734 158 760 190 q 708 107 708 126 q 721 94 708 96 q 789 89 744 89 q 947 143 908 89 q 961 153 954 153 q 971 144 971 153 q 968 138 971 140 m 1179 1078 l 104 -22 q 36 -42 85 -42 q 21 -36 21 -42 l 28 -24 q 1101 1074 1032 1004 q 1151 1100 1128 1100 q 1183 1086 1183 1100 q 1179 1078 1183 1082 z "},"":{"ha":1160,"x_min":88,"x_max":1279,"o":"m 1106 297 q 1010 233 1072 238 q 971 229 1007 233 l 874 47 q 822 1 857 21 q 758 -18 788 -18 q 746 -6 746 -18 l 747 1 q 872 228 760 32 l 846 228 l 654 233 q 635 250 635 235 l 639 264 q 682 311 654 282 q 788 419 710 340 q 937 561 867 497 q 1090 685 1007 625 q 1229 763 1174 744 l 1242 763 q 1267 750 1267 763 q 1264 742 1267 746 q 1220 663 1258 729 q 1119 490 1182 597 q 1014 308 1057 382 q 1055 310 1036 308 q 1085 314 1074 313 q 1099 315 1096 315 q 1108 308 1108 315 q 1106 297 1108 303 m 1114 643 q 1118 654 1118 651 q 1114 658 1118 658 l 1103 654 q 944 521 1024 599 q 822 394 864 443 l 782 344 q 775 328 775 336 q 790 315 775 318 q 917 307 835 308 l 1114 643 m 94 294 q 88 304 88 300 q 92 310 88 308 q 100 313 96 313 l 104 313 q 150 308 129 308 q 352 399 258 308 q 446 601 446 489 q 412 691 446 656 q 344 735 378 726 l 310 743 q 301 750 301 743 q 307 763 301 754 q 319 768 313 768 q 497 817 411 768 q 583 947 583 867 q 563 1003 583 982 q 507 1025 542 1025 q 457 1015 483 1025 q 415 994 431 1004 l 400 983 q 390 981 396 981 q 382 994 382 981 q 387 1004 382 996 q 405 1026 392 1013 q 436 1051 418 1039 q 485 1073 454 1064 q 554 1082 517 1082 q 647 1056 611 1082 q 682 981 682 1029 q 615 848 682 901 q 463 769 549 794 q 454 760 454 764 q 458 753 454 756 q 482 736 468 747 q 519 685 496 725 q 542 597 542 644 q 437 375 542 478 q 182 272 332 272 q 94 294 122 272 m 1275 1078 l 200 -22 q 132 -42 181 -42 q 117 -36 117 -42 l 124 -24 q 1197 1074 1128 1004 q 1247 1100 1224 1100 q 1279 1086 1279 1100 q 1275 1078 1279 1082 z "},"":{"ha":472,"x_min":-254,"x_max":568,"o":"m 560 576 q 519 522 546 544 q 468 500 493 500 l 463 500 q 426 547 426 503 q 436 589 426 568 q 476 644 449 622 q 528 665 503 665 l 532 665 q 568 617 568 661 q 560 576 568 600 m -53 -379 q -196 -340 -137 -379 q -254 -217 -254 -301 q -236 -136 -254 -175 q -193 -70 -218 -97 q -127 -15 -168 -43 q -55 31 -86 14 q 21 69 -24 47 q 127 130 78 97 q 206 190 176 163 q 257 240 235 217 q 288 278 279 264 l 296 290 q 341 360 317 328 q 381 408 365 393 l 394 422 q 414 432 404 432 q 426 417 425 432 q 428 393 428 407 q 247 156 428 258 q -11 -25 97 78 q -47 -60 -25 -37 q -103 -146 -68 -83 q -139 -262 -139 -208 q -136 -287 -139 -272 q -114 -322 -133 -301 q -61 -342 -94 -342 q 98 -258 33 -342 q 167 -69 163 -175 q 181 -56 168 -56 q 192 -58 188 -56 q 233 -156 233 -94 q 142 -315 233 -250 q -53 -379 50 -379 z "},"":{"ha":628,"x_min":1,"x_max":939,"o":"m 217 668 q 118 485 118 668 l 118 475 q 110 457 118 457 q 78 507 89 457 q 68 592 68 557 q 94 693 68 649 q 174 738 119 738 q 379 613 281 738 q 558 809 463 710 q 706 958 653 908 l 758 1010 q 900 1139 844 1139 q 914 1126 914 1139 q 908 1107 914 1118 q 685 565 786 867 q 557 -22 557 182 q 572 -115 557 -86 q 578 -129 578 -122 q 561 -139 578 -139 q 499 -120 524 -139 q 463 -71 474 -101 q 449 -16 453 -40 q 444 33 444 8 q 460 157 444 75 q 475 276 475 239 q 451 408 475 332 q 386 546 426 483 q 305 424 342 485 q 253 333 268 363 l 239 303 q 140 115 189 200 q 68 -3 92 31 l 44 -35 q 17 -53 29 -53 q 1 -21 1 -53 q 357 586 6 175 q 217 668 289 668 m 693 886 q 407 574 540 753 q 497 371 465 485 q 504 358 501 358 l 511 371 q 595 616 546 489 q 676 811 644 743 l 708 878 q 713 889 713 886 q 708 892 713 892 l 693 886 m 939 1190 q 932 1182 939 1182 q 914 1190 926 1182 q 868 1242 889 1207 q 839 1303 847 1276 l 831 1328 q 842 1342 831 1342 l 917 1342 q 932 1326 932 1342 l 932 1296 q 939 1190 932 1238 z "},"":{"ha":628,"x_min":1,"x_max":1076,"o":"m 217 668 q 118 485 118 668 l 118 475 q 110 457 118 457 q 78 507 89 457 q 68 592 68 557 q 94 693 68 649 q 174 738 119 738 q 379 613 281 738 q 558 809 463 710 q 706 958 653 908 l 758 1010 q 900 1139 844 1139 q 914 1126 914 1139 q 908 1107 914 1118 q 685 565 786 867 q 557 -22 557 182 q 572 -115 557 -86 q 578 -129 578 -122 q 561 -139 578 -139 q 499 -120 524 -139 q 463 -71 474 -101 q 449 -16 453 -40 q 444 33 444 8 q 460 157 444 75 q 475 276 475 239 q 451 408 475 332 q 386 546 426 483 q 305 424 342 485 q 253 333 268 363 l 239 303 q 140 115 189 200 q 68 -3 92 31 l 44 -35 q 17 -53 29 -53 q 1 -21 1 -53 q 357 586 6 175 q 217 668 289 668 m 693 886 q 407 574 540 753 q 497 371 465 485 q 504 358 501 358 l 511 371 q 595 616 546 489 q 676 811 644 743 l 708 878 q 713 889 713 886 q 708 892 713 892 l 693 886 m 1071 1300 q 981 1224 1033 1257 q 897 1181 929 1192 l 864 1169 q 849 1175 849 1169 q 854 1188 849 1179 q 896 1229 868 1199 q 944 1283 924 1260 l 965 1308 q 992 1321 974 1321 l 1060 1321 q 1076 1311 1076 1321 q 1071 1300 1076 1306 z "},"":{"ha":628,"x_min":1,"x_max":1033,"o":"m 217 668 q 118 485 118 668 l 118 475 q 110 457 118 457 q 78 507 89 457 q 68 592 68 557 q 94 693 68 649 q 174 738 119 738 q 379 613 281 738 q 558 809 463 710 q 706 958 653 908 l 758 1010 q 900 1139 844 1139 q 914 1126 914 1139 q 908 1107 914 1118 q 685 565 786 867 q 557 -22 557 182 q 572 -115 557 -86 q 578 -129 578 -122 q 561 -139 578 -139 q 499 -120 524 -139 q 463 -71 474 -101 q 449 -16 453 -40 q 444 33 444 8 q 460 157 444 75 q 475 276 475 239 q 451 408 475 332 q 386 546 426 483 q 305 424 342 485 q 253 333 268 363 l 239 303 q 140 115 189 200 q 68 -3 92 31 l 44 -35 q 17 -53 29 -53 q 1 -21 1 -53 q 357 586 6 175 q 217 668 289 668 m 693 886 q 407 574 540 753 q 497 371 465 485 q 504 358 501 358 l 511 371 q 595 616 546 489 q 676 811 644 743 l 708 878 q 713 889 713 886 q 708 892 713 892 l 693 886 m 939 1261 q 935 1267 938 1267 l 926 1261 q 821 1185 881 1215 q 738 1156 761 1156 q 728 1161 728 1156 l 733 1174 q 775 1215 747 1185 q 824 1269 803 1244 l 844 1294 q 871 1307 853 1307 l 1022 1307 q 1033 1297 1033 1307 q 1031 1275 1033 1296 q 1025 1222 1028 1254 q 1022 1161 1022 1189 q 1014 1147 1022 1147 q 969 1188 993 1147 q 939 1261 946 1229 z "},"":{"ha":628,"x_min":1,"x_max":1113,"o":"m 1110 1286 q 968 1176 1047 1176 q 886 1208 933 1176 q 803 1239 839 1239 l 771 1233 q 757 1231 760 1231 q 747 1240 747 1231 l 750 1253 q 863 1299 785 1299 q 938 1286 892 1299 q 1007 1274 983 1274 q 1090 1301 1056 1274 l 1099 1301 q 1113 1294 1113 1301 q 1110 1286 1113 1292 m 217 668 q 118 485 118 668 l 118 475 q 110 457 118 457 q 78 507 89 457 q 68 592 68 557 q 94 693 68 649 q 174 738 119 738 q 379 613 281 738 q 558 809 463 710 q 706 958 653 908 l 758 1010 q 900 1139 844 1139 q 914 1126 914 1139 q 908 1107 914 1118 q 685 565 786 867 q 557 -22 557 182 q 572 -115 557 -86 q 578 -129 578 -122 q 561 -139 578 -139 q 499 -120 524 -139 q 463 -71 474 -101 q 449 -16 453 -40 q 444 33 444 8 q 460 157 444 75 q 475 276 475 239 q 451 408 475 332 q 386 546 426 483 q 305 424 342 485 q 253 333 268 363 l 239 303 q 140 115 189 200 q 68 -3 92 31 l 44 -35 q 17 -53 29 -53 q 1 -21 1 -53 q 357 586 6 175 q 217 668 289 668 m 693 886 q 407 574 540 753 q 497 371 465 485 q 504 358 501 358 l 511 371 q 595 616 546 489 q 676 811 644 743 l 708 878 q 713 889 713 886 q 708 892 713 892 l 693 886 z "},"":{"ha":628,"x_min":1,"x_max":1069,"o":"m 217 668 q 118 485 118 668 l 118 475 q 110 457 118 457 q 78 507 89 457 q 68 592 68 557 q 94 693 68 649 q 174 738 119 738 q 379 613 281 738 q 558 809 463 710 q 706 958 653 908 l 758 1010 q 900 1139 844 1139 q 914 1126 914 1139 q 908 1107 914 1118 q 685 565 786 867 q 557 -22 557 182 q 572 -115 557 -86 q 578 -129 578 -122 q 561 -139 578 -139 q 499 -120 524 -139 q 463 -71 474 -101 q 449 -16 453 -40 q 444 33 444 8 q 460 157 444 75 q 475 276 475 239 q 451 408 475 332 q 386 546 426 483 q 305 424 342 485 q 253 333 268 363 l 239 303 q 140 115 189 200 q 68 -3 92 31 l 44 -35 q 17 -53 29 -53 q 1 -21 1 -53 q 357 586 6 175 q 217 668 289 668 m 693 886 q 407 574 540 753 q 497 371 465 485 q 504 358 501 358 l 511 371 q 595 616 546 489 q 676 811 644 743 l 708 878 q 713 889 713 886 q 708 892 713 892 l 693 886 m 761 1175 q 726 1214 726 1175 q 754 1280 726 1249 q 811 1311 782 1311 q 846 1274 846 1311 q 819 1207 846 1239 q 761 1175 793 1175 m 985 1175 q 950 1214 950 1175 q 978 1281 950 1250 q 1036 1311 1006 1311 q 1069 1272 1069 1311 q 1043 1206 1069 1238 q 985 1175 1017 1175 z "},"":{"ha":628,"x_min":1,"x_max":1017,"o":"m 217 668 q 118 485 118 668 l 118 475 q 110 457 118 457 q 78 507 89 457 q 68 592 68 557 q 94 693 68 649 q 174 738 119 738 q 379 613 281 738 q 558 809 463 710 q 706 958 653 908 l 758 1010 q 900 1139 844 1139 q 914 1126 914 1139 q 908 1107 914 1118 q 685 565 786 867 q 557 -22 557 182 q 572 -115 557 -86 q 578 -129 578 -122 q 561 -139 578 -139 q 499 -120 524 -139 q 463 -71 474 -101 q 449 -16 453 -40 q 444 33 444 8 q 460 157 444 75 q 475 276 475 239 q 451 408 475 332 q 386 546 426 483 q 305 424 342 485 q 253 333 268 363 l 239 303 q 140 115 189 200 q 68 -3 92 31 l 44 -35 q 17 -53 29 -53 q 1 -21 1 -53 q 357 586 6 175 q 217 668 289 668 m 693 886 q 407 574 540 753 q 497 371 465 485 q 504 358 501 358 l 511 371 q 595 616 546 489 q 676 811 644 743 l 708 878 q 713 889 713 886 q 708 892 713 892 l 693 886 m 906 1169 q 871 1184 883 1169 q 858 1222 858 1199 q 896 1303 858 1265 q 968 1342 933 1342 q 1003 1327 990 1342 q 1017 1289 1017 1313 q 981 1208 1017 1247 q 906 1169 944 1169 m 951 1296 q 919 1278 935 1296 q 903 1239 903 1260 q 922 1215 903 1215 q 956 1235 939 1217 q 972 1272 972 1253 q 951 1296 972 1296 z "},"":{"ha":1100,"x_min":1,"x_max":1433,"o":"m 1056 575 q 864 571 969 571 l 847 571 q 614 89 651 215 q 608 58 608 72 q 682 17 608 17 q 749 28 713 17 q 837 70 785 40 q 954 165 889 100 q 1088 324 1019 231 q 1113 339 1096 339 q 1124 328 1124 339 q 1121 317 1124 325 q 951 11 1054 146 q 910 -14 943 -8 q 669 -19 796 -19 q 557 -18 593 -19 q 572 -115 557 -86 q 578 -129 578 -122 q 561 -139 578 -139 q 499 -120 524 -139 q 463 -71 474 -101 q 449 -16 453 -40 q 444 33 444 8 q 460 157 444 75 q 475 276 475 239 q 451 408 475 332 q 386 546 426 483 q 305 424 342 485 q 253 333 268 363 l 239 303 q 140 115 189 200 q 68 -3 92 31 l 44 -35 q 17 -53 29 -53 q 1 -21 1 -53 q 357 586 6 175 q 217 668 289 668 q 118 485 118 668 l 118 475 q 110 457 118 457 q 78 507 89 457 q 68 592 68 557 q 94 693 68 649 q 174 738 119 738 q 379 613 281 738 q 558 809 463 710 q 706 958 653 908 l 758 1010 q 900 1139 844 1139 q 914 1126 914 1139 q 908 1107 914 1118 q 685 565 786 867 q 644 439 657 482 q 773 651 704 540 q 881 822 842 763 l 918 883 q 967 1000 967 961 q 963 1018 967 1008 q 960 1031 960 1028 q 979 1046 960 1046 q 1229 1054 1096 1054 q 1413 1047 1343 1054 q 1433 1029 1433 1047 q 1429 1014 1433 1025 q 1336 833 1383 899 q 1321 826 1329 826 q 1308 844 1308 826 q 1315 901 1315 871 q 1201 1015 1315 1015 l 1196 1015 q 1094 976 1125 1015 q 906 675 1024 889 q 871 614 892 651 q 1079 615 936 615 q 1093 607 1093 615 q 1081 588 1093 599 q 1056 575 1069 576 m 693 886 q 407 574 540 753 q 497 371 465 485 q 504 358 501 358 l 511 371 q 595 616 546 489 q 676 811 644 743 l 708 878 q 713 889 713 886 q 708 892 713 892 l 693 886 z "},"":{"ha":608,"x_min":39,"x_max":924,"o":"m 644 333 q 453 101 572 211 q 211 -33 335 -10 q 188 -65 188 -46 q 194 -87 188 -72 q 201 -112 201 -101 q 179 -159 201 -140 q 126 -178 157 -178 q 78 -153 83 -178 q 88 -143 78 -143 q 101 -146 92 -143 q 117 -149 111 -149 q 143 -140 131 -149 q 156 -115 156 -131 q 148 -97 156 -107 q 140 -79 140 -86 q 147 -62 140 -71 q 160 -47 153 -53 l 167 -43 q 169 -37 169 -40 q 162 -38 167 -37 q 154 -39 157 -39 q 39 133 39 -39 q 166 590 39 351 q 490 981 293 829 q 524 1003 503 990 q 605 1040 546 1017 q 713 1063 664 1063 q 778 1051 750 1063 q 785 1050 781 1050 q 800 1060 794 1050 q 893 1083 829 1083 l 904 1083 q 924 1064 924 1083 q 878 967 924 1033 q 794 854 833 900 q 725 775 756 808 q 653 721 674 721 q 643 735 643 721 q 722 925 643 783 q 736 947 724 928 q 754 980 749 967 q 760 1004 760 993 q 722 1028 760 1028 q 655 1008 692 1028 q 597 969 618 989 l 575 950 q 309 591 428 814 q 190 186 190 368 q 274 54 190 54 q 299 57 285 54 q 349 76 314 60 q 419 120 385 92 q 498 208 453 149 q 583 346 543 267 q 613 409 594 368 q 641 469 631 450 q 658 489 651 489 q 674 472 668 489 q 679 442 679 454 q 644 333 679 390 z "},"":{"ha":618,"x_min":-62,"x_max":951,"o":"m 574 575 q 382 571 488 571 l 365 571 q 132 89 169 215 q 126 58 126 72 q 200 17 126 17 q 267 28 231 17 q 355 70 303 40 q 472 165 407 100 q 606 324 538 231 q 631 339 614 339 q 642 328 642 339 q 639 317 642 325 q 469 11 572 146 q 428 -14 461 -8 q 188 -19 314 -19 q -46 -10 43 -19 q -62 10 -62 -8 q -57 32 -62 21 q 242 572 22 210 l 179 574 q 161 585 161 574 q 173 605 161 596 q 197 614 185 614 l 268 614 l 436 883 q 457 951 457 921 q 448 988 457 972 q 429 1008 439 1003 l 419 1014 q 407 1029 407 1021 q 412 1039 407 1035 q 422 1044 417 1043 l 428 1046 q 725 1054 571 1054 q 931 1047 853 1054 q 951 1029 951 1047 q 947 1014 951 1025 q 854 833 901 899 q 839 826 847 826 q 826 844 826 826 q 833 901 833 871 q 719 1015 833 1015 l 714 1015 q 613 976 643 1015 q 424 675 542 889 q 389 615 410 651 l 597 615 q 611 607 611 615 q 599 588 611 599 q 574 575 588 576 m 811 1114 q 804 1106 811 1106 q 786 1114 799 1106 q 740 1165 761 1131 q 711 1225 719 1200 l 703 1251 q 714 1265 703 1265 l 789 1265 q 804 1250 804 1265 l 804 1219 q 811 1114 804 1161 z "},"":{"ha":618,"x_min":-62,"x_max":951,"o":"m 574 575 q 382 571 488 571 l 365 571 q 132 89 169 215 q 126 58 126 72 q 200 17 126 17 q 267 28 231 17 q 355 70 303 40 q 472 165 407 100 q 606 324 538 231 q 631 339 614 339 q 642 328 642 339 q 639 317 642 325 q 469 11 572 146 q 428 -14 461 -8 q 188 -19 314 -19 q -46 -10 43 -19 q -62 10 -62 -8 q -57 32 -62 21 q 242 572 22 210 l 179 574 q 161 585 161 574 q 173 605 161 596 q 197 614 185 614 l 268 614 l 436 883 q 457 951 457 921 q 448 988 457 972 q 429 1008 439 1003 l 419 1014 q 407 1029 407 1021 q 412 1039 407 1035 q 422 1044 417 1043 l 428 1046 q 725 1054 571 1054 q 931 1047 853 1054 q 951 1029 951 1047 q 947 1014 951 1025 q 854 833 901 899 q 839 826 847 826 q 826 844 826 826 q 833 901 833 871 q 719 1015 833 1015 l 714 1015 q 613 976 643 1015 q 424 675 542 889 q 389 615 410 651 l 597 615 q 611 607 611 615 q 599 588 611 599 q 574 575 588 576 m 906 1251 q 816 1176 868 1208 q 731 1132 764 1143 l 699 1121 q 683 1126 683 1121 q 689 1139 683 1131 q 731 1180 703 1150 q 779 1235 758 1210 l 800 1260 q 826 1272 808 1272 l 894 1272 q 911 1263 911 1272 q 906 1251 911 1257 z "},"":{"ha":618,"x_min":-62,"x_max":951,"o":"m 574 575 q 382 571 488 571 l 365 571 q 132 89 169 215 q 126 58 126 72 q 200 17 126 17 q 267 28 231 17 q 355 70 303 40 q 472 165 407 100 q 606 324 538 231 q 631 339 614 339 q 642 328 642 339 q 639 317 642 325 q 469 11 572 146 q 428 -14 461 -8 q 188 -19 314 -19 q -46 -10 43 -19 q -62 10 -62 -8 q -57 32 -62 21 q 242 572 22 210 l 179 574 q 161 585 161 574 q 173 605 161 596 q 197 614 185 614 l 268 614 l 436 883 q 457 951 457 921 q 448 988 457 972 q 429 1008 439 1003 l 419 1014 q 407 1029 407 1021 q 412 1039 407 1035 q 422 1044 417 1043 l 428 1046 q 725 1054 571 1054 q 931 1047 853 1054 q 951 1029 951 1047 q 947 1014 951 1025 q 854 833 901 899 q 839 826 847 826 q 826 844 826 826 q 833 901 833 871 q 719 1015 833 1015 l 714 1015 q 613 976 643 1015 q 424 675 542 889 q 389 615 410 651 l 597 615 q 611 607 611 615 q 599 588 611 599 q 574 575 588 576 m 779 1208 q 775 1214 778 1214 l 767 1208 q 661 1133 721 1163 q 578 1103 601 1103 q 568 1108 568 1103 l 574 1121 q 615 1162 588 1132 q 664 1217 643 1192 l 685 1242 q 711 1254 693 1254 l 863 1254 q 874 1244 874 1254 q 871 1222 874 1243 q 865 1169 868 1201 q 863 1108 863 1136 q 854 1094 863 1094 q 810 1135 833 1094 q 779 1208 786 1176 z "},"":{"ha":618,"x_min":-62,"x_max":951,"o":"m 574 575 q 382 571 488 571 l 365 571 q 132 89 169 215 q 126 58 126 72 q 200 17 126 17 q 267 28 231 17 q 355 70 303 40 q 472 165 407 100 q 606 324 538 231 q 631 339 614 339 q 642 328 642 339 q 639 317 642 325 q 469 11 572 146 q 428 -14 461 -8 q 188 -19 314 -19 q -46 -10 43 -19 q -62 10 -62 -8 q -57 32 -62 21 q 242 572 22 210 l 179 574 q 161 585 161 574 q 173 605 161 596 q 197 614 185 614 l 268 614 l 436 883 q 457 951 457 921 q 448 988 457 972 q 429 1008 439 1003 l 419 1014 q 407 1029 407 1021 q 412 1039 407 1035 q 422 1044 417 1043 l 428 1046 q 725 1054 571 1054 q 931 1047 853 1054 q 951 1029 951 1047 q 947 1014 951 1025 q 854 833 901 899 q 839 826 847 826 q 826 844 826 826 q 833 901 833 871 q 719 1015 833 1015 l 714 1015 q 613 976 643 1015 q 424 675 542 889 q 389 615 410 651 l 597 615 q 611 607 611 615 q 599 588 611 599 q 574 575 588 576 m 597 1110 q 563 1149 563 1110 q 590 1215 563 1183 q 647 1246 618 1246 q 682 1208 682 1246 q 656 1142 682 1174 q 597 1110 629 1110 m 821 1110 q 786 1149 786 1110 q 814 1215 786 1185 q 872 1246 842 1246 q 906 1207 906 1246 q 879 1141 906 1172 q 821 1110 853 1110 z "},"":{"ha":315,"x_min":-110,"x_max":740,"o":"m 725 1028 q 601 867 674 988 q 440 574 528 747 q 349 394 351 400 q 314 331 339 378 q 274 256 289 283 q 231 183 260 229 q 181 107 203 136 q 126 42 158 78 q 65 -13 94 7 q -3 -47 35 -33 q -78 -61 -40 -61 q -110 -49 -110 -61 q -106 -40 -110 -44 q -97 -33 -101 -36 l -93 -32 q 54 129 -33 6 q 200 358 142 253 l 257 463 q 383 687 321 585 q 487 846 444 789 q 562 942 529 903 q 611 996 594 982 l 626 1010 q 631 1018 631 1014 q 589 1031 631 1031 q 503 1008 544 1031 q 433 954 461 986 q 382 890 404 922 q 350 835 360 857 l 339 813 q 324 790 333 790 q 300 851 300 790 q 349 978 300 926 q 467 1049 399 1029 q 617 1069 536 1069 q 724 1061 665 1069 q 740 1049 740 1058 q 725 1028 740 1039 m 713 1117 q 706 1108 713 1108 q 688 1117 700 1108 q 642 1168 663 1133 q 613 1228 621 1203 l 604 1254 q 615 1268 604 1268 l 690 1268 q 706 1253 706 1268 l 706 1222 q 713 1117 706 1164 z "},"":{"ha":315,"x_min":-110,"x_max":790,"o":"m 725 1028 q 601 867 674 988 q 440 574 528 747 q 349 394 351 400 q 314 331 339 378 q 274 256 289 283 q 231 183 260 229 q 181 107 203 136 q 126 42 158 78 q 65 -13 94 7 q -3 -47 35 -33 q -78 -61 -40 -61 q -110 -49 -110 -61 q -106 -40 -110 -44 q -97 -33 -101 -36 l -93 -32 q 54 129 -33 6 q 200 358 142 253 l 257 463 q 383 687 321 585 q 487 846 444 789 q 562 942 529 903 q 611 996 594 982 l 626 1010 q 631 1018 631 1014 q 589 1031 631 1031 q 503 1008 544 1031 q 433 954 461 986 q 382 890 404 922 q 350 835 360 857 l 339 813 q 324 790 333 790 q 300 851 300 790 q 349 978 300 926 q 467 1049 399 1029 q 617 1069 536 1069 q 724 1061 665 1069 q 740 1049 740 1058 q 725 1028 740 1039 m 785 1233 q 695 1158 747 1190 q 611 1114 643 1125 l 578 1103 q 563 1108 563 1103 q 568 1121 563 1113 q 610 1162 582 1132 q 658 1217 638 1192 l 679 1242 q 706 1254 688 1254 l 774 1254 q 790 1244 790 1254 q 785 1233 790 1239 z "},"":{"ha":315,"x_min":-110,"x_max":769,"o":"m 725 1028 q 601 867 674 988 q 440 574 528 747 q 349 394 351 400 q 314 331 339 378 q 274 256 289 283 q 231 183 260 229 q 181 107 203 136 q 126 42 158 78 q 65 -13 94 7 q -3 -47 35 -33 q -78 -61 -40 -61 q -110 -49 -110 -61 q -106 -40 -110 -44 q -97 -33 -101 -36 l -93 -32 q 54 129 -33 6 q 200 358 142 253 l 257 463 q 383 687 321 585 q 487 846 444 789 q 562 942 529 903 q 611 996 594 982 l 626 1010 q 631 1018 631 1014 q 589 1031 631 1031 q 503 1008 544 1031 q 433 954 461 986 q 382 890 404 922 q 350 835 360 857 l 339 813 q 324 790 333 790 q 300 851 300 790 q 349 978 300 926 q 467 1049 399 1029 q 617 1069 536 1069 q 724 1061 665 1069 q 740 1049 740 1058 q 725 1028 740 1039 m 675 1217 q 671 1222 674 1222 l 663 1217 q 557 1141 617 1171 q 474 1111 497 1111 q 464 1117 464 1111 l 469 1129 q 511 1171 483 1140 q 560 1225 539 1201 l 581 1250 q 607 1263 589 1263 l 758 1263 q 769 1253 769 1263 q 767 1231 769 1251 q 761 1177 764 1210 q 758 1117 758 1144 q 750 1103 758 1103 q 706 1144 729 1103 q 675 1217 682 1185 z "},"":{"ha":315,"x_min":-110,"x_max":825,"o":"m 725 1028 q 601 867 674 988 q 440 574 528 747 q 349 394 351 400 q 314 331 339 378 q 274 256 289 283 q 231 183 260 229 q 181 107 203 136 q 126 42 158 78 q 65 -13 94 7 q -3 -47 35 -33 q -78 -61 -40 -61 q -110 -49 -110 -61 q -106 -40 -110 -44 q -97 -33 -101 -36 l -93 -32 q 54 129 -33 6 q 200 358 142 253 l 257 463 q 383 687 321 585 q 487 846 444 789 q 562 942 529 903 q 611 996 594 982 l 626 1010 q 631 1018 631 1014 q 589 1031 631 1031 q 503 1008 544 1031 q 433 954 461 986 q 382 890 404 922 q 350 835 360 857 l 339 813 q 324 790 333 790 q 300 851 300 790 q 349 978 300 926 q 467 1049 399 1029 q 617 1069 536 1069 q 724 1061 665 1069 q 740 1049 740 1058 q 725 1028 740 1039 m 517 1114 q 482 1153 482 1114 q 510 1219 482 1188 q 567 1250 538 1250 q 601 1213 601 1250 q 575 1146 601 1178 q 517 1114 549 1114 m 740 1114 q 706 1153 706 1114 q 733 1219 706 1189 q 792 1250 761 1250 q 825 1211 825 1250 q 799 1145 825 1176 q 740 1114 772 1114 z "},"":{"ha":654,"x_min":-68,"x_max":779,"o":"m 422 425 l 278 425 q 89 35 133 156 q 88 25 88 31 q 99 10 88 11 q 124 8 107 8 q 376 126 246 8 q 590 422 506 244 q 675 758 675 599 q 608 953 675 875 q 428 1032 542 1032 q 331 1000 369 1032 q 293 907 293 968 q 322 807 293 858 q 325 790 325 799 q 317 779 325 779 q 304 783 313 779 q 233 853 272 800 q 194 963 194 906 q 228 1033 194 1007 q 300 1067 261 1060 q 386 1075 339 1075 q 673 963 567 1075 q 779 657 779 850 q 722 417 779 540 q 571 194 665 294 q 340 31 476 94 q 58 -33 204 -33 q 4 -31 31 -33 q -33 -28 -22 -29 l -46 -25 q -68 -3 -68 -19 l -64 11 q 146 425 6 183 l 50 425 q 26 439 26 425 q 44 469 26 450 q 76 488 61 488 l 183 488 q 454 871 346 751 q 486 892 474 892 q 496 875 496 892 q 494 861 496 864 q 406 657 482 807 q 311 488 364 583 l 447 488 q 471 475 471 488 q 455 444 471 461 q 422 425 439 428 z "},"":{"ha":618,"x_min":-108,"x_max":1113,"o":"m 931 843 q 671 443 792 660 q 499 101 550 226 l 447 -24 q 408 -71 425 -71 q 394 -61 400 -71 q 385 -42 388 -51 l 382 -32 q 364 204 364 81 q 378 491 364 303 q 392 765 392 679 q 386 779 392 779 q 378 775 383 779 q 371 767 374 771 l 368 763 q 244 541 314 685 q 133 293 174 397 q 70 150 103 214 q 13 50 38 86 q -33 -10 -12 14 q -65 -43 -54 -35 l -76 -51 q -100 -64 -93 -64 q -108 -50 -108 -64 q 293 739 -108 81 q 353 839 326 793 q 390 903 381 885 l 400 922 q 489 1085 458 1085 q 510 1015 510 1085 q 519 453 519 681 q 518 318 519 354 q 531 296 521 296 q 558 328 542 296 q 746 694 707 611 q 1093 1093 933 1093 q 1113 1082 1113 1093 q 1099 1060 1113 1074 q 931 843 1063 1018 m 965 1203 q 824 1093 903 1093 q 742 1124 789 1093 q 658 1156 694 1156 l 626 1150 q 613 1147 615 1147 q 603 1157 603 1147 l 606 1169 q 718 1215 640 1215 q 793 1203 747 1215 q 863 1190 839 1190 q 946 1218 911 1190 l 954 1218 q 968 1211 968 1218 q 965 1203 968 1208 z "},"":{"ha":661,"x_min":0,"x_max":893,"o":"m 721 925 q 640 883 692 925 q 557 806 589 842 q 519 763 525 771 q 493 742 504 742 q 483 757 483 742 q 486 772 483 761 q 620 965 518 868 q 813 1061 722 1061 q 893 938 893 1061 q 863 765 893 867 q 811 615 832 663 q 776 539 790 567 q 693 392 739 465 q 581 239 647 319 q 445 98 515 158 q 289 -2 375 38 q 119 -42 203 -42 q 0 126 0 -42 q 54 408 0 264 q 186 658 108 551 q 347 839 264 764 q 492 933 429 914 q 510 936 499 936 q 521 929 521 936 q 510 908 521 921 q 415 797 469 869 q 295 619 360 724 q 186 386 231 515 q 142 143 142 257 q 221 24 142 24 q 589 371 389 24 q 753 882 753 653 q 721 925 753 925 m 821 1114 q 814 1106 821 1106 q 796 1114 808 1106 q 750 1165 771 1131 q 721 1225 729 1200 l 713 1251 q 724 1265 713 1265 l 799 1265 q 814 1250 814 1265 l 814 1219 q 821 1114 814 1161 z "},"":{"ha":661,"x_min":0,"x_max":893,"o":"m 721 925 q 640 883 692 925 q 557 806 589 842 q 519 763 525 771 q 493 742 504 742 q 483 757 483 742 q 486 772 483 761 q 620 965 518 868 q 813 1061 722 1061 q 893 938 893 1061 q 863 765 893 867 q 811 615 832 663 q 776 539 790 567 q 693 392 739 465 q 581 239 647 319 q 445 98 515 158 q 289 -2 375 38 q 119 -42 203 -42 q 0 126 0 -42 q 54 408 0 264 q 186 658 108 551 q 347 839 264 764 q 492 933 429 914 q 510 936 499 936 q 521 929 521 936 q 510 908 521 921 q 415 797 469 869 q 295 619 360 724 q 186 386 231 515 q 142 143 142 257 q 221 24 142 24 q 589 371 389 24 q 753 882 753 653 q 721 925 753 925 m 838 1208 q 748 1133 800 1165 q 664 1089 696 1100 l 631 1078 q 615 1083 615 1078 q 621 1096 615 1088 q 663 1137 635 1107 q 711 1192 690 1167 l 732 1217 q 758 1229 740 1229 l 826 1229 q 843 1219 843 1229 q 838 1208 843 1214 z "},"":{"ha":661,"x_min":0,"x_max":893,"o":"m 721 925 q 640 883 692 925 q 557 806 589 842 q 519 763 525 771 q 493 742 504 742 q 483 757 483 742 q 486 772 483 761 q 620 965 518 868 q 813 1061 722 1061 q 893 938 893 1061 q 863 765 893 867 q 811 615 832 663 q 776 539 790 567 q 693 392 739 465 q 581 239 647 319 q 445 98 515 158 q 289 -2 375 38 q 119 -42 203 -42 q 0 126 0 -42 q 54 408 0 264 q 186 658 108 551 q 347 839 264 764 q 492 933 429 914 q 510 936 499 936 q 521 929 521 936 q 510 908 521 921 q 415 797 469 869 q 295 619 360 724 q 186 386 231 515 q 142 143 142 257 q 221 24 142 24 q 589 371 389 24 q 753 882 753 653 q 721 925 753 925 m 781 1206 q 776 1211 779 1211 l 768 1206 q 663 1130 722 1160 q 579 1100 603 1100 q 569 1106 569 1100 l 575 1118 q 617 1160 589 1129 q 665 1214 644 1190 l 686 1239 q 713 1251 694 1251 l 864 1251 q 875 1242 875 1251 q 872 1219 875 1240 q 867 1166 869 1199 q 864 1106 864 1133 q 856 1092 864 1092 q 811 1133 835 1092 q 781 1206 788 1174 z "},"":{"ha":661,"x_min":0,"x_max":968,"o":"m 965 1203 q 824 1093 903 1093 q 742 1124 789 1093 q 658 1156 694 1156 l 626 1150 q 613 1147 615 1147 q 603 1157 603 1147 l 606 1169 q 718 1215 640 1215 q 793 1203 747 1215 q 863 1190 839 1190 q 946 1218 911 1190 l 954 1218 q 968 1211 968 1218 q 965 1203 968 1208 m 721 925 q 640 883 692 925 q 557 806 589 842 q 519 763 525 771 q 493 742 504 742 q 483 757 483 742 q 486 772 483 761 q 620 965 518 868 q 813 1061 722 1061 q 893 938 893 1061 q 863 765 893 867 q 811 615 832 663 q 776 539 790 567 q 693 392 739 465 q 581 239 647 319 q 445 98 515 158 q 289 -2 375 38 q 119 -42 203 -42 q 0 126 0 -42 q 54 408 0 264 q 186 658 108 551 q 347 839 264 764 q 492 933 429 914 q 510 936 499 936 q 521 929 521 936 q 510 908 521 921 q 415 797 469 869 q 295 619 360 724 q 186 386 231 515 q 142 143 142 257 q 221 24 142 24 q 589 371 389 24 q 753 882 753 653 q 721 925 753 925 z "},"":{"ha":661,"x_min":0,"x_max":933,"o":"m 721 925 q 640 883 692 925 q 557 806 589 842 q 519 763 525 771 q 493 742 504 742 q 483 757 483 742 q 486 772 483 761 q 620 965 518 868 q 813 1061 722 1061 q 893 938 893 1061 q 863 765 893 867 q 811 615 832 663 q 776 539 790 567 q 693 392 739 465 q 581 239 647 319 q 445 98 515 158 q 289 -2 375 38 q 119 -42 203 -42 q 0 126 0 -42 q 54 408 0 264 q 186 658 108 551 q 347 839 264 764 q 492 933 429 914 q 510 936 499 936 q 521 929 521 936 q 510 908 521 921 q 415 797 469 869 q 295 619 360 724 q 186 386 231 515 q 142 143 142 257 q 221 24 142 24 q 589 371 389 24 q 753 882 753 653 q 721 925 753 925 m 625 1089 q 590 1128 590 1089 q 618 1194 590 1163 q 675 1225 646 1225 q 710 1188 710 1225 q 683 1121 710 1153 q 625 1089 657 1089 m 849 1089 q 814 1128 814 1089 q 842 1194 814 1164 q 900 1225 869 1225 q 933 1186 933 1225 q 907 1120 933 1151 q 849 1089 881 1089 z "},"":{"ha":522,"x_min":32,"x_max":715,"o":"m 446 511 l 492 260 l 492 254 q 438 226 489 226 q 414 231 422 226 q 406 242 406 236 l 404 246 l 368 443 l 138 244 q 68 225 115 225 q 32 236 32 225 q 38 246 32 238 l 354 518 l 317 728 l 317 733 q 371 763 319 763 q 394 758 386 763 q 404 747 403 753 l 406 743 l 433 585 l 613 739 q 667 757 635 757 q 715 746 715 757 q 711 739 715 743 l 446 511 z "},"":{"ha":661,"x_min":-114,"x_max":1049,"o":"m 1044 1078 l 893 921 q 861 756 890 851 q 809 608 832 660 q 776 539 786 557 q 693 392 739 465 q 581 239 647 319 q 445 98 515 158 q 289 -2 375 38 q 119 -42 203 -42 q 17 25 46 -42 l -31 -22 q -99 -42 -50 -42 q -114 -36 -114 -42 l -107 -24 q 1 88 -64 19 q 0 126 0 100 q 54 408 0 264 q 186 658 108 551 q 347 839 264 764 q 492 933 429 914 q 510 936 499 936 q 521 929 521 936 q 510 908 521 921 q 299 626 418 819 q 149 239 179 433 q 751 856 467 563 q 753 882 753 864 q 721 925 753 925 q 640 883 692 925 q 557 806 589 842 q 519 763 525 771 q 493 742 504 742 q 483 757 483 742 q 486 772 483 761 q 620 965 518 868 q 813 1061 722 1061 q 888 993 871 1061 l 967 1074 q 1017 1100 993 1100 q 1049 1086 1049 1100 q 1044 1078 1049 1082 m 589 371 q 743 768 714 589 l 142 153 l 142 143 q 221 24 142 24 q 589 371 389 24 z "},"":{"ha":657,"x_min":0,"x_max":1024,"o":"m 488 -133 q 475 -149 488 -149 q 458 -143 469 -149 q 404 17 404 -85 q 438 197 404 97 q 506 357 472 297 l 539 417 q 542 426 542 421 q 539 429 542 429 l 525 424 q 296 157 403 265 q 131 10 189 49 q 46 -28 74 -28 q 0 46 0 -28 q 61 292 0 142 q 213 594 122 443 q 357 825 304 744 q 443 953 410 906 q 514 1019 475 996 q 581 1042 553 1042 q 601 1029 601 1042 q 593 1008 601 1022 q 513 875 578 975 q 440 752 483 828 q 308 497 396 676 q 189 207 219 318 q 186 182 186 194 q 206 151 186 151 q 254 176 221 151 q 270 190 260 181 q 320 239 281 199 q 406 332 360 279 q 528 483 451 385 q 688 700 604 582 q 903 1007 838 947 q 1000 1042 940 1042 q 1024 1029 1024 1042 q 1015 1004 1024 1018 q 942 888 978 938 q 867 769 913 843 q 719 508 821 694 q 561 186 617 322 q 483 -92 483 10 q 485 -116 483 -101 q 488 -133 488 -131 m 821 1085 q 814 1076 821 1076 q 796 1085 808 1076 q 750 1136 771 1101 q 721 1197 729 1171 l 713 1222 q 724 1236 713 1236 l 799 1236 q 814 1221 814 1236 l 814 1190 q 821 1085 814 1132 z "},"":{"ha":657,"x_min":0,"x_max":1024,"o":"m 488 -133 q 475 -149 488 -149 q 458 -143 469 -149 q 404 17 404 -85 q 438 197 404 97 q 506 357 472 297 l 539 417 q 542 426 542 421 q 539 429 542 429 l 525 424 q 296 157 403 265 q 131 10 189 49 q 46 -28 74 -28 q 0 46 0 -28 q 61 292 0 142 q 213 594 122 443 q 357 825 304 744 q 443 953 410 906 q 514 1019 475 996 q 581 1042 553 1042 q 601 1029 601 1042 q 593 1008 601 1022 q 513 875 578 975 q 440 752 483 828 q 308 497 396 676 q 189 207 219 318 q 186 182 186 194 q 206 151 186 151 q 254 176 221 151 q 270 190 260 181 q 320 239 281 199 q 406 332 360 279 q 528 483 451 385 q 688 700 604 582 q 903 1007 838 947 q 1000 1042 940 1042 q 1024 1029 1024 1042 q 1015 1004 1024 1018 q 942 888 978 938 q 867 769 913 843 q 719 508 821 694 q 561 186 617 322 q 483 -92 483 10 q 485 -116 483 -101 q 488 -133 488 -131 m 960 1208 q 870 1133 922 1165 q 786 1089 818 1100 l 753 1078 q 738 1083 738 1078 q 743 1096 738 1088 q 785 1138 757 1107 q 833 1192 813 1168 l 854 1217 q 881 1229 863 1229 l 949 1229 q 965 1219 965 1229 q 960 1208 965 1214 z "},"":{"ha":657,"x_min":0,"x_max":1024,"o":"m 488 -133 q 475 -149 488 -149 q 458 -143 469 -149 q 404 17 404 -85 q 438 197 404 97 q 506 357 472 297 l 539 417 q 542 426 542 421 q 539 429 542 429 l 525 424 q 296 157 403 265 q 131 10 189 49 q 46 -28 74 -28 q 0 46 0 -28 q 61 292 0 142 q 213 594 122 443 q 357 825 304 744 q 443 953 410 906 q 514 1019 475 996 q 581 1042 553 1042 q 601 1029 601 1042 q 593 1008 601 1022 q 513 875 578 975 q 440 752 483 828 q 308 497 396 676 q 189 207 219 318 q 186 182 186 194 q 206 151 186 151 q 254 176 221 151 q 270 190 260 181 q 320 239 281 199 q 406 332 360 279 q 528 483 451 385 q 688 700 604 582 q 903 1007 838 947 q 1000 1042 940 1042 q 1024 1029 1024 1042 q 1015 1004 1024 1018 q 942 888 978 938 q 867 769 913 843 q 719 508 821 694 q 561 186 617 322 q 483 -92 483 10 q 485 -116 483 -101 q 488 -133 488 -131 m 854 1211 q 850 1217 853 1217 l 842 1211 q 736 1135 796 1165 q 653 1106 676 1106 q 643 1111 643 1106 l 649 1124 q 690 1165 663 1135 q 739 1219 718 1196 l 760 1244 q 786 1257 768 1257 l 938 1257 q 949 1247 949 1257 q 946 1225 949 1246 q 940 1172 943 1204 q 938 1111 938 1139 q 929 1097 938 1097 q 885 1138 908 1097 q 854 1211 861 1179 z "},"":{"ha":657,"x_min":0,"x_max":1024,"o":"m 488 -133 q 475 -149 488 -149 q 458 -143 469 -149 q 404 17 404 -85 q 438 197 404 97 q 506 357 472 297 l 539 417 q 542 426 542 421 q 539 429 542 429 l 525 424 q 296 157 403 265 q 131 10 189 49 q 46 -28 74 -28 q 0 46 0 -28 q 61 292 0 142 q 213 594 122 443 q 357 825 304 744 q 443 953 410 906 q 514 1019 475 996 q 581 1042 553 1042 q 601 1029 601 1042 q 593 1008 601 1022 q 513 875 578 975 q 440 752 483 828 q 308 497 396 676 q 189 207 219 318 q 186 182 186 194 q 206 151 186 151 q 254 176 221 151 q 270 190 260 181 q 320 239 281 199 q 406 332 360 279 q 528 483 451 385 q 688 700 604 582 q 903 1007 838 947 q 1000 1042 940 1042 q 1024 1029 1024 1042 q 1015 1004 1024 1018 q 942 888 978 938 q 867 769 913 843 q 719 508 821 694 q 561 186 617 322 q 483 -92 483 10 q 485 -116 483 -101 q 488 -133 488 -131 m 694 1082 q 660 1121 660 1082 q 688 1187 660 1156 q 744 1218 715 1218 q 779 1181 779 1218 q 753 1114 779 1146 q 694 1082 726 1082 m 918 1082 q 883 1121 883 1082 q 911 1188 883 1157 q 969 1218 939 1218 q 1003 1179 1003 1218 q 976 1113 1003 1144 q 918 1082 950 1082 z "},"":{"ha":304,"x_min":-62,"x_max":985,"o":"m 297 364 q 122 49 171 142 q -39 -44 74 -44 q -62 -31 -62 -44 l -57 -15 q 48 157 -7 61 q 133 311 103 253 l 163 369 q 238 653 207 456 q 268 976 268 851 l 264 1022 q 261 1035 261 1028 q 275 1060 261 1050 q 371 1085 313 1085 q 393 1047 393 1085 q 324 508 383 818 q 332 497 325 497 q 342 503 336 497 q 735 989 596 853 q 967 1100 850 1100 q 985 1089 985 1099 q 974 1073 985 1085 q 940 1042 963 1061 q 896 1007 917 1024 q 842 965 875 990 q 792 925 810 939 q 759 899 779 915 q 678 824 739 882 q 559 706 617 767 q 428 551 501 644 q 297 364 354 457 m 835 1279 q 745 1203 797 1236 q 661 1160 693 1171 l 628 1149 q 613 1154 613 1149 q 618 1167 613 1158 q 660 1208 632 1178 q 708 1264 688 1239 l 729 1288 q 756 1300 738 1300 l 824 1300 q 840 1290 840 1300 q 835 1279 840 1285 z "},"":{"ha":585,"x_min":-44,"x_max":704,"o":"m -29 -79 q -44 -64 -44 -79 q -42 -47 -44 -56 q 144 316 -7 43 q 382 729 294 589 q 183 678 272 729 q 93 531 93 626 q 114 456 93 492 q 121 436 121 442 q 110 428 121 428 q 99 431 107 428 q 88 436 94 432 q 63 453 81 440 q 31 479 44 465 q 6 516 17 493 q -6 563 -6 539 q 101 707 -6 649 q 342 765 207 765 q 401 763 381 765 l 454 849 q 461 860 457 853 q 480 885 465 867 q 510 916 494 903 q 546 940 525 929 q 586 951 567 951 q 604 942 604 951 q 588 906 604 929 l 503 746 q 704 540 704 694 q 657 375 704 449 q 534 257 610 301 q 372 189 458 213 q 197 165 285 165 q 68 -17 132 46 q -29 -79 4 -79 m 483 708 l 222 214 q 219 208 221 213 q 217 203 218 204 q 486 318 383 206 q 589 558 589 431 q 483 708 589 667 z "},"":{"ha":629,"x_min":-153,"x_max":883,"o":"m 319 -15 q 242 -1 275 -15 q 193 32 208 13 q 169 71 178 51 q 158 104 160 90 l 157 118 q 169 133 160 133 l 181 128 q 304 57 225 57 q 443 126 386 57 q 500 289 500 196 q 462 453 500 363 q 424 569 424 543 q 448 630 424 603 q 496 667 472 657 l 519 678 q 608 724 567 700 q 669 763 650 749 l 688 776 q 779 931 779 844 q 759 991 779 968 q 703 1014 739 1014 q 660 1007 683 1014 q 625 993 638 1000 l 613 986 q 489 840 563 957 q 367 622 415 724 l 318 519 q 215 308 263 397 q 149 189 168 218 l 129 160 q -1 24 81 76 q -140 -28 -82 -28 q -153 -18 -153 -28 l -149 -6 q -137 1 -144 -4 q -101 34 -129 6 q -42 106 -74 63 q 42 237 -10 149 q 151 439 94 325 q 291 687 183 501 q 443 919 399 872 q 456 933 447 925 q 492 964 464 942 q 549 1003 519 986 q 626 1035 579 1021 q 722 1049 674 1049 q 758 1046 738 1049 q 810 1033 778 1043 q 863 999 842 1024 q 883 939 883 975 q 826 819 883 872 q 696 732 769 767 q 560 653 582 675 q 532 588 532 631 q 576 464 532 560 q 621 292 621 368 q 538 73 621 161 q 319 -15 454 -15 z "},"":{"ha":514,"x_min":-21,"x_max":656,"o":"m 404 88 q 246 -18 289 -18 q 226 4 226 -18 q 251 89 226 32 q 300 189 275 146 l 325 232 q 331 244 331 242 q 328 247 331 247 q 307 232 322 247 q 212 134 265 186 q 125 53 158 82 l 93 25 q 10 -17 39 -17 q -21 31 -21 -17 q -8 103 -21 54 q 13 168 6 151 q 92 319 44 246 q 206 460 140 393 q 358 569 271 528 q 538 611 444 611 q 615 588 615 611 q 581 574 615 574 q 341 465 453 574 q 160 214 229 356 q 140 149 140 175 q 150 133 140 133 q 193 157 167 133 q 238 197 210 172 q 331 293 267 222 q 432 425 394 364 q 449 451 438 436 q 494 492 461 467 q 561 518 528 518 q 579 508 579 518 q 575 499 579 506 q 544 443 569 488 q 496 359 518 399 q 449 273 474 319 q 409 193 424 226 q 394 149 394 160 q 401 140 394 140 q 503 221 422 140 q 646 378 564 285 q 653 382 650 382 q 656 376 656 382 q 635 325 656 350 q 404 88 499 174 m 594 694 q 588 686 594 686 q 569 694 582 686 q 524 746 544 711 q 494 806 503 781 l 486 832 q 497 846 486 846 l 572 846 q 588 831 588 846 l 588 800 q 594 694 588 742 z "},"":{"ha":514,"x_min":-21,"x_max":753,"o":"m 404 88 q 246 -18 289 -18 q 226 4 226 -18 q 251 89 226 32 q 300 189 275 146 l 325 232 q 331 244 331 242 q 328 247 331 247 q 307 232 322 247 q 212 134 265 186 q 125 53 158 82 l 93 25 q 10 -17 39 -17 q -21 31 -21 -17 q -8 103 -21 54 q 13 168 6 151 q 92 319 44 246 q 206 460 140 393 q 358 569 271 528 q 538 611 444 611 q 615 588 615 611 q 581 574 615 574 q 341 465 453 574 q 160 214 229 356 q 140 149 140 175 q 150 133 140 133 q 193 157 167 133 q 238 197 210 172 q 331 293 267 222 q 432 425 394 364 q 449 451 438 436 q 494 492 461 467 q 561 518 528 518 q 579 508 579 518 q 575 499 579 506 q 544 443 569 488 q 496 359 518 399 q 449 273 474 319 q 409 193 424 226 q 394 149 394 160 q 401 140 394 140 q 503 221 422 140 q 646 378 564 285 q 653 382 650 382 q 656 376 656 382 q 635 325 656 350 q 404 88 499 174 m 747 825 q 658 749 710 782 q 572 706 606 717 l 540 694 q 525 700 525 694 q 531 713 525 704 q 572 754 544 724 q 621 808 600 785 l 642 833 q 668 846 650 846 l 736 846 q 753 836 753 846 q 747 825 753 831 z "},"":{"ha":514,"x_min":-21,"x_max":715,"o":"m 404 88 q 246 -18 289 -18 q 226 4 226 -18 q 251 89 226 32 q 300 189 275 146 l 325 232 q 331 244 331 242 q 328 247 331 247 q 307 232 322 247 q 212 134 265 186 q 125 53 158 82 l 93 25 q 10 -17 39 -17 q -21 31 -21 -17 q -8 103 -21 54 q 13 168 6 151 q 92 319 44 246 q 206 460 140 393 q 358 569 271 528 q 538 611 444 611 q 615 588 615 611 q 581 574 615 574 q 341 465 453 574 q 160 214 229 356 q 140 149 140 175 q 150 133 140 133 q 193 157 167 133 q 238 197 210 172 q 331 293 267 222 q 432 425 394 364 q 449 451 438 436 q 494 492 461 467 q 561 518 528 518 q 579 508 579 518 q 575 499 579 506 q 544 443 569 488 q 496 359 518 399 q 449 273 474 319 q 409 193 424 226 q 394 149 394 160 q 401 140 394 140 q 503 221 422 140 q 646 378 564 285 q 653 382 650 382 q 656 376 656 382 q 635 325 656 350 q 404 88 499 174 m 621 800 q 617 806 619 806 l 608 800 q 503 724 563 754 q 419 694 443 694 q 410 700 410 694 l 415 713 q 457 754 429 724 q 506 808 485 785 l 526 833 q 553 846 535 846 l 704 846 q 715 836 715 846 q 713 814 715 835 q 707 760 710 793 q 704 700 704 728 q 696 686 704 686 q 651 727 675 686 q 621 800 628 768 z "},"":{"ha":514,"x_min":-21,"x_max":688,"o":"m 404 88 q 246 -18 289 -18 q 226 4 226 -18 q 251 89 226 32 q 300 189 275 146 l 325 232 q 331 244 331 242 q 328 247 331 247 q 307 232 322 247 q 212 134 265 186 q 125 53 158 82 l 93 25 q 10 -17 39 -17 q -21 31 -21 -17 q -8 103 -21 54 q 13 168 6 151 q 92 319 44 246 q 206 460 140 393 q 358 569 271 528 q 538 611 444 611 q 615 588 615 611 q 581 574 615 574 q 341 465 453 574 q 160 214 229 356 q 140 149 140 175 q 150 133 140 133 q 193 157 167 133 q 238 197 210 172 q 331 293 267 222 q 432 425 394 364 q 449 451 438 436 q 494 492 461 467 q 561 518 528 518 q 579 508 579 518 q 575 499 579 506 q 544 443 569 488 q 496 359 518 399 q 449 273 474 319 q 409 193 424 226 q 394 149 394 160 q 401 140 394 140 q 503 221 422 140 q 646 378 564 285 q 653 382 650 382 q 656 376 656 382 q 635 325 656 350 q 404 88 499 174 m 686 733 q 581 651 640 651 q 517 675 554 651 q 457 699 481 699 q 432 694 447 699 q 422 693 428 693 q 414 699 414 693 q 443 729 414 715 q 503 743 472 743 q 558 734 522 743 q 611 725 593 725 q 672 744 644 725 q 678 746 674 746 q 688 738 688 746 q 686 733 688 735 z "},"":{"ha":514,"x_min":-21,"x_max":743,"o":"m 404 88 q 246 -18 289 -18 q 226 4 226 -18 q 251 89 226 32 q 300 189 275 146 l 325 232 q 331 244 331 242 q 328 247 331 247 q 307 232 322 247 q 212 134 265 186 q 125 53 158 82 l 93 25 q 10 -17 39 -17 q -21 31 -21 -17 q -8 103 -21 54 q 13 168 6 151 q 92 319 44 246 q 206 460 140 393 q 358 569 271 528 q 538 611 444 611 q 615 588 615 611 q 581 574 615 574 q 341 465 453 574 q 160 214 229 356 q 140 149 140 175 q 150 133 140 133 q 193 157 167 133 q 238 197 210 172 q 331 293 267 222 q 432 425 394 364 q 449 451 438 436 q 494 492 461 467 q 561 518 528 518 q 579 508 579 518 q 575 499 579 506 q 544 443 569 488 q 496 359 518 399 q 449 273 474 319 q 409 193 424 226 q 394 149 394 160 q 401 140 394 140 q 503 221 422 140 q 646 378 564 285 q 653 382 650 382 q 656 376 656 382 q 635 325 656 350 q 404 88 499 174 m 435 701 q 400 740 400 701 q 428 806 400 775 q 485 838 456 838 q 519 800 519 838 q 493 733 519 765 q 435 701 467 701 m 658 701 q 624 740 624 701 q 651 807 624 776 q 710 838 679 838 q 743 799 743 838 q 717 733 743 764 q 658 701 690 701 z "},"":{"ha":514,"x_min":-21,"x_max":675,"o":"m 404 88 q 246 -18 289 -18 q 226 4 226 -18 q 251 89 226 32 q 300 189 275 146 l 325 232 q 331 244 331 242 q 328 247 331 247 q 307 232 322 247 q 212 134 265 186 q 125 53 158 82 l 93 25 q 10 -17 39 -17 q -21 31 -21 -17 q -8 103 -21 54 q 13 168 6 151 q 92 319 44 246 q 206 460 140 393 q 358 569 271 528 q 538 611 444 611 q 615 588 615 611 q 581 574 615 574 q 341 465 453 574 q 160 214 229 356 q 140 149 140 175 q 150 133 140 133 q 193 157 167 133 q 238 197 210 172 q 331 293 267 222 q 432 425 394 364 q 449 451 438 436 q 494 492 461 467 q 561 518 528 518 q 579 508 579 518 q 575 499 579 506 q 544 443 569 488 q 496 359 518 399 q 449 273 474 319 q 409 193 424 226 q 394 149 394 160 q 401 140 394 140 q 503 221 422 140 q 646 378 564 285 q 653 382 650 382 q 656 376 656 382 q 635 325 656 350 q 404 88 499 174 m 564 683 q 529 698 542 683 q 517 736 517 713 q 554 817 517 779 q 626 856 592 856 q 662 841 649 856 q 675 803 675 826 q 639 722 675 761 q 564 683 603 683 m 610 810 q 577 792 593 810 q 561 753 561 774 q 581 729 561 729 q 614 749 597 731 q 631 786 631 767 q 610 810 631 810 z "},"":{"ha":671,"x_min":-21,"x_max":813,"o":"m 592 153 q 803 378 665 221 q 810 382 807 382 q 813 376 813 382 q 792 325 813 350 q 610 135 689 211 q 471 23 551 76 q 338 -31 390 -31 q 274 58 274 -31 q 313 236 274 142 q 8 -17 82 -17 q -21 28 -21 -17 q 48 254 -21 121 q 233 494 117 388 q 464 601 350 601 q 491 599 479 601 q 508 592 503 596 q 516 586 513 589 q 521 583 519 583 q 528 588 524 583 q 549 615 536 599 q 594 660 563 632 q 646 689 626 689 q 656 675 656 689 q 636 617 656 656 q 614 575 628 600 q 635 585 621 579 q 743 610 694 610 q 797 567 797 610 q 683 382 797 486 q 428 224 569 278 q 418 214 422 222 q 397 113 397 157 q 435 63 397 63 q 592 153 494 63 m 503 554 q 504 560 504 556 q 481 569 504 569 q 335 481 421 569 q 189 290 249 392 q 129 143 129 188 q 143 124 129 124 q 186 146 158 124 q 368 344 274 222 q 424 421 397 392 q 503 554 465 483 m 654 471 q 671 532 671 506 q 657 554 671 554 q 638 549 649 554 q 622 539 628 544 l 615 533 q 508 397 572 496 q 443 269 443 297 q 446 264 443 264 q 483 278 454 264 q 565 343 511 292 q 654 471 618 394 z "},"":{"ha":400,"x_min":1,"x_max":542,"o":"m 339 135 q 110 -21 208 11 q 93 -47 93 -31 q 98 -64 93 -53 q 103 -83 103 -75 q 86 -118 103 -104 q 47 -132 69 -132 q 10 -112 14 -132 q 17 -106 10 -106 q 26 -108 19 -106 q 39 -110 33 -110 q 58 -103 49 -110 q 68 -87 68 -97 q 63 -72 68 -82 q 57 -58 57 -61 q 62 -45 57 -53 q 72 -33 67 -37 l 78 -29 q 1 69 1 -28 q 75 301 1 174 q 262 518 149 428 q 476 608 375 608 q 531 568 531 608 q 440 411 531 499 q 404 382 432 403 q 365 361 376 361 q 358 368 358 361 l 363 381 q 418 531 418 479 q 400 558 418 558 q 291 474 357 558 q 176 283 225 390 q 128 113 128 175 q 164 63 128 63 q 321 153 226 63 q 532 378 394 221 q 539 382 536 382 q 542 376 542 382 q 521 325 542 350 q 339 135 418 211 z "},"":{"ha":399,"x_min":1,"x_max":540,"o":"m 382 471 q 399 532 399 506 q 385 554 399 554 q 366 549 376 554 q 350 539 356 544 l 343 533 q 235 397 300 496 q 171 269 171 297 q 174 264 171 264 q 210 278 182 264 q 292 343 239 292 q 382 471 346 394 m 319 153 q 531 378 393 221 q 538 382 535 382 q 540 376 540 382 q 519 325 540 350 q 338 135 417 211 q 199 23 279 76 q 65 -31 118 -31 q 1 58 1 -31 q 110 367 1 206 q 363 585 219 528 q 471 610 422 610 q 525 567 525 610 q 411 382 525 486 q 156 224 297 278 q 146 214 150 222 q 125 113 125 157 q 163 63 125 63 q 319 153 222 63 m 513 694 q 506 686 513 686 q 488 694 500 686 q 442 746 463 711 q 413 806 421 781 l 404 832 q 415 846 404 846 l 490 846 q 506 831 506 846 l 506 800 q 513 694 506 742 z "},"":{"ha":399,"x_min":1,"x_max":650,"o":"m 382 471 q 399 532 399 506 q 385 554 399 554 q 366 549 376 554 q 350 539 356 544 l 343 533 q 235 397 300 496 q 171 269 171 297 q 174 264 171 264 q 210 278 182 264 q 292 343 239 292 q 382 471 346 394 m 319 153 q 531 378 393 221 q 538 382 535 382 q 540 376 540 382 q 519 325 540 350 q 338 135 417 211 q 199 23 279 76 q 65 -31 118 -31 q 1 58 1 -31 q 110 367 1 206 q 363 585 219 528 q 471 610 422 610 q 525 567 525 610 q 411 382 525 486 q 156 224 297 278 q 146 214 150 222 q 125 113 125 157 q 163 63 125 63 q 319 153 222 63 m 644 825 q 555 749 607 782 q 469 706 503 717 l 438 694 q 422 700 422 694 q 428 713 422 704 q 469 754 442 724 q 518 808 497 785 l 539 833 q 565 846 547 846 l 633 846 q 650 836 650 846 q 644 825 650 831 z "},"":{"ha":399,"x_min":1,"x_max":638,"o":"m 382 471 q 399 532 399 506 q 385 554 399 554 q 366 549 376 554 q 350 539 356 544 l 343 533 q 235 397 300 496 q 171 269 171 297 q 174 264 171 264 q 210 278 182 264 q 292 343 239 292 q 382 471 346 394 m 319 153 q 531 378 393 221 q 538 382 535 382 q 540 376 540 382 q 519 325 540 350 q 338 135 417 211 q 199 23 279 76 q 65 -31 118 -31 q 1 58 1 -31 q 110 367 1 206 q 363 585 219 528 q 471 610 422 610 q 525 567 525 610 q 411 382 525 486 q 156 224 297 278 q 146 214 150 222 q 125 113 125 157 q 163 63 125 63 q 319 153 222 63 m 543 800 q 539 806 542 806 l 531 800 q 425 724 485 754 q 342 694 365 694 q 332 700 332 694 l 338 713 q 379 754 351 724 q 428 808 407 785 l 449 833 q 475 846 457 846 l 626 846 q 638 836 638 846 q 635 814 638 835 q 629 760 632 793 q 626 700 626 728 q 618 686 626 686 q 574 727 597 686 q 543 800 550 768 z "},"":{"ha":399,"x_min":1,"x_max":663,"o":"m 382 471 q 399 532 399 506 q 385 554 399 554 q 366 549 376 554 q 350 539 356 544 l 343 533 q 235 397 300 496 q 171 269 171 297 q 174 264 171 264 q 210 278 182 264 q 292 343 239 292 q 382 471 346 394 m 319 153 q 531 378 393 221 q 538 382 535 382 q 540 376 540 382 q 519 325 540 350 q 338 135 417 211 q 199 23 279 76 q 65 -31 118 -31 q 1 58 1 -31 q 110 367 1 206 q 363 585 219 528 q 471 610 422 610 q 525 567 525 610 q 411 382 525 486 q 156 224 297 278 q 146 214 150 222 q 125 113 125 157 q 163 63 125 63 q 319 153 222 63 m 354 701 q 319 740 319 701 q 347 806 319 775 q 404 838 375 838 q 439 800 439 838 q 413 733 439 765 q 354 701 386 701 m 578 701 q 543 740 543 701 q 571 807 543 776 q 629 838 599 838 q 663 799 663 838 q 636 733 663 764 q 578 701 610 701 z "},"":{"ha":253,"x_min":-40,"x_max":404,"o":"m 192 135 q -17 -18 29 -18 q -40 14 -40 -18 q -15 107 -40 46 q 35 214 10 168 l 60 258 q 219 524 165 443 q 280 583 243 558 q 349 607 317 607 q 360 597 360 607 q 350 571 360 590 q 268 425 333 540 q 190 286 203 310 q 133 153 133 186 q 142 140 133 140 q 231 210 156 140 q 385 378 289 268 q 392 382 389 382 q 394 376 394 382 q 374 325 394 350 q 192 135 271 211 m 404 694 q 397 686 404 686 q 379 694 392 686 q 333 746 354 711 q 304 806 313 781 l 296 832 q 307 846 296 846 l 382 846 q 397 831 397 846 l 397 800 q 404 694 397 742 z "},"":{"ha":253,"x_min":-40,"x_max":536,"o":"m 192 135 q -17 -18 29 -18 q -40 14 -40 -18 q -15 107 -40 46 q 35 214 10 168 l 60 258 q 219 524 165 443 q 280 583 243 558 q 349 607 317 607 q 360 597 360 607 q 350 571 360 590 q 268 425 333 540 q 190 286 203 310 q 133 153 133 186 q 142 140 133 140 q 231 210 156 140 q 385 378 289 268 q 392 382 389 382 q 394 376 394 382 q 374 325 394 350 q 192 135 271 211 m 531 825 q 441 749 493 782 q 356 706 389 717 l 324 694 q 308 700 308 694 q 314 713 308 704 q 356 754 328 724 q 404 808 383 785 l 425 833 q 451 846 433 846 l 519 846 q 536 836 536 846 q 531 825 536 831 z "},"":{"ha":253,"x_min":-40,"x_max":515,"o":"m 192 135 q -17 -18 29 -18 q -40 14 -40 -18 q -15 107 -40 46 q 35 214 10 168 l 60 258 q 219 524 165 443 q 280 583 243 558 q 349 607 317 607 q 360 597 360 607 q 350 571 360 590 q 268 425 333 540 q 190 286 203 310 q 133 153 133 186 q 142 140 133 140 q 231 210 156 140 q 385 378 289 268 q 392 382 389 382 q 394 376 394 382 q 374 325 394 350 q 192 135 271 211 m 421 800 q 417 806 419 806 l 408 800 q 303 724 363 754 q 219 694 243 694 q 210 700 210 694 l 215 713 q 257 754 229 724 q 306 808 285 785 l 326 833 q 353 846 335 846 l 504 846 q 515 836 515 846 q 513 814 515 835 q 507 760 510 793 q 504 700 504 728 q 496 686 504 686 q 451 727 475 686 q 421 800 428 768 z "},"":{"ha":253,"x_min":-40,"x_max":558,"o":"m 192 135 q -17 -18 29 -18 q -40 14 -40 -18 q -15 107 -40 46 q 35 214 10 168 l 60 258 q 219 524 165 443 q 280 583 243 558 q 349 607 317 607 q 360 597 360 607 q 350 571 360 590 q 268 425 333 540 q 190 286 203 310 q 133 153 133 186 q 142 140 133 140 q 231 210 156 140 q 385 378 289 268 q 392 382 389 382 q 394 376 394 382 q 374 325 394 350 q 192 135 271 211 m 250 701 q 215 740 215 701 q 243 806 215 775 q 300 838 271 838 q 335 800 335 838 q 308 733 335 765 q 250 701 282 701 m 474 701 q 439 740 439 701 q 467 807 439 776 q 525 838 494 838 q 558 799 558 838 q 532 733 558 764 q 474 701 506 701 z "},"":{"ha":467,"x_min":0,"x_max":900,"o":"m 153 444 q 274 564 199 504 q 424 624 349 624 q 497 603 461 624 l 507 607 q 589 921 575 781 l 411 794 q 393 786 399 786 q 385 800 385 786 q 388 817 385 808 q 394 828 392 825 l 399 832 q 593 971 490 897 l 593 994 q 583 1101 593 1053 q 563 1167 572 1149 l 553 1185 q 550 1200 550 1193 q 560 1211 550 1211 q 582 1203 567 1211 q 602 1186 590 1197 q 640 1130 614 1175 q 676 1029 665 1085 q 879 1171 854 1157 q 890 1174 883 1174 q 900 1157 900 1174 q 896 1143 900 1150 q 888 1133 892 1136 l 883 1129 l 682 988 q 685 940 685 957 q 549 464 685 735 q 244 74 414 193 q 60 -7 124 -7 q 0 76 0 -7 q 153 444 0 250 m 461 500 q 474 550 474 526 q 432 589 474 589 q 297 500 372 589 q 169 296 221 411 q 118 107 118 181 q 149 67 118 67 q 166 69 157 67 q 181 75 175 72 l 185 79 q 322 226 253 121 q 426 417 392 332 l 461 500 z "},"":{"ha":526,"x_min":-69,"x_max":668,"o":"m 465 135 q 251 -18 303 -18 q 228 7 228 -18 q 235 45 228 22 q 252 91 242 68 q 272 133 263 114 q 292 169 282 153 q 301 188 301 186 q 364 292 322 225 q 431 403 406 360 q 456 457 456 447 q 449 464 456 464 l 429 457 q 276 315 365 411 q 131 144 188 218 l 74 72 q 42 29 56 46 q 2 -3 28 13 q -50 -19 -24 -19 q -69 -8 -69 -19 q -43 56 -69 3 q 10 158 -17 110 l 36 206 l 172 444 q 206 498 193 479 q 243 545 219 517 q 294 588 267 574 q 351 604 321 601 q 363 594 363 604 q 358 581 363 586 q 260 415 326 531 q 176 265 194 300 q 172 253 172 257 q 175 250 172 250 q 189 258 178 250 q 258 335 215 289 q 401 473 300 381 q 568 597 503 565 q 597 604 583 604 q 617 582 617 604 q 510 358 606 517 q 404 153 404 185 q 414 142 404 142 q 430 147 421 142 q 450 160 439 151 q 469 176 461 169 q 489 195 476 183 q 504 210 501 207 q 658 378 563 268 q 665 382 663 382 q 668 376 668 382 q 647 325 668 350 q 465 135 544 211 m 638 733 q 532 651 592 651 q 469 675 506 651 q 408 699 432 699 q 383 694 397 699 q 374 693 379 693 q 365 699 365 693 q 394 729 365 715 q 454 743 424 743 q 509 734 474 743 q 563 725 544 725 q 624 744 596 725 q 629 746 625 746 q 639 738 639 746 q 638 733 639 735 z "},"":{"ha":483,"x_min":7,"x_max":619,"o":"m 607 489 q 619 481 619 486 q 608 461 619 472 q 563 421 593 446 q 528 390 533 396 l 508 364 q 419 194 479 282 q 272 39 358 106 q 106 -28 185 -28 q 7 93 7 -28 q 76 324 7 200 q 256 537 146 449 q 474 625 367 625 q 551 564 551 625 q 518 474 551 531 q 517 469 517 472 q 519 467 517 467 q 607 489 571 488 m 475 456 q 486 531 486 504 q 447 589 486 589 q 313 489 393 589 q 174 264 232 389 q 117 67 117 139 q 154 14 117 14 q 294 131 213 14 q 392 365 375 247 q 390 374 390 368 q 463 446 390 414 q 475 456 474 450 m 568 694 q 561 686 568 686 q 543 694 556 686 q 497 746 518 711 q 468 806 476 781 l 460 832 q 471 846 460 846 l 546 846 q 561 831 561 846 l 561 800 q 568 694 561 742 z "},"":{"ha":483,"x_min":7,"x_max":706,"o":"m 607 489 q 619 481 619 486 q 608 461 619 472 q 563 421 593 446 q 528 390 533 396 l 508 364 q 419 194 479 282 q 272 39 358 106 q 106 -28 185 -28 q 7 93 7 -28 q 76 324 7 200 q 256 537 146 449 q 474 625 367 625 q 551 564 551 625 q 518 474 551 531 q 517 469 517 472 q 519 467 517 467 q 607 489 571 488 m 475 456 q 486 531 486 504 q 447 589 486 589 q 313 489 393 589 q 174 264 232 389 q 117 67 117 139 q 154 14 117 14 q 294 131 213 14 q 392 365 375 247 q 390 374 390 368 q 463 446 390 414 q 475 456 474 450 m 700 825 q 610 749 663 782 q 525 706 558 717 l 493 694 q 478 700 478 694 q 483 713 478 704 q 525 754 497 724 q 574 808 553 785 l 594 833 q 621 846 603 846 l 689 846 q 706 836 706 846 q 700 825 706 831 z "},"":{"ha":483,"x_min":7,"x_max":636,"o":"m 607 489 q 619 481 619 486 q 608 461 619 472 q 563 421 593 446 q 528 390 533 396 l 508 364 q 419 194 479 282 q 272 39 358 106 q 106 -28 185 -28 q 7 93 7 -28 q 76 324 7 200 q 256 537 146 449 q 474 625 367 625 q 551 564 551 625 q 518 474 551 531 q 517 469 517 472 q 519 467 517 467 q 607 489 571 488 m 475 456 q 486 531 486 504 q 447 589 486 589 q 313 489 393 589 q 174 264 232 389 q 117 67 117 139 q 154 14 117 14 q 294 131 213 14 q 392 365 375 247 q 390 374 390 368 q 463 446 390 414 q 475 456 474 450 m 542 800 q 538 806 540 806 l 529 800 q 424 724 483 754 q 340 694 364 694 q 331 700 331 694 l 336 713 q 378 754 350 724 q 426 808 406 785 l 447 833 q 474 846 456 846 l 625 846 q 636 836 636 846 q 633 814 636 835 q 628 760 631 793 q 625 700 625 728 q 617 686 625 686 q 572 727 596 686 q 542 800 549 768 z "},"":{"ha":483,"x_min":7,"x_max":668,"o":"m 607 489 q 619 481 619 486 q 608 461 619 472 q 563 421 593 446 q 528 390 533 396 l 508 364 q 419 194 479 282 q 272 39 358 106 q 106 -28 185 -28 q 7 93 7 -28 q 76 324 7 200 q 256 537 146 449 q 474 625 367 625 q 551 564 551 625 q 518 474 551 531 q 517 469 517 472 q 519 467 517 467 q 607 489 571 488 m 475 456 q 486 531 486 504 q 447 589 486 589 q 313 489 393 589 q 174 264 232 389 q 117 67 117 139 q 154 14 117 14 q 294 131 213 14 q 392 365 375 247 q 390 374 390 368 q 463 446 390 414 q 475 456 474 450 m 667 756 q 561 674 621 674 q 498 697 535 674 q 438 721 461 721 q 413 717 428 721 q 403 715 408 715 q 394 721 394 715 q 424 751 394 738 q 483 765 453 765 q 538 756 503 765 q 592 747 574 747 q 653 767 625 747 q 658 768 654 768 q 668 760 668 768 q 667 756 668 757 z "},"":{"ha":483,"x_min":7,"x_max":710,"o":"m 607 489 q 619 481 619 486 q 608 461 619 472 q 563 421 593 446 q 528 390 533 396 l 508 364 q 419 194 479 282 q 272 39 358 106 q 106 -28 185 -28 q 7 93 7 -28 q 76 324 7 200 q 256 537 146 449 q 474 625 367 625 q 551 564 551 625 q 518 474 551 531 q 517 469 517 472 q 519 467 517 467 q 607 489 571 488 m 475 456 q 486 531 486 504 q 447 589 486 589 q 313 489 393 589 q 174 264 232 389 q 117 67 117 139 q 154 14 117 14 q 294 131 213 14 q 392 365 375 247 q 390 374 390 368 q 463 446 390 414 q 475 456 474 450 m 401 701 q 367 740 367 701 q 394 806 367 775 q 451 838 422 838 q 486 800 486 838 q 460 733 486 765 q 401 701 433 701 m 625 701 q 590 740 590 701 q 618 807 590 776 q 676 838 646 838 q 710 799 710 838 q 683 733 710 764 q 625 701 657 701 z "},"":{"ha":694,"x_min":222,"x_max":778,"o":"m 571 635 q 538 674 538 635 q 565 739 538 707 q 622 771 593 771 q 647 760 638 771 q 657 731 657 749 q 630 666 657 697 q 571 635 603 635 m 376 299 q 342 338 342 299 q 369 403 342 372 q 426 435 397 435 q 461 396 461 435 q 435 330 461 361 q 376 299 408 299 m 729 503 l 246 503 q 222 517 222 503 q 240 547 222 528 q 272 565 257 565 l 754 565 q 778 553 778 565 q 762 522 778 539 q 729 503 746 506 z "},"":{"ha":483,"x_min":-69,"x_max":738,"o":"m 607 489 q 619 481 619 486 q 608 461 619 472 q 563 421 593 446 q 528 390 533 396 l 508 364 q 419 194 479 282 q 272 39 358 106 q 106 -28 185 -28 q 54 -15 76 -28 l 14 -57 q -54 -76 -6 -76 q -69 -71 -69 -76 l -62 -58 q 18 26 -29 -24 q 7 93 7 53 q 76 324 7 200 q 256 537 146 449 q 474 625 367 625 q 549 581 538 625 l 656 690 q 706 717 682 717 q 738 703 738 717 q 733 694 738 699 l 517 468 q 607 489 582 488 m 485 514 q 486 531 486 519 q 447 589 486 589 q 333 513 400 589 q 209 332 265 436 q 129 142 153 228 q 319 342 192 208 q 485 514 447 475 m 117 51 q 154 14 124 14 q 284 116 208 14 q 385 331 360 218 q 117 51 351 296 z "},"":{"ha":515,"x_min":-44,"x_max":657,"o":"m 314 232 l 357 306 q 354 310 357 310 q 347 306 351 310 q 240 190 296 246 q 156 107 185 133 l 125 81 q -25 -22 17 -22 q -44 3 -44 -22 q -22 88 -44 31 q 25 189 1 144 l 47 232 q 219 524 164 450 q 288 584 247 560 q 350 608 328 608 q 364 599 364 608 q 358 583 364 593 q 301 491 356 578 q 214 342 247 404 q 122 149 122 174 q 131 139 122 139 q 174 164 143 139 q 372 374 264 242 q 497 540 432 438 q 615 608 542 608 q 628 597 628 608 l 617 571 q 530 419 597 536 q 453 285 463 301 q 396 153 396 185 q 404 140 396 140 q 493 210 418 140 q 647 378 551 268 q 654 382 651 382 q 657 376 657 382 q 636 325 657 350 q 454 135 533 211 q 333 32 400 83 q 235 -19 265 -19 q 214 10 214 -19 q 239 82 214 26 q 289 185 264 138 l 314 232 m 539 694 q 532 686 539 686 q 514 694 526 686 q 468 746 489 711 q 439 806 447 781 l 431 832 q 442 846 431 846 l 517 846 q 532 831 532 846 l 532 800 q 539 694 532 742 z "},"":{"ha":515,"x_min":-44,"x_max":685,"o":"m 314 232 l 357 306 q 354 310 357 310 q 347 306 351 310 q 240 190 296 246 q 156 107 185 133 l 125 81 q -25 -22 17 -22 q -44 3 -44 -22 q -22 88 -44 31 q 25 189 1 144 l 47 232 q 219 524 164 450 q 288 584 247 560 q 350 608 328 608 q 364 599 364 608 q 358 583 364 593 q 301 491 356 578 q 214 342 247 404 q 122 149 122 174 q 131 139 122 139 q 174 164 143 139 q 372 374 264 242 q 497 540 432 438 q 615 608 542 608 q 628 597 628 608 l 617 571 q 530 419 597 536 q 453 285 463 301 q 396 153 396 185 q 404 140 396 140 q 493 210 418 140 q 647 378 551 268 q 654 382 651 382 q 657 376 657 382 q 636 325 657 350 q 454 135 533 211 q 333 32 400 83 q 235 -19 265 -19 q 214 10 214 -19 q 239 82 214 26 q 289 185 264 138 l 314 232 m 679 825 q 590 749 642 782 q 506 706 538 717 l 472 694 q 457 700 457 694 q 463 713 457 704 q 504 754 476 724 q 553 808 532 785 l 574 833 q 600 846 582 846 l 668 846 q 685 836 685 846 q 679 825 685 831 z "},"":{"ha":515,"x_min":-44,"x_max":657,"o":"m 314 232 l 357 306 q 354 310 357 310 q 347 306 351 310 q 240 190 296 246 q 156 107 185 133 l 125 81 q -25 -22 17 -22 q -44 3 -44 -22 q -22 88 -44 31 q 25 189 1 144 l 47 232 q 219 524 164 450 q 288 584 247 560 q 350 608 328 608 q 364 599 364 608 q 358 583 364 593 q 301 491 356 578 q 214 342 247 404 q 122 149 122 174 q 131 139 122 139 q 174 164 143 139 q 372 374 264 242 q 497 540 432 438 q 615 608 542 608 q 628 597 628 608 l 617 571 q 530 419 597 536 q 453 285 463 301 q 396 153 396 185 q 404 140 396 140 q 493 210 418 140 q 647 378 551 268 q 654 382 651 382 q 657 376 657 382 q 636 325 657 350 q 454 135 533 211 q 333 32 400 83 q 235 -19 265 -19 q 214 10 214 -19 q 239 82 214 26 q 289 185 264 138 l 314 232 m 549 800 q 544 806 547 806 l 536 800 q 431 724 490 754 q 347 694 371 694 q 338 700 338 694 l 343 713 q 385 754 357 724 q 433 808 413 785 l 454 833 q 481 846 463 846 l 632 846 q 643 836 643 846 q 640 814 643 835 q 635 760 638 793 q 632 700 632 728 q 624 686 632 686 q 579 727 603 686 q 549 800 556 768 z "},"":{"ha":515,"x_min":-44,"x_max":711,"o":"m 314 232 l 357 306 q 354 310 357 310 q 347 306 351 310 q 240 190 296 246 q 156 107 185 133 l 125 81 q -25 -22 17 -22 q -44 3 -44 -22 q -22 88 -44 31 q 25 189 1 144 l 47 232 q 219 524 164 450 q 288 584 247 560 q 350 608 328 608 q 364 599 364 608 q 358 583 364 593 q 301 491 356 578 q 214 342 247 404 q 122 149 122 174 q 131 139 122 139 q 174 164 143 139 q 372 374 264 242 q 497 540 432 438 q 615 608 542 608 q 628 597 628 608 l 617 571 q 530 419 597 536 q 453 285 463 301 q 396 153 396 185 q 404 140 396 140 q 493 210 418 140 q 647 378 551 268 q 654 382 651 382 q 657 376 657 382 q 636 325 657 350 q 454 135 533 211 q 333 32 400 83 q 235 -19 265 -19 q 214 10 214 -19 q 239 82 214 26 q 289 185 264 138 l 314 232 m 403 701 q 368 740 368 701 q 396 806 368 775 q 453 838 424 838 q 488 800 488 838 q 461 733 488 765 q 403 701 435 701 m 626 701 q 592 740 592 701 q 619 807 592 776 q 678 838 647 838 q 711 799 711 838 q 685 733 711 764 q 626 701 658 701 z "},"":{"ha":499,"x_min":-264,"x_max":656,"o":"m 299 197 l 357 311 q 354 315 357 315 q 347 311 351 315 q 239 194 296 251 q 151 108 182 136 l 121 81 q -26 -18 17 -18 q -46 7 -46 -18 q -24 91 -46 35 q 21 189 -1 147 l 43 232 q 215 524 160 450 q 283 584 243 560 q 346 608 324 608 q 360 599 360 608 q 354 583 360 593 q 297 491 351 578 q 210 342 243 404 q 118 149 118 174 q 126 139 118 139 q 169 164 139 139 q 368 374 260 242 q 493 540 428 438 q 547 588 511 568 q 611 608 582 608 q 624 597 624 608 l 613 571 q 526 419 593 536 q 450 286 458 301 q 399 197 439 265 q 343 99 360 128 q 488 221 431 169 q 631 378 549 285 q 638 382 635 382 q 640 376 640 382 q 619 325 640 350 q 514 211 558 258 q 306 33 456 150 l 269 -33 q -100 -675 1 -526 q -125 -712 -110 -690 q -175 -770 -140 -733 q -231 -807 -210 -807 q -264 -711 -264 -807 q -162 -403 -264 -569 q 176 -35 -53 -224 q 299 197 222 49 m -128 -400 q -154 -444 -139 -417 q -196 -537 -169 -471 q -222 -647 -222 -603 q -214 -671 -222 -671 q -193 -658 -207 -671 q -169 -631 -179 -644 l -160 -617 q 139 -103 -22 -401 q -128 -400 -42 -261 m 650 825 q 560 749 613 782 q 475 706 508 717 l 443 694 q 428 700 428 694 q 433 713 428 704 q 475 754 447 724 q 524 808 503 785 l 544 833 q 571 846 553 846 l 639 846 q 656 836 656 846 q 650 825 656 831 z "},"":{"ha":479,"x_min":-493,"x_max":713,"o":"m 668 1156 q 265 450 382 654 q 275 456 269 450 q 288 472 279 463 q 321 509 296 482 q 369 556 346 536 q 422 593 392 576 q 475 610 451 610 q 529 521 529 610 q 486 343 529 449 q 470 304 486 340 q 419 211 454 268 q 340 101 385 154 q 230 8 296 47 q 94 -31 164 -31 q 58 -26 75 -31 q 33 -16 42 -21 q 22 -11 25 -11 l 13 -17 q -107 -222 -25 -72 q -237 -474 -189 -372 q -256 -507 -244 -486 q -299 -582 -267 -528 q -359 -677 -331 -636 q -422 -752 -387 -718 q -479 -786 -456 -786 q -493 -774 -493 -786 q -412 -581 -493 -736 q -249 -289 -331 -426 l -167 -153 q 147 406 35 199 q 251 588 199 506 q 647 1232 532 1086 q 706 1286 689 1286 q 713 1275 713 1286 q 668 1156 713 1244 m 51 50 q 44 25 44 38 q 83 0 44 0 q 168 37 124 0 q 248 126 213 74 q 313 230 283 178 q 358 319 343 282 l 375 356 q 411 488 411 446 q 390 517 411 517 q 365 508 378 517 q 242 366 321 481 q 108 150 164 251 l 51 50 z "},"":{"ha":499,"x_min":-264,"x_max":696,"o":"m 299 197 l 357 311 q 354 315 357 315 q 347 311 351 315 q 239 194 296 251 q 151 108 182 136 l 121 81 q -26 -18 17 -18 q -46 7 -46 -18 q -24 91 -46 35 q 21 189 -1 147 l 43 232 q 215 524 160 450 q 283 584 243 560 q 346 608 324 608 q 360 599 360 608 q 354 583 360 593 q 297 491 351 578 q 210 342 243 404 q 118 149 118 174 q 126 139 118 139 q 169 164 139 139 q 368 374 260 242 q 493 540 428 438 q 547 588 511 568 q 611 608 582 608 q 624 597 624 608 l 613 571 q 526 419 593 536 q 450 286 458 301 q 399 197 439 265 q 343 99 360 128 q 488 221 431 169 q 631 378 549 285 q 638 382 635 382 q 640 376 640 382 q 619 325 640 350 q 514 211 558 258 q 306 33 456 150 l 269 -33 q -100 -675 1 -526 q -125 -712 -110 -690 q -175 -770 -140 -733 q -231 -807 -210 -807 q -264 -711 -264 -807 q -162 -403 -264 -569 q 176 -35 -53 -224 q 299 197 222 49 m -128 -400 q -154 -444 -139 -417 q -196 -537 -169 -471 q -222 -647 -222 -603 q -214 -671 -222 -671 q -193 -658 -207 -671 q -169 -631 -179 -644 l -160 -617 q 139 -103 -22 -401 q -128 -400 -42 -261 m 388 701 q 353 740 353 701 q 381 806 353 775 q 438 838 408 838 q 472 800 472 838 q 446 733 472 765 q 388 701 419 701 m 611 701 q 576 740 576 701 q 604 807 576 776 q 663 838 632 838 q 696 799 696 838 q 669 733 696 764 q 611 701 643 701 z "},"":{"ha":253,"x_min":-40,"x_max":394,"o":"m 192 135 q -17 -18 29 -18 q -40 14 -40 -18 q -15 107 -40 46 q 35 214 10 168 l 60 258 q 219 524 165 443 q 280 583 243 558 q 349 607 317 607 q 360 597 360 607 q 350 571 360 590 q 268 425 333 540 q 190 286 203 310 q 133 153 133 186 q 142 140 133 140 q 231 210 156 140 q 385 378 289 268 q 392 382 389 382 q 394 376 394 382 q 374 325 394 350 q 192 135 271 211 z "},"":{"ha":576,"x_min":-44,"x_max":621,"o":"m 432 -3 q 397 -19 418 -17 q 139 -31 313 -31 l -24 -28 q -44 -8 -44 -26 l -42 6 q 176 453 38 200 l 75 453 q 64 467 64 453 q 72 497 64 478 q 89 515 81 515 l 211 515 q 411 839 315 699 q 576 1053 538 1022 q 610 1068 594 1068 q 621 1056 621 1068 q 583 957 621 1033 q 518 833 546 881 q 346 515 436 688 l 468 515 q 481 503 481 515 q 472 472 481 489 q 456 453 464 456 l 313 453 q 115 42 158 154 q 114 33 114 38 q 163 10 114 10 q 338 71 257 10 q 551 289 457 167 q 574 300 563 300 q 585 286 585 300 q 569 238 585 272 q 432 -3 479 42 z "},"":{"ha":242,"x_min":-53,"x_max":710,"o":"m 181 135 q 158 114 175 131 q 127 85 140 97 q 93 56 114 74 q 56 25 72 38 q 22 0 39 13 q -11 -19 4 -12 q -36 -25 -26 -25 q -53 -4 -53 -25 q 46 225 -53 40 q 226 550 101 332 l 131 482 q 113 474 118 474 q 104 488 104 474 q 108 504 104 496 q 114 517 111 513 l 118 519 q 272 629 186 568 q 644 1232 526 1082 q 703 1286 686 1286 q 710 1275 710 1286 q 665 1156 710 1244 q 444 751 542 928 q 599 858 589 853 q 610 861 603 861 q 619 844 619 861 q 615 831 619 838 q 607 819 611 824 l 603 817 l 401 674 l 365 610 q 178 279 211 335 q 115 144 115 175 q 124 133 115 133 q 219 210 143 133 q 374 378 278 268 q 381 382 378 382 q 383 376 383 382 q 363 325 383 350 q 181 135 236 185 z "},"":{"ha":1078,"x_min":0,"x_max":1411,"o":"m 721 925 q 640 883 692 925 q 557 806 589 842 q 519 763 525 771 q 493 742 504 742 q 483 757 483 742 q 486 772 483 761 q 620 965 518 868 q 813 1061 722 1061 q 893 938 893 1061 q 888 871 893 915 l 896 883 q 944 1000 944 961 q 941 1018 944 1008 q 938 1031 938 1028 q 957 1046 938 1046 q 1207 1054 1074 1054 q 1390 1047 1321 1054 q 1411 1029 1411 1047 q 1407 1014 1411 1025 q 1314 833 1361 899 q 1299 826 1307 826 q 1286 844 1286 826 q 1293 901 1293 871 q 1179 1015 1293 1015 l 1174 1015 q 1072 976 1103 1015 q 883 675 1001 889 q 849 614 869 651 q 1057 615 914 615 q 1071 607 1071 615 q 1059 588 1071 599 q 1033 575 1047 576 q 842 571 949 571 l 825 571 q 592 89 629 215 q 586 58 586 72 q 660 17 586 17 q 726 28 690 17 q 815 70 763 40 q 932 165 867 100 q 1065 324 997 231 q 1090 339 1074 339 q 1101 328 1101 339 q 1099 317 1101 325 q 929 11 1032 146 q 888 -14 921 -8 q 647 -19 774 -19 q 415 -11 493 -19 q 401 8 401 -10 q 407 33 401 18 l 429 86 q 119 -42 274 -42 q 0 126 0 -42 q 54 408 0 264 q 186 658 108 551 q 347 839 264 764 q 492 933 429 914 q 510 936 499 936 q 521 929 521 936 q 510 908 521 921 q 415 797 469 869 q 295 619 360 724 q 186 386 231 515 q 142 143 142 257 q 221 24 142 24 q 519 260 357 24 q 649 483 590 386 q 753 882 753 701 q 721 925 753 925 z "},"":{"ha":707,"x_min":7,"x_max":849,"o":"m 628 153 q 839 378 701 221 q 846 382 843 382 q 849 376 849 382 q 828 325 849 350 q 646 135 725 211 q 507 23 588 76 q 374 -31 426 -31 q 310 56 310 -31 q 118 -26 211 -26 q 35 8 64 -26 q 7 97 7 43 q 81 328 7 201 q 254 537 157 461 q 438 613 351 613 q 513 584 486 613 q 544 507 540 556 q 671 585 607 558 q 779 610 731 610 q 833 567 833 610 q 719 382 833 486 q 464 224 606 278 q 454 214 458 222 q 433 113 433 157 q 471 63 433 63 q 628 153 531 63 m 183 296 q 111 65 111 138 q 150 14 111 14 q 372 296 244 17 q 447 533 447 458 q 418 578 447 578 q 305 495 372 578 q 183 296 238 413 m 690 471 q 707 532 707 506 q 693 554 707 554 q 674 549 685 554 q 658 539 664 544 l 651 533 q 519 357 594 483 q 479 269 501 313 q 482 264 479 264 q 519 278 490 264 q 601 343 547 292 q 690 471 654 394 z "},"":{"ha":621,"x_min":-51,"x_max":938,"o":"m -47 96 q 16 225 -25 151 q 88 344 57 299 l 118 389 q 157 417 138 417 q 172 401 172 417 l 168 388 q 118 169 118 261 q 151 49 118 96 q 253 3 183 3 q 421 94 357 3 q 485 290 485 185 q 423 548 485 381 q 361 775 361 715 q 472 983 361 904 q 714 1061 582 1061 q 760 1058 738 1061 q 811 1049 783 1056 q 856 1029 839 1043 q 872 994 872 1015 q 833 900 872 967 q 768 799 794 833 q 751 792 758 792 q 742 808 742 792 q 750 914 742 847 q 667 1022 750 1022 q 547 974 596 1022 q 497 856 497 925 q 562 600 497 764 q 626 347 626 436 q 495 73 626 181 q 200 -35 364 -35 q 133 -29 172 -35 q 51 -12 94 -24 q -22 23 8 0 q -51 75 -51 46 q -47 96 -51 86 m 726 1167 q 731 1161 728 1161 l 739 1167 q 844 1242 785 1213 q 928 1272 904 1272 q 938 1267 938 1272 l 932 1254 q 890 1213 918 1243 q 842 1158 863 1183 l 821 1133 q 794 1121 813 1121 l 643 1121 q 632 1131 632 1121 q 635 1153 632 1132 q 640 1206 638 1174 q 643 1267 643 1239 q 651 1281 643 1281 q 696 1240 672 1281 q 726 1167 719 1199 z "},"":{"ha":379,"x_min":-37,"x_max":622,"o":"m 328 158 q 249 44 303 90 q 148 -19 194 -3 q 64 -36 101 -36 q -37 43 -37 -36 q 51 189 -37 124 q 142 229 93 219 q 149 224 149 229 q 146 218 149 221 q 80 136 111 192 q 49 39 49 81 q 83 -3 49 -3 q 138 20 111 -3 q 179 67 165 43 l 193 89 q 240 231 221 133 q 264 403 258 328 l 268 478 q 264 489 268 489 l 258 486 l 121 325 q 100 307 106 307 q 93 317 93 307 q 103 344 93 335 l 115 360 q 296 575 274 538 q 357 631 317 607 q 449 653 396 653 q 463 642 463 653 q 451 629 463 635 q 441 623 447 628 q 419 600 435 618 q 390 558 403 582 q 368 492 378 535 q 358 399 358 450 q 328 158 358 239 m 411 760 q 415 754 413 754 l 424 760 q 529 835 469 806 q 613 865 589 865 q 622 860 622 865 l 617 847 q 575 806 603 836 q 526 750 547 775 l 506 726 q 479 714 497 714 l 328 714 q 317 724 317 714 q 319 746 317 725 q 325 799 322 767 q 328 860 328 832 q 336 874 328 874 q 381 833 357 874 q 411 760 404 792 z "},"":{"ha":304,"x_min":-62,"x_max":985,"o":"m 297 364 q 122 49 171 142 q -39 -44 74 -44 q -62 -31 -62 -44 l -57 -15 q 48 157 -7 61 q 133 311 103 253 l 163 369 q 238 653 207 456 q 268 976 268 851 l 264 1022 q 261 1035 261 1028 q 275 1060 261 1050 q 371 1085 313 1085 q 393 1047 393 1085 q 324 508 383 818 q 332 497 325 497 q 342 503 336 497 q 735 989 596 853 q 967 1100 850 1100 q 985 1089 985 1099 q 974 1073 985 1085 q 940 1042 963 1061 q 896 1007 917 1024 q 842 965 875 990 q 792 925 810 939 q 759 899 779 915 q 678 824 739 882 q 559 706 617 767 q 428 551 501 644 q 297 364 354 457 m 515 1122 q 481 1161 481 1122 q 508 1227 481 1196 q 565 1258 536 1258 q 600 1221 600 1258 q 574 1154 600 1186 q 515 1122 547 1122 m 739 1122 q 704 1161 704 1122 q 732 1228 704 1197 q 790 1258 760 1258 q 824 1219 824 1258 q 797 1153 824 1185 q 739 1122 771 1122 z "},"":{"ha":644,"x_min":-89,"x_max":1024,"o":"m 939 1015 q 736 785 856 911 q 523 567 617 660 q 318 342 429 475 q 124 75 207 210 q 114 50 114 60 q 192 25 114 25 q 285 38 239 25 q 364 70 332 51 q 421 108 396 89 q 458 139 446 126 l 469 153 q 531 215 494 181 q 589 268 567 249 l 613 288 q 640 300 633 300 q 651 286 651 300 q 629 226 651 269 q 582 142 607 182 q 530 61 557 103 q 501 18 503 19 q 451 -8 485 -8 q 204 -17 365 -17 l -62 -12 q -89 8 -89 -10 l -86 19 q 154 335 18 178 q 397 594 290 492 q 624 810 504 696 q 800 989 743 925 q 807 1003 807 996 q 747 1015 807 1015 q 637 999 692 1015 q 544 958 582 982 q 475 909 506 933 q 431 868 444 885 l 415 851 q 392 842 400 842 q 381 854 381 842 q 439 964 381 879 q 526 1053 497 1049 q 742 1060 575 1060 q 810 1058 764 1060 q 868 1057 857 1057 q 897 1064 885 1057 l 903 1067 q 969 1100 953 1099 q 978 1092 978 1100 q 939 1015 978 1063 m 813 1201 q 817 1196 814 1196 l 825 1201 q 931 1277 871 1247 q 1014 1307 990 1307 q 1024 1301 1024 1307 l 1018 1289 q 976 1247 1004 1278 q 928 1192 949 1217 l 907 1168 q 881 1156 899 1156 l 729 1156 q 718 1165 718 1156 q 721 1188 718 1167 q 726 1241 724 1208 q 729 1301 729 1274 q 738 1315 729 1315 q 782 1274 758 1315 q 813 1201 806 1233 z "},"":{"ha":454,"x_min":-90,"x_max":700,"o":"m 621 581 q 533 494 599 556 q 414 385 468 433 l 360 336 q 214 196 281 267 q 119 89 147 125 l 93 53 q 88 36 88 43 q 132 24 88 24 q 297 107 211 24 q 425 211 401 211 q 432 199 432 211 q 340 29 372 68 q 282 -6 317 -1 q 185 -10 256 -10 q 126 -9 157 -10 q 74 -8 96 -8 q 49 -7 53 -7 q 16 -10 31 -7 q -4 -15 1 -12 l -10 -18 q -79 -49 -60 -49 q -90 -37 -90 -49 q -42 62 -90 -3 q 72 192 6 126 q 183 298 139 257 q 243 351 226 339 q 402 488 318 414 q 486 568 486 563 q 463 576 486 576 q 203 443 325 575 q 194 442 201 442 q 176 449 176 442 q 195 478 176 451 q 236 537 214 504 q 264 582 258 569 q 293 599 275 597 q 514 606 410 606 q 613 603 585 606 q 628 593 628 601 q 621 581 628 590 m 489 732 q 493 726 490 726 l 501 732 q 607 808 547 778 q 690 838 667 838 q 700 832 700 838 l 694 819 q 653 778 681 808 q 604 722 625 747 l 583 699 q 557 686 575 686 l 406 686 q 394 696 394 686 q 397 718 394 697 q 403 772 400 739 q 406 832 406 804 q 414 846 406 846 q 458 805 435 846 q 489 732 482 764 z "},"":{"ha":514,"x_min":406,"x_max":711,"o":"m 617 800 q 613 806 615 806 l 604 800 q 499 724 558 754 q 415 694 439 694 q 406 700 406 694 l 411 713 q 453 754 425 724 q 501 808 481 785 l 522 833 q 549 846 531 846 l 700 846 q 711 836 711 846 q 708 814 711 835 q 703 760 706 793 q 700 700 700 728 q 692 686 700 686 q 647 727 671 686 q 617 800 624 768 z "},"":{"ha":514,"x_min":450,"x_max":756,"o":"m 544 732 q 549 726 546 726 l 557 732 q 663 808 603 778 q 746 838 722 838 q 756 832 756 838 l 750 819 q 708 778 736 808 q 660 722 681 747 l 639 699 q 613 686 631 686 l 461 686 q 450 696 450 686 q 453 718 450 697 q 458 772 456 739 q 461 832 461 804 q 469 846 461 846 q 514 805 490 846 q 544 732 538 764 z "},"":{"ha":514,"x_min":453,"x_max":694,"o":"m 471 707 q 453 757 453 731 q 468 797 453 782 q 503 811 483 811 q 557 735 508 735 q 619 761 586 735 q 669 826 651 788 q 694 810 694 826 q 643 722 694 767 q 536 678 592 678 q 471 707 490 678 z "},"":{"ha":253,"x_min":342,"x_max":476,"o":"m 376 686 q 342 728 342 686 q 371 806 342 767 q 435 846 400 846 q 476 799 476 846 q 444 723 476 760 q 376 686 413 686 z "},"":{"ha":514,"x_min":493,"x_max":651,"o":"m 540 683 q 506 698 518 683 q 493 736 493 713 q 531 817 493 779 q 603 856 568 856 q 638 841 625 856 q 651 803 651 826 q 615 722 651 761 q 540 683 579 683 m 586 810 q 553 792 569 810 q 538 753 538 774 q 557 729 538 729 q 590 749 574 731 q 607 786 607 767 q 586 810 607 810 z "},"":{"ha":514,"x_min":210,"x_max":346,"o":"m 282 -4 q 258 -50 258 -15 q 274 -90 258 -74 q 319 -107 289 -107 q 343 -104 326 -107 q 346 -111 346 -107 q 335 -122 346 -118 q 285 -131 306 -131 q 228 -112 247 -131 q 210 -67 210 -93 q 226 -22 210 -42 q 269 -3 243 -3 q 282 -4 278 -3 z "},"":{"ha":526,"x_min":364,"x_max":638,"o":"m 636 733 q 531 651 590 651 q 467 675 504 651 q 407 699 431 699 q 382 694 397 699 q 372 693 378 693 q 364 699 364 693 q 393 729 364 715 q 453 743 422 743 q 508 734 472 743 q 561 725 543 725 q 622 744 594 725 q 628 746 624 746 q 638 738 638 746 q 636 733 638 735 z "},"":{"ha":514,"x_min":414,"x_max":813,"o":"m 807 825 q 717 749 769 782 q 633 706 665 717 l 600 694 q 585 700 585 694 q 590 713 585 704 q 632 754 604 724 q 681 808 660 785 l 701 833 q 728 846 710 846 l 796 846 q 813 836 813 846 q 807 825 813 831 m 636 825 q 547 749 599 782 q 461 706 494 717 l 429 694 q 414 700 414 694 q 419 713 414 704 q 461 754 433 724 q 510 808 489 785 l 531 833 q 557 846 539 846 l 625 846 q 642 836 642 846 q 636 825 642 831 z "},"":{"ha":596,"x_min":182,"x_max":599,"o":"m 574 282 l 193 282 q 182 296 182 282 q 190 326 182 307 q 207 344 199 344 l 586 344 q 599 332 599 344 q 590 301 599 318 q 574 282 582 285 z "},"":{"ha":1013,"x_min":182,"x_max":1015,"o":"m 967 282 l 206 282 q 182 296 182 282 q 199 326 182 307 q 232 344 217 344 l 992 344 q 1015 332 1015 344 q 999 301 1015 318 q 967 282 983 285 z "},"":{"ha":281,"x_min":424,"x_max":565,"o":"m 469 869 q 456 853 464 853 q 431 876 439 853 q 424 917 424 899 q 433 968 424 940 q 450 1011 442 996 l 458 1026 q 546 1064 469 1058 q 565 1053 565 1064 q 560 1039 565 1046 q 469 869 490 938 z "},"":{"ha":194,"x_min":363,"x_max":557,"o":"m 553 1033 q 478 926 521 969 q 411 869 436 882 l 385 858 q 371 856 374 856 q 363 864 363 856 l 365 875 q 402 938 382 901 q 433 997 422 974 l 446 1021 l 447 1024 q 453 1033 449 1026 q 467 1044 458 1039 q 495 1054 476 1050 q 538 1058 514 1058 q 557 1046 557 1058 q 553 1033 557 1042 z "},"":{"ha":256,"x_min":-54,"x_max":151,"o":"m -31 -124 q -46 -129 -39 -129 q -54 -122 -54 -129 q -47 -103 -54 -114 q -32 -78 -46 -101 q -12 -43 -18 -54 q 1 -11 -7 -32 q 11 26 8 10 q 40 112 11 74 q 107 150 69 150 q 151 110 151 150 q 86 -14 151 64 q -31 -124 21 -92 z "},"":{"ha":440,"x_min":424,"x_max":725,"o":"m 469 869 q 456 853 464 853 q 431 876 439 853 q 424 917 424 899 q 433 968 424 940 q 450 1011 442 996 l 458 1026 q 546 1064 469 1058 q 565 1053 565 1064 q 560 1039 565 1046 q 469 869 490 938 m 629 869 q 617 853 624 853 q 592 876 600 853 q 585 918 585 899 q 593 969 585 942 q 610 1011 601 996 l 618 1026 q 707 1064 629 1058 q 725 1053 725 1064 q 721 1039 725 1047 q 629 869 650 938 z "},"":{"ha":361,"x_min":363,"x_max":724,"o":"m 551 1033 q 477 926 519 969 q 408 869 435 882 l 383 858 l 372 856 q 363 864 363 856 l 365 875 l 446 1021 l 447 1024 q 453 1033 447 1026 q 467 1044 458 1039 q 494 1054 475 1050 q 536 1058 513 1058 q 556 1046 556 1058 q 551 1033 556 1042 m 719 1033 q 645 926 688 969 q 578 869 603 882 l 551 858 q 538 856 540 856 q 529 864 529 856 l 532 875 q 569 938 549 901 q 600 997 589 974 l 613 1021 l 614 1024 q 620 1033 615 1026 q 634 1044 625 1039 q 662 1054 643 1050 q 704 1058 681 1058 q 724 1046 724 1058 q 719 1033 724 1042 z "},"":{"ha":421,"x_min":-54,"x_max":317,"o":"m -31 -124 q -46 -129 -39 -129 q -54 -122 -54 -129 q -47 -103 -54 -114 q -32 -78 -46 -101 q -12 -43 -18 -54 q 1 -11 -7 -32 q 11 26 8 10 q 40 112 11 74 q 107 150 69 150 q 151 110 151 150 q 86 -14 151 64 q -31 -124 21 -92 m 135 -124 q 119 -129 126 -129 q 111 -122 111 -129 q 118 -103 111 -114 q 133 -78 119 -101 q 153 -43 147 -54 q 166 -11 158 -32 q 176 26 174 10 q 206 112 176 74 q 272 150 235 150 q 317 110 317 150 q 251 -14 317 64 q 135 -124 186 -92 z "},"":{"ha":613,"x_min":-75,"x_max":668,"o":"m 569 689 l 453 481 l 644 481 q 668 468 668 481 q 652 438 668 454 q 619 418 636 421 l 418 418 l 18 -300 q -46 -326 10 -326 q -75 -314 -75 -326 q -71 -301 -75 -310 l 331 418 l 136 418 q 113 432 113 418 q 130 462 113 443 q 163 481 147 481 l 365 481 l 481 688 q 543 715 497 715 q 574 700 574 715 q 569 689 574 694 z "},"":{"ha":214,"x_min":19,"x_max":232,"o":"m 82 206 q 37 224 54 206 q 19 274 19 243 q 67 390 19 332 q 169 447 114 447 q 215 428 199 447 q 232 376 232 408 q 185 262 232 317 q 82 206 138 207 z "},"":{"ha":724,"x_min":0,"x_max":625,"o":"m 42 -11 q 11 1 22 -11 q 0 35 0 14 q 31 112 0 74 q 100 150 63 150 q 142 103 142 150 q 110 26 142 63 q 42 -11 79 -10 m 285 -11 q 254 1 265 -11 q 243 35 243 14 q 274 112 243 74 q 343 150 306 150 q 385 103 385 150 q 353 26 385 63 q 285 -11 322 -10 m 525 -11 q 494 1 506 -11 q 483 35 483 14 q 515 112 483 74 q 583 150 546 150 q 625 103 625 150 q 594 26 625 63 q 525 -11 563 -10 z "},"":{"ha":1206,"x_min":-47,"x_max":1239,"o":"m 1110 1054 l 24 -12 q -35 -35 -1 -35 q -47 -29 -47 -35 l -37 -17 q 1046 1046 974 978 q 1097 1072 1074 1072 q 1115 1064 1115 1072 q 1110 1054 1115 1060 m 732 451 q 638 385 694 451 q 540 231 582 319 q 497 81 497 142 q 538 26 497 26 q 628 95 572 26 q 725 255 683 164 q 767 404 767 346 q 732 451 767 451 m 754 486 q 822 460 799 486 q 846 390 846 435 q 794 219 846 315 q 660 53 743 124 q 499 -18 576 -18 q 408 83 408 -18 q 459 258 408 164 q 592 419 510 353 q 754 486 675 486 m 571 1025 q 477 959 533 1025 q 378 804 421 893 q 336 654 336 715 q 376 600 336 600 q 467 669 411 600 q 564 828 522 738 q 606 978 606 919 q 571 1025 606 1025 m 593 1060 q 661 1034 638 1060 q 685 964 685 1008 q 633 793 685 889 q 499 626 582 697 q 338 556 415 556 q 247 657 247 556 q 298 832 247 738 q 431 993 349 926 q 593 1060 514 1060 m 1125 451 q 1031 385 1088 451 q 933 231 975 319 q 890 81 890 142 q 931 26 890 26 q 1021 95 965 26 q 1118 255 1076 164 q 1160 404 1160 346 q 1125 451 1160 451 m 1147 486 q 1215 460 1192 486 q 1239 390 1239 435 q 1188 219 1239 315 q 1053 53 1136 124 q 892 -18 969 -18 q 801 83 801 -18 q 852 258 801 164 q 985 419 903 353 q 1147 486 1068 486 z "},"":{"ha":449,"x_min":39,"x_max":564,"o":"m 168 21 q 88 144 136 56 q 39 269 39 232 q 44 290 39 281 q 53 304 49 300 l 58 308 q 249 432 129 360 q 447 544 383 513 q 526 561 485 561 q 564 550 564 561 q 544 528 564 540 q 157 290 199 338 q 149 271 149 282 q 267 31 151 231 q 274 13 274 22 q 242 -6 274 -6 q 168 21 193 -6 z "},"":{"ha":506,"x_min":-53,"x_max":472,"o":"m 343 542 q 422 414 372 508 q 472 292 472 319 q 467 273 472 282 q 458 260 463 264 l 453 256 q 261 131 381 203 q 64 18 163 71 q -19 1 36 1 q -53 14 -53 1 q -33 35 -53 22 q 354 272 311 226 q 361 294 361 281 q 243 532 361 328 q 236 550 236 540 q 269 568 236 568 q 343 542 318 568 z "},"":{"ha":506,"x_min":-236,"x_max":926,"o":"m 921 1054 l -165 -12 q -224 -35 -190 -35 q -236 -29 -236 -35 l -226 -17 q 857 1046 785 978 q 908 1072 885 1072 q 926 1064 926 1072 q 921 1054 926 1060 z "},"":{"ha":551,"x_min":196,"x_max":828,"o":"m 667 601 q 571 538 633 542 q 532 533 568 538 l 435 351 q 383 306 418 325 q 319 286 349 286 q 307 299 307 286 l 308 306 q 433 532 321 336 l 407 532 l 215 538 q 196 554 196 539 l 200 568 q 243 615 215 586 q 349 723 271 644 q 498 865 428 801 q 651 989 568 929 q 790 1067 735 1049 l 803 1067 q 828 1054 828 1067 q 825 1046 828 1050 q 781 967 819 1033 q 681 794 743 901 q 575 613 618 686 q 616 615 597 613 q 646 618 635 617 q 660 619 657 619 q 669 613 669 619 q 667 601 669 607 m 675 947 q 679 958 679 956 q 675 963 679 963 l 664 958 q 505 825 585 903 q 383 697 425 747 l 343 649 q 336 632 336 640 q 351 619 336 622 q 478 611 396 613 l 675 947 z "},"":{"ha":722,"x_min":161,"x_max":1031,"o":"m 672 624 q 461 622 600 622 l 432 563 q 534 563 467 563 q 635 564 601 564 q 649 561 646 564 q 650 556 650 560 q 639 537 650 547 q 614 524 628 526 q 413 522 544 522 q 321 182 321 319 q 356 58 321 106 q 458 10 390 10 q 624 85 547 10 q 651 103 642 103 q 658 92 658 103 q 611 13 658 36 q 422 -29 529 -29 q 238 42 297 -29 q 179 222 179 114 q 254 522 179 353 l 179 522 q 161 532 161 522 q 173 553 161 544 q 196 563 185 563 l 272 563 l 304 622 l 238 622 q 219 632 219 622 q 231 653 219 644 q 254 663 243 663 l 328 663 q 581 951 435 838 q 875 1065 726 1065 q 1025 1017 994 1065 q 1031 997 1031 1008 q 1013 947 1031 974 q 997 936 1006 936 q 990 940 993 936 q 985 947 986 943 l 983 950 q 881 1028 953 1028 q 680 925 786 1028 q 483 663 574 822 q 589 663 519 663 q 693 664 658 664 q 707 661 704 664 q 708 656 708 660 q 697 637 708 647 q 672 624 686 626 z "},"":{"ha":631,"x_min":178,"x_max":679,"o":"m 342 454 q 350 438 350 454 l 344 419 q 290 353 326 383 q 215 322 253 322 q 178 371 178 322 q 256 521 178 449 q 228 533 240 524 q 215 556 215 542 q 250 597 215 576 q 335 617 285 617 q 376 613 351 617 q 414 610 400 610 q 444 617 436 610 l 447 617 q 449 615 449 617 q 447 611 449 613 q 399 583 429 583 q 349 592 381 583 q 299 601 317 601 q 260 590 278 601 q 242 558 242 578 q 246 542 242 550 q 256 531 250 535 l 260 526 q 340 576 306 568 l 344 576 q 349 574 349 576 q 343 568 349 572 q 265 497 314 557 q 217 375 217 436 q 239 340 217 340 q 298 376 271 340 q 338 451 325 411 q 342 454 339 454 m 676 613 q 631 541 656 585 q 592 467 607 497 l 578 438 q 539 321 539 357 l 539 314 q 536 308 539 308 q 522 319 529 308 q 514 349 514 331 q 603 549 514 399 l 603 551 q 601 554 603 554 q 597 551 600 554 q 538 490 575 533 q 475 413 501 447 l 450 378 q 440 368 444 368 l 436 376 q 456 542 456 532 q 454 546 456 546 l 450 542 q 385 411 414 490 q 358 354 372 378 q 336 324 343 331 l 328 317 q 321 314 322 314 q 319 317 319 314 l 319 321 q 353 397 324 340 q 411 500 383 454 l 439 547 l 460 583 q 483 626 475 626 q 489 608 489 626 q 478 447 478 467 q 479 440 478 440 q 485 444 481 440 q 521 490 499 463 q 593 566 543 517 q 669 622 643 615 l 675 622 q 679 619 679 622 q 676 613 679 618 z "},"":{"ha":694,"x_min":222,"x_max":778,"o":"m 729 503 l 246 503 q 222 517 222 503 q 240 547 222 528 q 272 565 257 565 l 754 565 q 778 553 778 565 q 762 522 778 539 q 729 503 746 506 z "},"":{"ha":694,"x_min":144,"x_max":828,"o":"m 774 575 l 601 575 l 507 493 l 710 493 q 733 481 733 493 q 717 450 733 467 q 685 431 701 433 l 435 431 l 250 271 q 181 251 228 251 q 144 263 144 251 q 150 272 144 264 l 335 431 l 201 431 q 178 444 178 431 q 195 474 178 456 q 228 493 213 493 l 407 493 l 503 575 l 290 575 q 267 589 267 575 q 284 619 267 600 q 317 638 301 638 l 575 638 l 725 765 q 779 783 747 783 q 828 772 828 783 q 824 765 828 769 l 675 638 l 799 638 q 822 625 822 638 q 806 594 822 611 q 774 575 790 578 z "},"":{"ha":732,"x_min":90,"x_max":926,"o":"m 606 260 l 114 260 q 90 278 90 260 q 138 322 107 322 l 631 322 q 654 308 654 322 q 638 278 654 294 q 606 260 622 263 m 660 376 q 490 431 593 400 q 317 481 386 461 l 246 500 q 224 526 224 507 q 240 562 224 544 q 273 588 257 579 q 319 611 289 597 q 911 803 661 747 q 917 804 914 804 q 926 796 926 804 q 902 748 926 771 q 850 717 878 725 l 778 694 q 400 557 400 589 q 417 544 400 550 q 526 513 446 533 q 657 474 606 492 q 714 440 708 457 q 719 411 719 428 q 694 368 719 368 q 660 376 682 368 z "},"":{"ha":753,"x_min":101,"x_max":876,"o":"m 617 260 l 125 260 q 101 278 101 260 q 150 322 118 322 l 642 322 q 665 304 665 322 q 617 260 649 260 m 436 794 q 607 740 503 771 q 781 690 711 710 l 851 671 q 876 639 876 661 q 776 560 876 599 q 185 368 433 424 q 179 367 182 367 q 169 375 169 367 q 174 388 169 379 q 179 402 175 393 q 202 430 183 411 q 246 454 221 449 q 693 607 671 569 q 696 613 696 608 q 679 626 696 621 q 570 658 650 638 q 439 697 490 679 q 382 731 388 714 q 376 760 376 743 q 401 803 376 803 q 436 794 414 803 z "},"":{"ha":579,"x_min":-237,"x_max":854,"o":"m 518 135 q 310 -18 356 -18 q 286 14 286 -18 q 311 107 286 46 q 361 214 336 168 l 386 258 q 546 524 492 443 q 575 558 557 540 l 351 558 q 332 549 332 558 q 334 525 332 544 q 336 494 336 506 q 258 184 336 365 q 54 -164 179 3 q -79 -322 -18 -260 q -172 -405 -140 -385 q -218 -425 -203 -425 q -237 -399 -237 -425 q 28 197 -237 -271 q 54 247 28 199 q 131 387 81 296 q 233 561 182 478 l 200 569 q 192 579 192 574 q 207 588 192 588 l 249 588 q 485 929 393 821 q 675 1095 581 1040 q 821 1150 769 1150 q 854 1121 854 1150 q 788 991 854 1057 q 676 906 722 925 q 665 903 668 903 q 660 910 660 903 q 664 921 660 914 q 744 1078 744 1039 q 736 1088 744 1088 q 681 1057 719 1088 q 350 588 586 986 l 614 588 q 675 607 647 607 q 686 597 686 607 q 676 571 686 590 q 594 425 660 540 q 517 286 529 310 q 460 153 460 186 q 468 140 460 140 q 557 210 482 140 q 711 378 615 268 q 718 382 715 382 q 721 376 721 382 q 700 325 721 350 q 518 135 597 211 m 299 456 q 294 492 299 475 q -11 -68 75 114 q -90 -260 -90 -232 q -86 -265 -90 -265 q 10 -175 -67 -265 q 194 124 90 -81 q 299 456 299 328 m 703 686 q 668 728 668 686 q 697 806 668 767 q 761 846 726 846 q 803 799 803 846 q 771 723 803 760 q 703 686 739 686 z "},"":{"ha":604,"x_min":-237,"x_max":1213,"o":"m 200 569 q 192 579 192 574 q 207 588 192 588 l 249 588 q 485 929 393 821 q 675 1095 581 1040 q 821 1150 769 1150 q 854 1121 854 1150 q 788 991 854 1057 q 676 906 722 925 q 665 903 668 903 q 660 910 660 903 q 664 921 660 914 q 744 1078 744 1039 q 736 1088 744 1088 q 681 1057 719 1088 q 350 588 586 986 l 457 588 q 476 582 476 588 q 466 567 476 575 q 450 558 456 558 l 351 558 q 332 549 332 558 q 334 525 332 544 q 336 494 336 506 q 258 184 336 365 q 54 -164 179 3 q -79 -322 -18 -260 q -172 -405 -140 -385 q -218 -425 -203 -425 q -237 -399 -237 -425 q 28 197 -237 -271 q 54 247 28 199 q 131 387 81 296 q 233 561 182 478 l 200 569 m 299 456 q 294 492 299 475 q -11 -68 75 114 q -90 -260 -90 -232 q -86 -265 -90 -265 q 10 -175 -67 -265 q 194 124 90 -81 q 299 456 299 328 m 731 676 q 908 834 829 746 q 1027 997 986 922 q 1089 1125 1068 1071 q 1110 1203 1110 1179 q 1100 1217 1110 1217 q 1053 1189 1081 1217 q 933 1036 1000 1136 q 826 865 867 936 q 719 674 785 793 q 731 676 725 674 m 582 210 q 736 378 640 268 q 743 382 740 382 q 746 376 746 382 q 725 325 746 350 q 543 135 622 211 q 322 -29 369 -29 q 301 0 301 -29 q 305 33 301 15 q 317 73 308 51 q 331 109 325 94 q 349 151 338 124 q 365 188 361 178 q 604 649 404 275 q 1107 1261 878 1147 q 1174 1278 1140 1278 q 1213 1242 1213 1278 q 1156 1059 1213 1158 q 1017 876 1099 960 q 856 731 935 793 q 721 636 778 668 q 706 624 713 633 q 586 412 644 525 q 500 233 528 299 l 471 169 q 464 142 464 149 q 474 129 464 129 q 582 210 501 129 z "},"":{"ha":250,"x_min":0,"x_max":0,"o":""}}}
